<svg width="335" height="300" viewBox="0 0 335 300" fill="none" xmlns="http://www.w3.org/2000/svg">
<path d="M78.48 80.198C77.448 80.198 76.518 79.982 75.69 79.55C74.862 79.106 74.202 78.416 73.71 77.48C73.23 76.532 72.99 75.302 72.99 73.79V73.43C72.99 72.338 73.134 71.402 73.422 70.622C73.71 69.83 74.1 69.182 74.592 68.678C75.096 68.174 75.678 67.802 76.338 67.562C77.01 67.322 77.724 67.202 78.48 67.202C79.176 67.202 79.824 67.292 80.424 67.472C81.024 67.64 81.552 67.898 82.008 68.246C82.464 68.594 82.83 69.026 83.106 69.542C83.382 70.058 83.55 70.664 83.61 71.36H81.342C81.186 70.58 80.85 70.01 80.334 69.65C79.83 69.29 79.212 69.11 78.48 69.11C77.952 69.11 77.442 69.248 76.95 69.524C76.458 69.788 76.05 70.232 75.726 70.856C75.414 71.48 75.258 72.338 75.258 73.43V73.79C75.258 74.654 75.354 75.38 75.546 75.968C75.738 76.544 75.99 77 76.302 77.336C76.626 77.672 76.974 77.918 77.346 78.074C77.73 78.218 78.108 78.29 78.48 78.29C79.344 78.29 80.01 78.092 80.478 77.696C80.958 77.288 81.246 76.736 81.342 76.04H83.61C83.538 76.784 83.358 77.42 83.07 77.948C82.794 78.476 82.422 78.908 81.954 79.244C81.498 79.568 80.976 79.808 80.388 79.964C79.8 80.12 79.164 80.198 78.48 80.198ZM87.9377 80V72.152H84.7877V70.46H93.0677V72.152H89.9177V80H87.9377ZM94.6877 83.6V70.46H96.5237V72.062C96.8117 71.51 97.2377 71.072 97.8017 70.748C98.3777 70.424 99.0257 70.262 99.7457 70.262C100.994 70.262 101.978 70.652 102.698 71.432C103.418 72.212 103.778 73.388 103.778 74.96V75.32C103.778 76.4 103.61 77.306 103.274 78.038C102.938 78.758 102.47 79.298 101.87 79.658C101.27 80.018 100.562 80.198 99.7457 80.198C99.0617 80.198 98.4377 80.048 97.8737 79.748C97.3097 79.448 96.9077 79.028 96.6677 78.488V83.6H94.6877ZM99.2777 78.47C100.022 78.47 100.622 78.212 101.078 77.696C101.534 77.18 101.762 76.388 101.762 75.32V74.96C101.762 73.952 101.54 73.208 101.096 72.728C100.652 72.236 100.046 71.99 99.2777 71.99C98.8337 71.99 98.4077 72.086 97.9997 72.278C97.6037 72.47 97.2797 72.752 97.0277 73.124C96.7877 73.496 96.6677 73.958 96.6677 74.51V75.77C96.6677 76.37 96.7877 76.874 97.0277 77.282C97.2797 77.678 97.6037 77.978 97.9997 78.182C98.3957 78.374 98.8217 78.47 99.2777 78.47ZM109.902 80.198C109.026 80.198 108.234 80.018 107.526 79.658C106.818 79.286 106.254 78.74 105.834 78.02C105.426 77.288 105.222 76.388 105.222 75.32V74.96C105.222 73.952 105.426 73.1 105.834 72.404C106.254 71.696 106.818 71.162 107.526 70.802C108.234 70.442 109.026 70.262 109.902 70.262C110.79 70.262 111.582 70.442 112.278 70.802C112.986 71.162 113.544 71.696 113.952 72.404C114.372 73.1 114.582 73.952 114.582 74.96V75.32C114.582 76.388 114.372 77.288 113.952 78.02C113.544 78.74 112.986 79.286 112.278 79.658C111.582 80.018 110.79 80.198 109.902 80.198ZM109.902 78.47C110.358 78.47 110.79 78.362 111.198 78.146C111.606 77.93 111.936 77.594 112.188 77.138C112.44 76.67 112.566 76.064 112.566 75.32V74.96C112.566 74.276 112.44 73.718 112.188 73.286C111.936 72.842 111.606 72.518 111.198 72.314C110.79 72.098 110.358 71.99 109.902 71.99C109.446 71.99 109.014 72.098 108.606 72.314C108.198 72.518 107.868 72.842 107.616 73.286C107.364 73.718 107.238 74.276 107.238 74.96V75.32C107.238 76.064 107.364 76.67 107.616 77.138C107.868 77.594 108.198 77.93 108.606 78.146C109.014 78.362 109.446 78.47 109.902 78.47ZM116.555 80V70.46H118.535V77.21L123.125 70.46H125.015V80H123.035V73.25L118.445 80H116.555ZM129.791 80V72.152H126.641V70.46H134.921V72.152H131.771V80H129.791ZM140.505 80.198C139.665 80.198 138.891 80.024 138.183 79.676C137.475 79.316 136.905 78.776 136.473 78.056C136.041 77.336 135.825 76.424 135.825 75.32V74.96C135.825 73.904 136.029 73.028 136.437 72.332C136.857 71.636 137.409 71.12 138.093 70.784C138.777 70.436 139.521 70.262 140.325 70.262C141.777 70.262 142.887 70.652 143.655 71.432C144.435 72.212 144.825 73.328 144.825 74.78V75.788H137.841C137.865 76.436 138.003 76.958 138.255 77.354C138.507 77.75 138.831 78.038 139.227 78.218C139.623 78.386 140.049 78.47 140.505 78.47C141.189 78.47 141.687 78.362 141.999 78.146C142.323 77.93 142.545 77.648 142.665 77.3H144.645C144.453 78.248 143.979 78.968 143.223 79.46C142.479 79.952 141.573 80.198 140.505 80.198ZM140.415 71.99C139.971 71.99 139.557 72.068 139.173 72.224C138.789 72.38 138.477 72.626 138.237 72.962C137.997 73.298 137.865 73.748 137.841 74.312H142.845C142.833 73.712 142.719 73.244 142.503 72.908C142.287 72.572 141.999 72.338 141.639 72.206C141.279 72.062 140.871 71.99 140.415 71.99ZM146.451 80.198C146.355 80.198 146.247 80.192 146.127 80.18C146.019 80.18 145.917 80.168 145.821 80.144V78.272C145.857 78.284 145.947 78.29 146.091 78.29C146.427 78.29 146.697 78.146 146.901 77.858C147.117 77.57 147.273 77.072 147.369 76.364C147.477 75.644 147.531 74.636 147.531 73.34V70.46H154.731V80H152.751V72.152H149.439V73.7C149.439 74.972 149.373 76.034 149.241 76.886C149.121 77.726 148.935 78.386 148.683 78.866C148.431 79.346 148.119 79.688 147.747 79.892C147.375 80.096 146.943 80.198 146.451 80.198ZM157.428 80V70.46H159.408V73.808H161.568C162.792 73.808 163.698 74.072 164.286 74.6C164.874 75.116 165.168 75.884 165.168 76.904C165.168 77.54 165.042 78.092 164.79 78.56C164.538 79.028 164.148 79.388 163.62 79.64C163.092 79.88 162.408 80 161.568 80H157.428ZM159.408 78.308H161.388C162.048 78.308 162.51 78.194 162.774 77.966C163.05 77.726 163.188 77.372 163.188 76.904C163.188 76.436 163.05 76.088 162.774 75.86C162.51 75.62 162.048 75.5 161.388 75.5H159.408V78.308ZM171.105 80.198C170.253 80.198 169.485 80.018 168.801 79.658C168.117 79.298 167.577 78.758 167.181 78.038C166.797 77.318 166.605 76.412 166.605 75.32V74.96C166.605 73.928 166.809 73.064 167.217 72.368C167.637 71.672 168.189 71.15 168.873 70.802C169.557 70.442 170.301 70.262 171.105 70.262C171.945 70.262 172.653 70.406 173.229 70.694C173.817 70.982 174.273 71.372 174.597 71.864C174.933 72.356 175.149 72.908 175.245 73.52H173.229C173.109 73.076 172.893 72.71 172.581 72.422C172.269 72.134 171.777 71.99 171.105 71.99C170.661 71.99 170.247 72.092 169.863 72.296C169.491 72.5 169.191 72.824 168.963 73.268C168.735 73.7 168.621 74.264 168.621 74.96V75.32C168.621 76.076 168.735 76.688 168.963 77.156C169.191 77.612 169.491 77.948 169.863 78.164C170.247 78.368 170.661 78.47 171.105 78.47C171.669 78.47 172.125 78.344 172.473 78.092C172.821 77.84 173.073 77.456 173.229 76.94H175.245C175.125 77.612 174.873 78.194 174.489 78.686C174.117 79.166 173.643 79.538 173.067 79.802C172.491 80.066 171.837 80.198 171.105 80.198ZM179.379 80V72.152H176.229V70.46H184.509V72.152H181.359V80H179.379ZM186.129 80V70.46H190.629C191.433 70.46 192.081 70.574 192.573 70.802C193.077 71.018 193.449 71.324 193.689 71.72C193.929 72.104 194.049 72.548 194.049 73.052C194.049 73.472 193.923 73.88 193.671 74.276C193.419 74.66 193.065 74.918 192.609 75.05C193.197 75.194 193.641 75.47 193.941 75.878C194.253 76.274 194.409 76.742 194.409 77.282C194.409 78.11 194.133 78.77 193.581 79.262C193.029 79.754 192.165 80 190.989 80H186.129ZM188.109 78.308H190.719C191.367 78.308 191.811 78.206 192.051 78.002C192.303 77.786 192.429 77.486 192.429 77.102C192.429 76.718 192.303 76.43 192.051 76.238C191.811 76.034 191.367 75.932 190.719 75.932H188.109V78.308ZM188.109 74.384H190.449C191.049 74.384 191.469 74.288 191.709 74.096C191.949 73.892 192.069 73.616 192.069 73.268C192.069 72.92 191.949 72.65 191.709 72.458C191.469 72.254 191.049 72.152 190.449 72.152H188.109V74.384ZM200.535 80.198C199.659 80.198 198.867 80.018 198.159 79.658C197.451 79.286 196.887 78.74 196.467 78.02C196.059 77.288 195.855 76.388 195.855 75.32V74.96C195.855 73.952 196.059 73.1 196.467 72.404C196.887 71.696 197.451 71.162 198.159 70.802C198.867 70.442 199.659 70.262 200.535 70.262C201.423 70.262 202.215 70.442 202.911 70.802C203.619 71.162 204.177 71.696 204.585 72.404C205.005 73.1 205.215 73.952 205.215 74.96V75.32C205.215 76.388 205.005 77.288 204.585 78.02C204.177 78.74 203.619 79.286 202.911 79.658C202.215 80.018 201.423 80.198 200.535 80.198ZM200.535 78.47C200.991 78.47 201.423 78.362 201.831 78.146C202.239 77.93 202.569 77.594 202.821 77.138C203.073 76.67 203.199 76.064 203.199 75.32V74.96C203.199 74.276 203.073 73.718 202.821 73.286C202.569 72.842 202.239 72.518 201.831 72.314C201.423 72.098 200.991 71.99 200.535 71.99C200.079 71.99 199.647 72.098 199.239 72.314C198.831 72.518 198.501 72.842 198.249 73.286C197.997 73.718 197.871 74.276 197.871 74.96V75.32C197.871 76.064 197.997 76.67 198.249 77.138C198.501 77.594 198.831 77.93 199.239 78.146C199.647 78.362 200.079 78.47 200.535 78.47ZM210.788 82.25V78.308H211.868C212.036 78.056 212.18 77.666 212.3 77.138C212.42 76.598 212.51 75.98 212.57 75.284C212.642 74.588 212.678 73.88 212.678 73.16V70.46H219.788V78.308H221.048V82.25H219.212V80H212.624V82.25H210.788ZM213.884 78.308H217.808V72.152H214.586V73.52C214.586 74.444 214.532 75.332 214.424 76.184C214.316 77.024 214.136 77.732 213.884 78.308ZM222.762 80V70.46H227.262C228.066 70.46 228.714 70.574 229.206 70.802C229.71 71.018 230.082 71.324 230.322 71.72C230.562 72.104 230.682 72.548 230.682 73.052C230.682 73.472 230.556 73.88 230.304 74.276C230.052 74.66 229.698 74.918 229.242 75.05C229.83 75.194 230.274 75.47 230.574 75.878C230.886 76.274 231.042 76.742 231.042 77.282C231.042 78.11 230.766 78.77 230.214 79.262C229.662 79.754 228.798 80 227.622 80H222.762ZM224.742 78.308H227.352C228 78.308 228.444 78.206 228.684 78.002C228.936 77.786 229.062 77.486 229.062 77.102C229.062 76.718 228.936 76.43 228.684 76.238C228.444 76.034 228 75.932 227.352 75.932H224.742V78.308ZM224.742 74.384H227.082C227.682 74.384 228.102 74.288 228.342 74.096C228.582 73.892 228.702 73.616 228.702 73.268C228.702 72.92 228.582 72.65 228.342 72.458C228.102 72.254 227.682 72.152 227.082 72.152H224.742V74.384ZM237.168 80.198C236.292 80.198 235.5 80.018 234.792 79.658C234.084 79.286 233.52 78.74 233.1 78.02C232.692 77.288 232.488 76.388 232.488 75.32V74.96C232.488 73.952 232.692 73.1 233.1 72.404C233.52 71.696 234.084 71.162 234.792 70.802C235.5 70.442 236.292 70.262 237.168 70.262C238.056 70.262 238.848 70.442 239.544 70.802C240.252 71.162 240.81 71.696 241.218 72.404C241.638 73.1 241.848 73.952 241.848 74.96V75.32C241.848 76.388 241.638 77.288 241.218 78.02C240.81 78.74 240.252 79.286 239.544 79.658C238.848 80.018 238.056 80.198 237.168 80.198ZM237.168 78.47C237.624 78.47 238.056 78.362 238.464 78.146C238.872 77.93 239.202 77.594 239.454 77.138C239.706 76.67 239.832 76.064 239.832 75.32V74.96C239.832 74.276 239.706 73.718 239.454 73.286C239.202 72.842 238.872 72.518 238.464 72.314C238.056 72.098 237.624 71.99 237.168 71.99C236.712 71.99 236.28 72.098 235.872 72.314C235.464 72.518 235.134 72.842 234.882 73.286C234.63 73.718 234.504 74.276 234.504 74.96V75.32C234.504 76.064 234.63 76.67 234.882 77.138C235.134 77.594 235.464 77.93 235.872 78.146C236.28 78.362 236.712 78.47 237.168 78.47ZM243.821 83.6V70.46H245.657V72.062C245.945 71.51 246.371 71.072 246.935 70.748C247.511 70.424 248.159 70.262 248.879 70.262C250.127 70.262 251.111 70.652 251.831 71.432C252.551 72.212 252.911 73.388 252.911 74.96V75.32C252.911 76.4 252.743 77.306 252.407 78.038C252.071 78.758 251.603 79.298 251.003 79.658C250.403 80.018 249.695 80.198 248.879 80.198C248.195 80.198 247.571 80.048 247.007 79.748C246.443 79.448 246.041 79.028 245.801 78.488V83.6H243.821ZM248.411 78.47C249.155 78.47 249.755 78.212 250.211 77.696C250.667 77.18 250.895 76.388 250.895 75.32V74.96C250.895 73.952 250.673 73.208 250.229 72.728C249.785 72.236 249.179 71.99 248.411 71.99C247.967 71.99 247.541 72.086 247.133 72.278C246.737 72.47 246.413 72.752 246.161 73.124C245.921 73.496 245.801 73.958 245.801 74.51V75.77C245.801 76.37 245.921 76.874 246.161 77.282C246.413 77.678 246.737 77.978 247.133 78.182C247.529 78.374 247.955 78.47 248.411 78.47ZM262.599 82.25V80H254.895V70.46H256.875V78.308H261.015V70.46H262.995V78.308H264.435V82.25H262.599ZM269.111 80.198C268.427 80.198 267.839 80.072 267.347 79.82C266.867 79.556 266.501 79.196 266.249 78.74C265.997 78.284 265.871 77.774 265.871 77.21C265.871 76.262 266.153 75.56 266.717 75.104C267.281 74.636 268.109 74.402 269.201 74.402H272.171V73.88C272.171 73.16 272.009 72.668 271.685 72.404C271.373 72.128 270.875 71.99 270.191 71.99C269.579 71.99 269.129 72.086 268.841 72.278C268.553 72.47 268.385 72.734 268.337 73.07H266.411C266.447 72.518 266.621 72.032 266.933 71.612C267.245 71.192 267.683 70.862 268.247 70.622C268.823 70.382 269.501 70.262 270.281 70.262C271.061 70.262 271.739 70.382 272.315 70.622C272.903 70.862 273.353 71.24 273.665 71.756C273.989 72.26 274.151 72.932 274.151 73.772V77.57C274.151 78.074 274.157 78.518 274.169 78.902C274.181 79.274 274.211 79.64 274.259 80H272.459C272.423 79.724 272.393 79.49 272.369 79.298C272.357 79.106 272.351 78.866 272.351 78.578C272.123 79.022 271.727 79.406 271.163 79.73C270.611 80.042 269.927 80.198 269.111 80.198ZM269.651 78.47C270.107 78.47 270.521 78.392 270.893 78.236C271.277 78.08 271.583 77.846 271.811 77.534C272.051 77.222 272.171 76.844 272.171 76.4V75.878H269.561C269.057 75.878 268.649 75.986 268.337 76.202C268.037 76.418 267.887 76.736 267.887 77.156C267.887 77.552 268.025 77.87 268.301 78.11C268.589 78.35 269.039 78.47 269.651 78.47ZM72.36 104.25V100.308H73.44C73.608 100.056 73.752 99.666 73.872 99.138C73.992 98.598 74.082 97.98 74.142 97.284C74.214 96.588 74.25 95.88 74.25 95.16V92.46H81.36V100.308H82.62V104.25H80.784V102H74.196V104.25H72.36ZM75.456 100.308H79.38V94.152H76.158V95.52C76.158 96.444 76.104 97.332 75.996 98.184C75.888 99.024 75.708 99.732 75.456 100.308ZM84.5058 102.198C84.4098 102.198 84.3018 102.192 84.1818 102.18C84.0738 102.18 83.9718 102.168 83.8758 102.144V100.272C83.9118 100.284 84.0018 100.29 84.1458 100.29C84.4818 100.29 84.7518 100.146 84.9558 99.858C85.1718 99.57 85.3278 99.072 85.4238 98.364C85.5318 97.644 85.5858 96.636 85.5858 95.34V92.46H92.7858V102H90.8058V94.152H87.4938V95.7C87.4938 96.972 87.4278 98.034 87.2958 98.886C87.1758 99.726 86.9898 100.386 86.7378 100.866C86.4858 101.346 86.1738 101.688 85.8018 101.892C85.4298 102.096 84.9978 102.198 84.5058 102.198ZM94.673 102L97.157 98.382C96.437 98.166 95.903 97.812 95.555 97.32C95.207 96.828 95.033 96.234 95.033 95.538C95.033 94.914 95.171 94.374 95.447 93.918C95.723 93.45 96.143 93.09 96.707 92.838C97.271 92.586 97.973 92.46 98.813 92.46H103.133V102H101.153V98.616H99.101L96.977 102H94.673ZM97.049 95.538C97.049 96.042 97.199 96.402 97.499 96.618C97.799 96.822 98.207 96.924 98.723 96.924H101.153V94.152H98.723C98.207 94.152 97.799 94.26 97.499 94.476C97.199 94.68 97.049 95.034 97.049 95.538ZM112.406 102V94.152H109.256V92.46H117.536V94.152H114.386V102H112.406ZM121.038 105.798C120.858 105.798 120.678 105.78 120.498 105.744V104.016C120.678 104.052 120.858 104.07 121.038 104.07C121.302 104.07 121.518 104.004 121.686 103.872C121.854 103.752 122.01 103.542 122.154 103.242C122.298 102.942 122.466 102.528 122.658 102L118.608 92.46H120.768L123.684 99.84L126.312 92.46H128.328L124.638 102C124.29 102.888 123.96 103.614 123.648 104.178C123.336 104.742 122.982 105.15 122.586 105.402C122.19 105.666 121.674 105.798 121.038 105.798ZM129.949 105.6V92.46H131.785V94.062C132.073 93.51 132.499 93.072 133.063 92.748C133.639 92.424 134.287 92.262 135.007 92.262C136.255 92.262 137.239 92.652 137.959 93.432C138.679 94.212 139.039 95.388 139.039 96.96V97.32C139.039 98.4 138.871 99.306 138.535 100.038C138.199 100.758 137.731 101.298 137.131 101.658C136.531 102.018 135.823 102.198 135.007 102.198C134.323 102.198 133.699 102.048 133.135 101.748C132.571 101.448 132.169 101.028 131.929 100.488V105.6H129.949ZM134.539 100.47C135.283 100.47 135.883 100.212 136.339 99.696C136.795 99.18 137.023 98.388 137.023 97.32V96.96C137.023 95.952 136.801 95.208 136.357 94.728C135.913 94.236 135.307 93.99 134.539 93.99C134.095 93.99 133.669 94.086 133.261 94.278C132.865 94.47 132.541 94.752 132.289 95.124C132.049 95.496 131.929 95.958 131.929 96.51V97.77C131.929 98.37 132.049 98.874 132.289 99.282C132.541 99.678 132.865 99.978 133.261 100.182C133.657 100.374 134.083 100.47 134.539 100.47ZM141.024 102V92.46H143.004V96.294H147.504V92.46H149.484V102H147.504V97.986H143.004V102H141.024ZM152.01 102V92.46H153.99V99.21L158.58 92.46H160.47V102H158.49V95.25L153.9 102H152.01ZM162.996 105.6V92.46H164.832V94.062C165.12 93.51 165.546 93.072 166.11 92.748C166.686 92.424 167.334 92.262 168.054 92.262C169.302 92.262 170.286 92.652 171.006 93.432C171.726 94.212 172.086 95.388 172.086 96.96V97.32C172.086 98.4 171.918 99.306 171.582 100.038C171.246 100.758 170.778 101.298 170.178 101.658C169.578 102.018 168.87 102.198 168.054 102.198C167.37 102.198 166.746 102.048 166.182 101.748C165.618 101.448 165.216 101.028 164.976 100.488V105.6H162.996ZM167.586 100.47C168.33 100.47 168.93 100.212 169.386 99.696C169.842 99.18 170.07 98.388 170.07 97.32V96.96C170.07 95.952 169.848 95.208 169.404 94.728C168.96 94.236 168.354 93.99 167.586 93.99C167.142 93.99 166.716 94.086 166.308 94.278C165.912 94.47 165.588 94.752 165.336 95.124C165.096 95.496 164.976 95.958 164.976 96.51V97.77C164.976 98.37 165.096 98.874 165.336 99.282C165.588 99.678 165.912 99.978 166.308 100.182C166.704 100.374 167.13 100.47 167.586 100.47ZM176.861 102.198C176.177 102.198 175.589 102.072 175.097 101.82C174.617 101.556 174.251 101.196 173.999 100.74C173.747 100.284 173.621 99.774 173.621 99.21C173.621 98.262 173.903 97.56 174.467 97.104C175.031 96.636 175.859 96.402 176.951 96.402H179.921V95.88C179.921 95.16 179.759 94.668 179.435 94.404C179.123 94.128 178.625 93.99 177.941 93.99C177.329 93.99 176.879 94.086 176.591 94.278C176.303 94.47 176.135 94.734 176.087 95.07H174.161C174.197 94.518 174.371 94.032 174.683 93.612C174.995 93.192 175.433 92.862 175.997 92.622C176.573 92.382 177.251 92.262 178.031 92.262C178.811 92.262 179.489 92.382 180.065 92.622C180.653 92.862 181.103 93.24 181.415 93.756C181.739 94.26 181.901 94.932 181.901 95.772V99.57C181.901 100.074 181.907 100.518 181.919 100.902C181.931 101.274 181.961 101.64 182.009 102H180.209C180.173 101.724 180.143 101.49 180.119 101.298C180.107 101.106 180.101 100.866 180.101 100.578C179.873 101.022 179.477 101.406 178.913 101.73C178.361 102.042 177.677 102.198 176.861 102.198ZM177.401 100.47C177.857 100.47 178.271 100.392 178.643 100.236C179.027 100.08 179.333 99.846 179.561 99.534C179.801 99.222 179.921 98.844 179.921 98.4V97.878H177.311C176.807 97.878 176.399 97.986 176.087 98.202C175.787 98.418 175.637 98.736 175.637 99.156C175.637 99.552 175.775 99.87 176.051 100.11C176.339 100.35 176.789 100.47 177.401 100.47Z" fill="#313131"/>
<path d="M73.62 152V139.4H78.21C79.338 139.4 80.268 139.568 81 139.904C81.732 140.228 82.272 140.69 82.62 141.29C82.98 141.89 83.16 142.598 83.16 143.414C83.16 144.23 82.98 144.938 82.62 145.538C82.272 146.138 81.732 146.606 81 146.942C80.268 147.266 79.338 147.428 78.21 147.428H75.78V152H73.62ZM75.78 145.556H78.03C79.17 145.556 79.95 145.382 80.37 145.034C80.79 144.674 81 144.134 81 143.414C81 142.706 80.79 142.172 80.37 141.812C79.95 141.452 79.17 141.272 78.03 141.272H75.78V145.556ZM87.757 152.198C87.073 152.198 86.485 152.072 85.993 151.82C85.513 151.556 85.147 151.196 84.895 150.74C84.643 150.284 84.517 149.774 84.517 149.21C84.517 148.262 84.799 147.56 85.363 147.104C85.927 146.636 86.755 146.402 87.847 146.402H90.817V145.88C90.817 145.16 90.655 144.668 90.331 144.404C90.019 144.128 89.521 143.99 88.837 143.99C88.225 143.99 87.775 144.086 87.487 144.278C87.199 144.47 87.031 144.734 86.983 145.07H85.057C85.093 144.518 85.267 144.032 85.579 143.612C85.891 143.192 86.329 142.862 86.893 142.622C87.469 142.382 88.147 142.262 88.927 142.262C89.707 142.262 90.385 142.382 90.961 142.622C91.549 142.862 91.999 143.24 92.311 143.756C92.635 144.26 92.797 144.932 92.797 145.772V149.57C92.797 150.074 92.803 150.518 92.815 150.902C92.827 151.274 92.857 151.64 92.905 152H91.105C91.069 151.724 91.039 151.49 91.015 151.298C91.003 151.106 90.997 150.866 90.997 150.578C90.769 151.022 90.373 151.406 89.809 151.73C89.257 152.042 88.573 152.198 87.757 152.198ZM88.297 150.47C88.753 150.47 89.167 150.392 89.539 150.236C89.923 150.08 90.229 149.846 90.457 149.534C90.697 149.222 90.817 148.844 90.817 148.4V147.878H88.207C87.703 147.878 87.295 147.986 86.983 148.202C86.683 148.418 86.533 148.736 86.533 149.156C86.533 149.552 86.671 149.87 86.947 150.11C87.235 150.35 87.685 150.47 88.297 150.47ZM98.7427 152.198C97.8787 152.198 97.1467 152.078 96.5467 151.838C95.9467 151.598 95.4847 151.25 95.1607 150.794C94.8367 150.326 94.6507 149.768 94.6027 149.12H96.6187C96.6667 149.408 96.7627 149.654 96.9067 149.858C97.0627 150.062 97.2847 150.218 97.5727 150.326C97.8727 150.422 98.2507 150.47 98.7067 150.47C99.5227 150.47 100.087 150.338 100.399 150.074C100.711 149.81 100.867 149.48 100.867 149.084C100.867 148.724 100.729 148.442 100.453 148.238C100.189 148.022 99.7207 147.914 99.0487 147.914H97.4827V146.366H98.9227C99.4747 146.366 99.8767 146.252 100.129 146.024C100.381 145.796 100.507 145.508 100.507 145.16C100.507 144.848 100.375 144.578 100.111 144.35C99.8467 144.11 99.3907 143.99 98.7427 143.99C98.0467 143.99 97.5607 144.104 97.2847 144.332C97.0207 144.56 96.8587 144.866 96.7987 145.25H94.7827C94.8307 144.638 95.0107 144.11 95.3227 143.666C95.6347 143.222 96.0787 142.88 96.6547 142.64C97.2307 142.388 97.9267 142.262 98.7427 142.262C100.051 142.262 101.005 142.52 101.605 143.036C102.217 143.552 102.523 144.224 102.523 145.052C102.523 145.508 102.409 145.91 102.181 146.258C101.965 146.606 101.605 146.87 101.101 147.05C101.773 147.218 102.235 147.5 102.487 147.896C102.751 148.292 102.883 148.748 102.883 149.264C102.883 149.816 102.733 150.314 102.433 150.758C102.133 151.202 101.677 151.556 101.065 151.82C100.453 152.072 99.6787 152.198 98.7427 152.198ZM104.865 152V142.46H107.097L110.139 148.04L113.181 142.46H115.305V152H113.325V145.43L110.805 150.02H109.365L106.845 145.43V152H104.865ZM121.961 152.198C121.121 152.198 120.347 152.024 119.639 151.676C118.931 151.316 118.361 150.776 117.929 150.056C117.497 149.336 117.281 148.424 117.281 147.32V146.96C117.281 145.904 117.485 145.028 117.893 144.332C118.313 143.636 118.865 143.12 119.549 142.784C120.233 142.436 120.977 142.262 121.781 142.262C123.233 142.262 124.343 142.652 125.111 143.432C125.891 144.212 126.281 145.328 126.281 146.78V147.788H119.297C119.321 148.436 119.459 148.958 119.711 149.354C119.963 149.75 120.287 150.038 120.683 150.218C121.079 150.386 121.505 150.47 121.961 150.47C122.645 150.47 123.143 150.362 123.455 150.146C123.779 149.93 124.001 149.648 124.121 149.3H126.101C125.909 150.248 125.435 150.968 124.679 151.46C123.935 151.952 123.029 152.198 121.961 152.198ZM121.871 143.99C121.427 143.99 121.013 144.068 120.629 144.224C120.245 144.38 119.933 144.626 119.693 144.962C119.453 145.298 119.321 145.748 119.297 146.312H124.301C124.289 145.712 124.175 145.244 123.959 144.908C123.743 144.572 123.455 144.338 123.095 144.206C122.735 144.062 122.327 143.99 121.871 143.99ZM140.106 154.25V152H128.262V142.46H130.242V150.308H133.392V142.46H135.372V150.308H138.522V142.46H140.502V150.308H141.942V154.25H140.106ZM147.713 152.198C146.873 152.198 146.099 152.024 145.391 151.676C144.683 151.316 144.113 150.776 143.681 150.056C143.249 149.336 143.033 148.424 143.033 147.32V146.96C143.033 145.904 143.237 145.028 143.645 144.332C144.065 143.636 144.617 143.12 145.301 142.784C145.985 142.436 146.729 142.262 147.533 142.262C148.985 142.262 150.095 142.652 150.863 143.432C151.643 144.212 152.033 145.328 152.033 146.78V147.788H145.049C145.073 148.436 145.211 148.958 145.463 149.354C145.715 149.75 146.039 150.038 146.435 150.218C146.831 150.386 147.257 150.47 147.713 150.47C148.397 150.47 148.895 150.362 149.207 150.146C149.531 149.93 149.753 149.648 149.873 149.3H151.853C151.661 150.248 151.187 150.968 150.431 151.46C149.687 151.952 148.781 152.198 147.713 152.198ZM147.623 143.99C147.179 143.99 146.765 144.068 146.381 144.224C145.997 144.38 145.685 144.626 145.445 144.962C145.205 145.298 145.073 145.748 145.049 146.312H150.053C150.041 145.712 149.927 145.244 149.711 144.908C149.495 144.572 149.207 144.338 148.847 144.206C148.487 144.062 148.079 143.99 147.623 143.99ZM154.014 152V142.46H155.994V146.294H160.494V142.46H162.474V152H160.494V147.986H155.994V152H154.014ZM165 152V142.46H166.98V149.21L171.57 142.46H173.46V152H171.48V145.25L166.89 152H165ZM180.127 152.198C179.287 152.198 178.513 152.024 177.805 151.676C177.097 151.316 176.527 150.776 176.095 150.056C175.663 149.336 175.447 148.424 175.447 147.32V146.96C175.447 145.904 175.651 145.028 176.059 144.332C176.479 143.636 177.031 143.12 177.715 142.784C178.399 142.436 179.143 142.262 179.947 142.262C181.399 142.262 182.509 142.652 183.277 143.432C184.057 144.212 184.447 145.328 184.447 146.78V147.788H177.463C177.487 148.436 177.625 148.958 177.877 149.354C178.129 149.75 178.453 150.038 178.849 150.218C179.245 150.386 179.671 150.47 180.127 150.47C180.811 150.47 181.309 150.362 181.621 150.146C181.945 149.93 182.167 149.648 182.287 149.3H184.267C184.075 150.248 183.601 150.968 182.845 151.46C182.101 151.952 181.195 152.198 180.127 152.198ZM180.037 143.99C179.593 143.99 179.179 144.068 178.795 144.224C178.411 144.38 178.099 144.626 177.859 144.962C177.619 145.298 177.487 145.748 177.463 146.312H182.467C182.455 145.712 182.341 145.244 182.125 144.908C181.909 144.572 181.621 144.338 181.261 144.206C180.901 144.062 180.493 143.99 180.037 143.99ZM190.928 152V142.46H197.588V144.152H192.908V152H190.928ZM201.452 152.198C200.768 152.198 200.18 152.072 199.688 151.82C199.208 151.556 198.842 151.196 198.59 150.74C198.338 150.284 198.212 149.774 198.212 149.21C198.212 148.262 198.494 147.56 199.058 147.104C199.622 146.636 200.45 146.402 201.542 146.402H204.512V145.88C204.512 145.16 204.35 144.668 204.026 144.404C203.714 144.128 203.216 143.99 202.532 143.99C201.92 143.99 201.47 144.086 201.182 144.278C200.894 144.47 200.726 144.734 200.678 145.07H198.752C198.788 144.518 198.962 144.032 199.274 143.612C199.586 143.192 200.024 142.862 200.588 142.622C201.164 142.382 201.842 142.262 202.622 142.262C203.402 142.262 204.08 142.382 204.656 142.622C205.244 142.862 205.694 143.24 206.006 143.756C206.33 144.26 206.492 144.932 206.492 145.772V149.57C206.492 150.074 206.498 150.518 206.51 150.902C206.522 151.274 206.552 151.64 206.6 152H204.8C204.764 151.724 204.734 151.49 204.71 151.298C204.698 151.106 204.692 150.866 204.692 150.578C204.464 151.022 204.068 151.406 203.504 151.73C202.952 152.042 202.268 152.198 201.452 152.198ZM201.992 150.47C202.448 150.47 202.862 150.392 203.234 150.236C203.618 150.08 203.924 149.846 204.152 149.534C204.392 149.222 204.512 148.844 204.512 148.4V147.878H201.902C201.398 147.878 200.99 147.986 200.678 148.202C200.378 148.418 200.228 148.736 200.228 149.156C200.228 149.552 200.366 149.87 200.642 150.11C200.93 150.35 201.38 150.47 201.992 150.47ZM208.928 155.6V142.46H210.764V144.062C211.052 143.51 211.478 143.072 212.042 142.748C212.618 142.424 213.266 142.262 213.986 142.262C215.234 142.262 216.218 142.652 216.938 143.432C217.658 144.212 218.018 145.388 218.018 146.96V147.32C218.018 148.4 217.85 149.306 217.514 150.038C217.178 150.758 216.71 151.298 216.11 151.658C215.51 152.018 214.802 152.198 213.986 152.198C213.302 152.198 212.678 152.048 212.114 151.748C211.55 151.448 211.148 151.028 210.908 150.488V155.6H208.928ZM213.518 150.47C214.262 150.47 214.862 150.212 215.318 149.696C215.774 149.18 216.002 148.388 216.002 147.32V146.96C216.002 145.952 215.78 145.208 215.336 144.728C214.892 144.236 214.286 143.99 213.518 143.99C213.074 143.99 212.648 144.086 212.24 144.278C211.844 144.47 211.52 144.752 211.268 145.124C211.028 145.496 210.908 145.958 210.908 146.51V147.77C210.908 148.37 211.028 148.874 211.268 149.282C211.52 149.678 211.844 149.978 212.24 150.182C212.636 150.374 213.062 150.47 213.518 150.47ZM222.792 152.198C222.108 152.198 221.52 152.072 221.028 151.82C220.548 151.556 220.182 151.196 219.93 150.74C219.678 150.284 219.552 149.774 219.552 149.21C219.552 148.262 219.834 147.56 220.398 147.104C220.962 146.636 221.79 146.402 222.882 146.402H225.852V145.88C225.852 145.16 225.69 144.668 225.366 144.404C225.054 144.128 224.556 143.99 223.872 143.99C223.26 143.99 222.81 144.086 222.522 144.278C222.234 144.47 222.066 144.734 222.018 145.07H220.092C220.128 144.518 220.302 144.032 220.614 143.612C220.926 143.192 221.364 142.862 221.928 142.622C222.504 142.382 223.182 142.262 223.962 142.262C224.742 142.262 225.42 142.382 225.996 142.622C226.584 142.862 227.034 143.24 227.346 143.756C227.67 144.26 227.832 144.932 227.832 145.772V149.57C227.832 150.074 227.838 150.518 227.85 150.902C227.862 151.274 227.892 151.64 227.94 152H226.14C226.104 151.724 226.074 151.49 226.05 151.298C226.038 151.106 226.032 150.866 226.032 150.578C225.804 151.022 225.408 151.406 224.844 151.73C224.292 152.042 223.608 152.198 222.792 152.198ZM223.332 150.47C223.788 150.47 224.202 150.392 224.574 150.236C224.958 150.08 225.264 149.846 225.492 149.534C225.732 149.222 225.852 148.844 225.852 148.4V147.878H223.242C222.738 147.878 222.33 147.986 222.018 148.202C221.718 148.418 221.568 148.736 221.568 149.156C221.568 149.552 221.706 149.87 221.982 150.11C222.27 150.35 222.72 150.47 223.332 150.47ZM229.368 152L232.788 147.086L229.548 142.46H231.816L234.408 146.294H235.308V142.46H237.288V146.294H238.188L240.996 142.46H243.048L239.628 146.996L243.228 152H240.996L238.188 147.986H237.288V152H235.308V147.986H234.408L231.708 152H229.368ZM248.629 152.198C247.789 152.198 247.015 152.024 246.307 151.676C245.599 151.316 245.029 150.776 244.597 150.056C244.165 149.336 243.949 148.424 243.949 147.32V146.96C243.949 145.904 244.153 145.028 244.561 144.332C244.981 143.636 245.533 143.12 246.217 142.784C246.901 142.436 247.645 142.262 248.449 142.262C249.901 142.262 251.011 142.652 251.779 143.432C252.559 144.212 252.949 145.328 252.949 146.78V147.788H245.965C245.989 148.436 246.127 148.958 246.379 149.354C246.631 149.75 246.955 150.038 247.351 150.218C247.747 150.386 248.173 150.47 248.629 150.47C249.313 150.47 249.811 150.362 250.123 150.146C250.447 149.93 250.669 149.648 250.789 149.3H252.769C252.577 150.248 252.103 150.968 251.347 151.46C250.603 151.952 249.697 152.198 248.629 152.198ZM248.539 143.99C248.095 143.99 247.681 144.068 247.297 144.224C246.913 144.38 246.601 144.626 246.361 144.962C246.121 145.298 245.989 145.748 245.965 146.312H250.969C250.957 145.712 250.843 145.244 250.627 144.908C250.411 144.572 250.123 144.338 249.763 144.206C249.403 144.062 248.995 143.99 248.539 143.99ZM254.93 152V142.46H256.91V149.21L261.5 142.46H263.39V152H261.41V145.25L256.82 152H254.93ZM259.16 141.38C258.164 141.38 257.432 141.164 256.964 140.732C256.508 140.288 256.28 139.664 256.28 138.86H258.116C258.116 139.292 258.2 139.604 258.368 139.796C258.548 139.988 258.812 140.084 259.16 140.084C259.508 140.084 259.766 139.988 259.934 139.796C260.114 139.604 260.204 139.292 260.204 138.86H262.04C262.04 139.664 261.806 140.288 261.338 140.732C260.87 141.164 260.144 141.38 259.16 141.38ZM72.36 176.25V172.308H73.44C73.608 172.056 73.752 171.666 73.872 171.138C73.992 170.598 74.082 169.98 74.142 169.284C74.214 168.588 74.25 167.88 74.25 167.16V164.46H81.36V172.308H82.62V176.25H80.784V174H74.196V176.25H72.36ZM75.456 172.308H79.38V166.152H76.158V167.52C76.158 168.444 76.104 169.332 75.996 170.184C75.888 171.024 75.708 171.732 75.456 172.308ZM84.5058 174.198C84.4098 174.198 84.3018 174.192 84.1818 174.18C84.0738 174.18 83.9718 174.168 83.8758 174.144V172.272C83.9118 172.284 84.0018 172.29 84.1458 172.29C84.4818 172.29 84.7518 172.146 84.9558 171.858C85.1718 171.57 85.3278 171.072 85.4238 170.364C85.5318 169.644 85.5858 168.636 85.5858 167.34V164.46H92.7858V174H90.8058V166.152H87.4938V167.7C87.4938 168.972 87.4278 170.034 87.2958 170.886C87.1758 171.726 86.9898 172.386 86.7378 172.866C86.4858 173.346 86.1738 173.688 85.8018 173.892C85.4298 174.096 84.9978 174.198 84.5058 174.198ZM94.673 174L97.157 170.382C96.437 170.166 95.903 169.812 95.555 169.32C95.207 168.828 95.033 168.234 95.033 167.538C95.033 166.914 95.171 166.374 95.447 165.918C95.723 165.45 96.143 165.09 96.707 164.838C97.271 164.586 97.973 164.46 98.813 164.46H103.133V174H101.153V170.616H99.101L96.977 174H94.673ZM97.049 167.538C97.049 168.042 97.199 168.402 97.499 168.618C97.799 168.822 98.207 168.924 98.723 168.924H101.153V166.152H98.723C98.207 166.152 97.799 166.26 97.499 166.476C97.199 166.68 97.049 167.034 97.049 167.538ZM110.156 174V164.46H116.816V166.152H112.136V174H110.156ZM122.4 174.198C121.524 174.198 120.732 174.018 120.024 173.658C119.316 173.286 118.752 172.74 118.332 172.02C117.924 171.288 117.72 170.388 117.72 169.32V168.96C117.72 167.952 117.924 167.1 118.332 166.404C118.752 165.696 119.316 165.162 120.024 164.802C120.732 164.442 121.524 164.262 122.4 164.262C123.288 164.262 124.08 164.442 124.776 164.802C125.484 165.162 126.042 165.696 126.45 166.404C126.87 167.1 127.08 167.952 127.08 168.96V169.32C127.08 170.388 126.87 171.288 126.45 172.02C126.042 172.74 125.484 173.286 124.776 173.658C124.08 174.018 123.288 174.198 122.4 174.198ZM122.4 172.47C122.856 172.47 123.288 172.362 123.696 172.146C124.104 171.93 124.434 171.594 124.686 171.138C124.938 170.67 125.064 170.064 125.064 169.32V168.96C125.064 168.276 124.938 167.718 124.686 167.286C124.434 166.842 124.104 166.518 123.696 166.314C123.288 166.098 122.856 165.99 122.4 165.99C121.944 165.99 121.512 166.098 121.104 166.314C120.696 166.518 120.366 166.842 120.114 167.286C119.862 167.718 119.736 168.276 119.736 168.96V169.32C119.736 170.064 119.862 170.67 120.114 171.138C120.366 171.594 120.696 171.93 121.104 172.146C121.512 172.362 121.944 172.47 122.4 172.47ZM133.013 174.198C132.161 174.198 131.393 174.018 130.709 173.658C130.025 173.298 129.485 172.758 129.089 172.038C128.705 171.318 128.513 170.412 128.513 169.32V168.96C128.513 167.928 128.717 167.064 129.125 166.368C129.545 165.672 130.097 165.15 130.781 164.802C131.465 164.442 132.209 164.262 133.013 164.262C133.853 164.262 134.561 164.406 135.137 164.694C135.725 164.982 136.181 165.372 136.505 165.864C136.841 166.356 137.057 166.908 137.153 167.52H135.137C135.017 167.076 134.801 166.71 134.489 166.422C134.177 166.134 133.685 165.99 133.013 165.99C132.569 165.99 132.155 166.092 131.771 166.296C131.399 166.5 131.099 166.824 130.871 167.268C130.643 167.7 130.529 168.264 130.529 168.96V169.32C130.529 170.076 130.643 170.688 130.871 171.156C131.099 171.612 131.399 171.948 131.771 172.164C132.155 172.368 132.569 172.47 133.013 172.47C133.577 172.47 134.033 172.344 134.381 172.092C134.729 171.84 134.981 171.456 135.137 170.94H137.153C137.033 171.612 136.781 172.194 136.397 172.686C136.025 173.166 135.551 173.538 134.975 173.802C134.399 174.066 133.745 174.198 133.013 174.198ZM141.287 174V166.152H138.137V164.46H146.417V166.152H143.267V174H141.287ZM152.002 174.198C151.162 174.198 150.388 174.024 149.68 173.676C148.972 173.316 148.402 172.776 147.97 172.056C147.538 171.336 147.322 170.424 147.322 169.32V168.96C147.322 167.904 147.526 167.028 147.934 166.332C148.354 165.636 148.906 165.12 149.59 164.784C150.274 164.436 151.018 164.262 151.822 164.262C153.274 164.262 154.384 164.652 155.152 165.432C155.932 166.212 156.322 167.328 156.322 168.78V169.788H149.338C149.362 170.436 149.5 170.958 149.752 171.354C150.004 171.75 150.328 172.038 150.724 172.218C151.12 172.386 151.546 172.47 152.002 172.47C152.686 172.47 153.184 172.362 153.496 172.146C153.82 171.93 154.042 171.648 154.162 171.3H156.142C155.95 172.248 155.476 172.968 154.72 173.46C153.976 173.952 153.07 174.198 152.002 174.198ZM151.912 165.99C151.468 165.99 151.054 166.068 150.67 166.224C150.286 166.38 149.974 166.626 149.734 166.962C149.494 167.298 149.362 167.748 149.338 168.312H154.342C154.33 167.712 154.216 167.244 154 166.908C153.784 166.572 153.496 166.338 153.136 166.206C152.776 166.062 152.368 165.99 151.912 165.99ZM158.303 174V164.46H162.803C163.607 164.46 164.255 164.574 164.747 164.802C165.251 165.018 165.623 165.324 165.863 165.72C166.103 166.104 166.223 166.548 166.223 167.052C166.223 167.472 166.097 167.88 165.845 168.276C165.593 168.66 165.239 168.918 164.783 169.05C165.371 169.194 165.815 169.47 166.115 169.878C166.427 170.274 166.583 170.742 166.583 171.282C166.583 172.11 166.307 172.77 165.755 173.262C165.203 173.754 164.339 174 163.163 174H158.303ZM160.283 172.308H162.893C163.541 172.308 163.985 172.206 164.225 172.002C164.477 171.786 164.603 171.486 164.603 171.102C164.603 170.718 164.477 170.43 164.225 170.238C163.985 170.034 163.541 169.932 162.893 169.932H160.283V172.308ZM160.283 168.384H162.623C163.223 168.384 163.643 168.288 163.883 168.096C164.123 167.892 164.243 167.616 164.243 167.268C164.243 166.92 164.123 166.65 163.883 166.458C163.643 166.254 163.223 166.152 162.623 166.152H160.283V168.384ZM172.709 174.198C171.833 174.198 171.041 174.018 170.333 173.658C169.625 173.286 169.061 172.74 168.641 172.02C168.233 171.288 168.029 170.388 168.029 169.32V168.96C168.029 167.952 168.233 167.1 168.641 166.404C169.061 165.696 169.625 165.162 170.333 164.802C171.041 164.442 171.833 164.262 172.709 164.262C173.597 164.262 174.389 164.442 175.085 164.802C175.793 165.162 176.351 165.696 176.759 166.404C177.179 167.1 177.389 167.952 177.389 168.96V169.32C177.389 170.388 177.179 171.288 176.759 172.02C176.351 172.74 175.793 173.286 175.085 173.658C174.389 174.018 173.597 174.198 172.709 174.198ZM172.709 172.47C173.165 172.47 173.597 172.362 174.005 172.146C174.413 171.93 174.743 171.594 174.995 171.138C175.247 170.67 175.373 170.064 175.373 169.32V168.96C175.373 168.276 175.247 167.718 174.995 167.286C174.743 166.842 174.413 166.518 174.005 166.314C173.597 166.098 173.165 165.99 172.709 165.99C172.253 165.99 171.821 166.098 171.413 166.314C171.005 166.518 170.675 166.842 170.423 167.286C170.171 167.718 170.045 168.276 170.045 168.96V169.32C170.045 170.064 170.171 170.67 170.423 171.138C170.675 171.594 171.005 171.93 171.413 172.146C171.821 172.362 172.253 172.47 172.709 172.47ZM179.362 174V164.46H186.022V166.152H181.342V174H179.362ZM191.605 174.198C190.729 174.198 189.937 174.018 189.229 173.658C188.521 173.286 187.957 172.74 187.537 172.02C187.129 171.288 186.925 170.388 186.925 169.32V168.96C186.925 167.952 187.129 167.1 187.537 166.404C187.957 165.696 188.521 165.162 189.229 164.802C189.937 164.442 190.729 164.262 191.605 164.262C192.493 164.262 193.285 164.442 193.981 164.802C194.689 165.162 195.247 165.696 195.655 166.404C196.075 167.1 196.285 167.952 196.285 168.96V169.32C196.285 170.388 196.075 171.288 195.655 172.02C195.247 172.74 194.689 173.286 193.981 173.658C193.285 174.018 192.493 174.198 191.605 174.198ZM191.605 172.47C192.061 172.47 192.493 172.362 192.901 172.146C193.309 171.93 193.639 171.594 193.891 171.138C194.143 170.67 194.269 170.064 194.269 169.32V168.96C194.269 168.276 194.143 167.718 193.891 167.286C193.639 166.842 193.309 166.518 192.901 166.314C192.493 166.098 192.061 165.99 191.605 165.99C191.149 165.99 190.717 166.098 190.309 166.314C189.901 166.518 189.571 166.842 189.319 167.286C189.067 167.718 188.941 168.276 188.941 168.96V169.32C188.941 170.064 189.067 170.67 189.319 171.138C189.571 171.594 189.901 171.93 190.309 172.146C190.717 172.362 191.149 172.47 191.605 172.47ZM76.05 196.198C75.366 196.198 74.778 196.072 74.286 195.82C73.806 195.556 73.44 195.196 73.188 194.74C72.936 194.284 72.81 193.774 72.81 193.21C72.81 192.262 73.092 191.56 73.656 191.104C74.22 190.636 75.048 190.402 76.14 190.402H79.11V189.88C79.11 189.16 78.948 188.668 78.624 188.404C78.312 188.128 77.814 187.99 77.13 187.99C76.518 187.99 76.068 188.086 75.78 188.278C75.492 188.47 75.324 188.734 75.276 189.07H73.35C73.386 188.518 73.56 188.032 73.872 187.612C74.184 187.192 74.622 186.862 75.186 186.622C75.762 186.382 76.44 186.262 77.22 186.262C78 186.262 78.678 186.382 79.254 186.622C79.842 186.862 80.292 187.24 80.604 187.756C80.928 188.26 81.09 188.932 81.09 189.772V193.57C81.09 194.074 81.096 194.518 81.108 194.902C81.12 195.274 81.15 195.64 81.198 196H79.398C79.362 195.724 79.332 195.49 79.308 195.298C79.296 195.106 79.29 194.866 79.29 194.578C79.062 195.022 78.666 195.406 78.102 195.73C77.55 196.042 76.866 196.198 76.05 196.198ZM76.59 194.47C77.046 194.47 77.46 194.392 77.832 194.236C78.216 194.08 78.522 193.846 78.75 193.534C78.99 193.222 79.11 192.844 79.11 192.4V191.878H76.5C75.996 191.878 75.588 191.986 75.276 192.202C74.976 192.418 74.826 192.736 74.826 193.156C74.826 193.552 74.964 193.87 75.24 194.11C75.528 194.35 75.978 194.47 76.59 194.47ZM83.5256 196V186.46H88.0256C88.8296 186.46 89.4776 186.574 89.9696 186.802C90.4736 187.018 90.8456 187.324 91.0856 187.72C91.3256 188.104 91.4456 188.548 91.4456 189.052C91.4456 189.472 91.3196 189.88 91.0676 190.276C90.8156 190.66 90.4616 190.918 90.0056 191.05C90.5936 191.194 91.0376 191.47 91.3376 191.878C91.6496 192.274 91.8056 192.742 91.8056 193.282C91.8056 194.11 91.5296 194.77 90.9776 195.262C90.4256 195.754 89.5616 196 88.3856 196H83.5256ZM85.5056 194.308H88.1156C88.7636 194.308 89.2076 194.206 89.4476 194.002C89.6996 193.786 89.8256 193.486 89.8256 193.102C89.8256 192.718 89.6996 192.43 89.4476 192.238C89.2076 192.034 88.7636 191.932 88.1156 191.932H85.5056V194.308ZM85.5056 190.384H87.8456C88.4456 190.384 88.8656 190.288 89.1056 190.096C89.3456 189.892 89.4656 189.616 89.4656 189.268C89.4656 188.92 89.3456 188.65 89.1056 188.458C88.8656 188.254 88.4456 188.152 87.8456 188.152H85.5056V190.384ZM95.8655 196V188.152H92.7155V186.46H100.995V188.152H97.8455V196H95.8655ZM106.58 196.198C105.704 196.198 104.912 196.018 104.204 195.658C103.496 195.286 102.932 194.74 102.512 194.02C102.104 193.288 101.9 192.388 101.9 191.32V190.96C101.9 189.952 102.104 189.1 102.512 188.404C102.932 187.696 103.496 187.162 104.204 186.802C104.912 186.442 105.704 186.262 106.58 186.262C107.468 186.262 108.26 186.442 108.956 186.802C109.664 187.162 110.222 187.696 110.63 188.404C111.05 189.1 111.26 189.952 111.26 190.96V191.32C111.26 192.388 111.05 193.288 110.63 194.02C110.222 194.74 109.664 195.286 108.956 195.658C108.26 196.018 107.468 196.198 106.58 196.198ZM106.58 194.47C107.036 194.47 107.468 194.362 107.876 194.146C108.284 193.93 108.614 193.594 108.866 193.138C109.118 192.67 109.244 192.064 109.244 191.32V190.96C109.244 190.276 109.118 189.718 108.866 189.286C108.614 188.842 108.284 188.518 107.876 188.314C107.468 188.098 107.036 187.99 106.58 187.99C106.124 187.99 105.692 188.098 105.284 188.314C104.876 188.518 104.546 188.842 104.294 189.286C104.042 189.718 103.916 190.276 103.916 190.96V191.32C103.916 192.064 104.042 192.67 104.294 193.138C104.546 193.594 104.876 193.93 105.284 194.146C105.692 194.362 106.124 194.47 106.58 194.47ZM115.307 196V188.152H112.157V186.46H120.437V188.152H117.287V196H115.307ZM122.057 199.6V186.46H123.893V188.062C124.181 187.51 124.607 187.072 125.171 186.748C125.747 186.424 126.395 186.262 127.115 186.262C128.363 186.262 129.347 186.652 130.067 187.432C130.787 188.212 131.147 189.388 131.147 190.96V191.32C131.147 192.4 130.979 193.306 130.643 194.038C130.307 194.758 129.839 195.298 129.239 195.658C128.639 196.018 127.931 196.198 127.115 196.198C126.431 196.198 125.807 196.048 125.243 195.748C124.679 195.448 124.277 195.028 124.037 194.488V199.6H122.057ZM126.647 194.47C127.391 194.47 127.991 194.212 128.447 193.696C128.903 193.18 129.131 192.388 129.131 191.32V190.96C129.131 189.952 128.909 189.208 128.465 188.728C128.021 188.236 127.415 187.99 126.647 187.99C126.203 187.99 125.777 188.086 125.369 188.278C124.973 188.47 124.649 188.752 124.397 189.124C124.157 189.496 124.037 189.958 124.037 190.51V191.77C124.037 192.37 124.157 192.874 124.397 193.282C124.649 193.678 124.973 193.978 125.369 194.182C125.765 194.374 126.191 194.47 126.647 194.47ZM135.921 196.198C135.237 196.198 134.649 196.072 134.157 195.82C133.677 195.556 133.311 195.196 133.059 194.74C132.807 194.284 132.681 193.774 132.681 193.21C132.681 192.262 132.963 191.56 133.527 191.104C134.091 190.636 134.919 190.402 136.011 190.402H138.981V189.88C138.981 189.16 138.819 188.668 138.495 188.404C138.183 188.128 137.685 187.99 137.001 187.99C136.389 187.99 135.939 188.086 135.651 188.278C135.363 188.47 135.195 188.734 135.147 189.07H133.221C133.257 188.518 133.431 188.032 133.743 187.612C134.055 187.192 134.493 186.862 135.057 186.622C135.633 186.382 136.311 186.262 137.091 186.262C137.871 186.262 138.549 186.382 139.125 186.622C139.713 186.862 140.163 187.24 140.475 187.756C140.799 188.26 140.961 188.932 140.961 189.772V193.57C140.961 194.074 140.967 194.518 140.979 194.902C140.991 195.274 141.021 195.64 141.069 196H139.269C139.233 195.724 139.203 195.49 139.179 195.298C139.167 195.106 139.161 194.866 139.161 194.578C138.933 195.022 138.537 195.406 137.973 195.73C137.421 196.042 136.737 196.198 135.921 196.198ZM136.461 194.47C136.917 194.47 137.331 194.392 137.703 194.236C138.087 194.08 138.393 193.846 138.621 193.534C138.861 193.222 138.981 192.844 138.981 192.4V191.878H136.371C135.867 191.878 135.459 191.986 135.147 192.202C134.847 192.418 134.697 192.736 134.697 193.156C134.697 193.552 134.835 193.87 135.111 194.11C135.399 194.35 135.849 194.47 136.461 194.47ZM143.397 196V186.46H145.377V190.294H149.877V186.46H151.857V196H149.877V191.986H145.377V196H143.397ZM158.343 196.198C157.491 196.198 156.723 196.018 156.039 195.658C155.355 195.298 154.815 194.758 154.419 194.038C154.035 193.318 153.843 192.412 153.843 191.32V190.96C153.843 189.928 154.047 189.064 154.455 188.368C154.875 187.672 155.427 187.15 156.111 186.802C156.795 186.442 157.539 186.262 158.343 186.262C159.183 186.262 159.891 186.406 160.467 186.694C161.055 186.982 161.511 187.372 161.835 187.864C162.171 188.356 162.387 188.908 162.483 189.52H160.467C160.347 189.076 160.131 188.71 159.819 188.422C159.507 188.134 159.015 187.99 158.343 187.99C157.899 187.99 157.485 188.092 157.101 188.296C156.729 188.5 156.429 188.824 156.201 189.268C155.973 189.7 155.859 190.264 155.859 190.96V191.32C155.859 192.076 155.973 192.688 156.201 193.156C156.429 193.612 156.729 193.948 157.101 194.164C157.485 194.368 157.899 194.47 158.343 194.47C158.907 194.47 159.363 194.344 159.711 194.092C160.059 193.84 160.311 193.456 160.467 192.94H162.483C162.363 193.612 162.111 194.194 161.727 194.686C161.355 195.166 160.881 195.538 160.305 195.802C159.729 196.066 159.075 196.198 158.343 196.198ZM164.367 196V186.46H172.647V196H170.667V188.152H166.347V196H164.367ZM179.3 196.198C178.424 196.198 177.632 196.018 176.924 195.658C176.216 195.286 175.652 194.74 175.232 194.02C174.824 193.288 174.62 192.388 174.62 191.32V190.96C174.62 189.952 174.824 189.1 175.232 188.404C175.652 187.696 176.216 187.162 176.924 186.802C177.632 186.442 178.424 186.262 179.3 186.262C180.188 186.262 180.98 186.442 181.676 186.802C182.384 187.162 182.942 187.696 183.35 188.404C183.77 189.1 183.98 189.952 183.98 190.96V191.32C183.98 192.388 183.77 193.288 183.35 194.02C182.942 194.74 182.384 195.286 181.676 195.658C180.98 196.018 180.188 196.198 179.3 196.198ZM179.3 194.47C179.756 194.47 180.188 194.362 180.596 194.146C181.004 193.93 181.334 193.594 181.586 193.138C181.838 192.67 181.964 192.064 181.964 191.32V190.96C181.964 190.276 181.838 189.718 181.586 189.286C181.334 188.842 181.004 188.518 180.596 188.314C180.188 188.098 179.756 187.99 179.3 187.99C178.844 187.99 178.412 188.098 178.004 188.314C177.596 188.518 177.266 188.842 177.014 189.286C176.762 189.718 176.636 190.276 176.636 190.96V191.32C176.636 192.064 176.762 192.67 177.014 193.138C177.266 193.594 177.596 193.93 178.004 194.146C178.412 194.362 178.844 194.47 179.3 194.47ZM185.953 199.6V186.46H187.789V188.062C188.077 187.51 188.503 187.072 189.067 186.748C189.643 186.424 190.291 186.262 191.011 186.262C192.259 186.262 193.243 186.652 193.963 187.432C194.683 188.212 195.043 189.388 195.043 190.96V191.32C195.043 192.4 194.875 193.306 194.539 194.038C194.203 194.758 193.735 195.298 193.135 195.658C192.535 196.018 191.827 196.198 191.011 196.198C190.327 196.198 189.703 196.048 189.139 195.748C188.575 195.448 188.173 195.028 187.933 194.488V199.6H185.953ZM190.543 194.47C191.287 194.47 191.887 194.212 192.343 193.696C192.799 193.18 193.027 192.388 193.027 191.32V190.96C193.027 189.952 192.805 189.208 192.361 188.728C191.917 188.236 191.311 187.99 190.543 187.99C190.099 187.99 189.673 188.086 189.265 188.278C188.869 188.47 188.545 188.752 188.293 189.124C188.053 189.496 187.933 189.958 187.933 190.51V191.77C187.933 192.37 188.053 192.874 188.293 193.282C188.545 193.678 188.869 193.978 189.265 194.182C189.661 194.374 190.087 194.47 190.543 194.47ZM199.102 196V188.152H195.952V186.46H204.232V188.152H201.082V196H199.102ZM208.097 196.198C207.413 196.198 206.825 196.072 206.333 195.82C205.853 195.556 205.487 195.196 205.235 194.74C204.983 194.284 204.857 193.774 204.857 193.21C204.857 192.262 205.139 191.56 205.703 191.104C206.267 190.636 207.095 190.402 208.187 190.402H211.157V189.88C211.157 189.16 210.995 188.668 210.671 188.404C210.359 188.128 209.861 187.99 209.177 187.99C208.565 187.99 208.115 188.086 207.827 188.278C207.539 188.47 207.371 188.734 207.323 189.07H205.397C205.433 188.518 205.607 188.032 205.919 187.612C206.231 187.192 206.669 186.862 207.233 186.622C207.809 186.382 208.487 186.262 209.267 186.262C210.047 186.262 210.725 186.382 211.301 186.622C211.889 186.862 212.339 187.24 212.651 187.756C212.975 188.26 213.137 188.932 213.137 189.772V193.57C213.137 194.074 213.143 194.518 213.155 194.902C213.167 195.274 213.197 195.64 213.245 196H211.445C211.409 195.724 211.379 195.49 211.355 195.298C211.343 195.106 211.337 194.866 211.337 194.578C211.109 195.022 210.713 195.406 210.149 195.73C209.597 196.042 208.913 196.198 208.097 196.198ZM208.637 194.47C209.093 194.47 209.507 194.392 209.879 194.236C210.263 194.08 210.569 193.846 210.797 193.534C211.037 193.222 211.157 192.844 211.157 192.4V191.878H208.547C208.043 191.878 207.635 191.986 207.323 192.202C207.023 192.418 206.873 192.736 206.873 193.156C206.873 193.552 207.011 193.87 207.287 194.11C207.575 194.35 208.025 194.47 208.637 194.47Z" fill="#313131"/>
<rect x="20" y="62" width="36" height="36" rx="18" fill="white"/>
<path d="M39 87V84.04H32.4V81.96L39 73H42V81.56H43.58V84.04H42V87H39ZM35.2 81.56H39V76.34L35.2 81.56Z" fill="#313131"/>
<rect x="20" y="134" width="36" height="36" rx="18" fill="white"/>
<path d="M38 159.24C37.12 159.24 36.3667 159.127 35.74 158.9C35.1133 158.673 34.6 158.367 34.2 157.98C33.8 157.593 33.5 157.153 33.3 156.66C33.1133 156.167 33.0133 155.647 33 155.1H36C36.04 155.58 36.22 155.973 36.54 156.28C36.8733 156.573 37.36 156.72 38 156.72C38.7333 156.72 39.28 156.513 39.64 156.1C40.0133 155.687 40.2 155.067 40.2 154.24C40.2 153.653 40.1 153.187 39.9 152.84C39.7 152.48 39.4333 152.227 39.1 152.08C38.7667 151.92 38.4 151.84 38 151.84C37.5333 151.84 37.1467 151.927 36.84 152.1C36.5333 152.26 36.2867 152.487 36.1 152.78H33.3V145H42.42V147.48H36.3V150.04C36.58 149.787 36.92 149.607 37.32 149.5C37.72 149.393 38.18 149.34 38.7 149.34C39.6067 149.34 40.3933 149.52 41.06 149.88C41.7267 150.24 42.2467 150.787 42.62 151.52C43.0067 152.24 43.2 153.147 43.2 154.24C43.2 155.24 42.98 156.12 42.54 156.88C42.1133 157.627 41.5133 158.207 40.74 158.62C39.9667 159.033 39.0533 159.24 38 159.24Z" fill="#313131"/>
</svg>
