<svg width="335" height="300" viewBox="0 0 335 300" fill="none" xmlns="http://www.w3.org/2000/svg">
<path d="M73.62 80V67.4H83.88V80H81.72V69.272H75.78V80H73.62ZM90.9 80.198C90.024 80.198 89.232 80.018 88.524 79.658C87.816 79.286 87.252 78.74 86.832 78.02C86.424 77.288 86.22 76.388 86.22 75.32V74.96C86.22 73.952 86.424 73.1 86.832 72.404C87.252 71.696 87.816 71.162 88.524 70.802C89.232 70.442 90.024 70.262 90.9 70.262C91.788 70.262 92.58 70.442 93.276 70.802C93.984 71.162 94.542 71.696 94.95 72.404C95.37 73.1 95.58 73.952 95.58 74.96V75.32C95.58 76.388 95.37 77.288 94.95 78.02C94.542 78.74 93.984 79.286 93.276 79.658C92.58 80.018 91.788 80.198 90.9 80.198ZM90.9 78.47C91.356 78.47 91.788 78.362 92.196 78.146C92.604 77.93 92.934 77.594 93.186 77.138C93.438 76.67 93.564 76.064 93.564 75.32V74.96C93.564 74.276 93.438 73.718 93.186 73.286C92.934 72.842 92.604 72.518 92.196 72.314C91.788 72.098 91.356 71.99 90.9 71.99C90.444 71.99 90.012 72.098 89.604 72.314C89.196 72.518 88.866 72.842 88.614 73.286C88.362 73.718 88.236 74.276 88.236 74.96V75.32C88.236 76.064 88.362 76.67 88.614 77.138C88.866 77.594 89.196 77.93 89.604 78.146C90.012 78.362 90.444 78.47 90.9 78.47ZM101.513 80.198C100.661 80.198 99.893 80.018 99.209 79.658C98.525 79.298 97.985 78.758 97.589 78.038C97.205 77.318 97.013 76.412 97.013 75.32V74.96C97.013 73.928 97.217 73.064 97.625 72.368C98.045 71.672 98.597 71.15 99.281 70.802C99.965 70.442 100.709 70.262 101.513 70.262C102.353 70.262 103.061 70.406 103.637 70.694C104.225 70.982 104.681 71.372 105.005 71.864C105.341 72.356 105.557 72.908 105.653 73.52H103.637C103.517 73.076 103.301 72.71 102.989 72.422C102.677 72.134 102.185 71.99 101.513 71.99C101.069 71.99 100.655 72.092 100.271 72.296C99.899 72.5 99.599 72.824 99.371 73.268C99.143 73.7 99.029 74.264 99.029 74.96V75.32C99.029 76.076 99.143 76.688 99.371 77.156C99.599 77.612 99.899 77.948 100.271 78.164C100.655 78.368 101.069 78.47 101.513 78.47C102.077 78.47 102.533 78.344 102.881 78.092C103.229 77.84 103.481 77.456 103.637 76.94H105.653C105.533 77.612 105.281 78.194 104.897 78.686C104.525 79.166 104.051 79.538 103.475 79.802C102.899 80.066 102.245 80.198 101.513 80.198ZM109.787 80V72.152H106.637V70.46H114.917V72.152H111.767V80H109.787ZM116.537 83.6V70.46H118.373V72.062C118.661 71.51 119.087 71.072 119.651 70.748C120.227 70.424 120.875 70.262 121.595 70.262C122.843 70.262 123.827 70.652 124.547 71.432C125.267 72.212 125.627 73.388 125.627 74.96V75.32C125.627 76.4 125.459 77.306 125.123 78.038C124.787 78.758 124.319 79.298 123.719 79.658C123.119 80.018 122.411 80.198 121.595 80.198C120.911 80.198 120.287 80.048 119.723 79.748C119.159 79.448 118.757 79.028 118.517 78.488V83.6H116.537ZM121.127 78.47C121.871 78.47 122.471 78.212 122.927 77.696C123.383 77.18 123.611 76.388 123.611 75.32V74.96C123.611 73.952 123.389 73.208 122.945 72.728C122.501 72.236 121.895 71.99 121.127 71.99C120.683 71.99 120.257 72.086 119.849 72.278C119.453 72.47 119.129 72.752 118.877 73.124C118.637 73.496 118.517 73.958 118.517 74.51V75.77C118.517 76.37 118.637 76.874 118.877 77.282C119.129 77.678 119.453 77.978 119.849 78.182C120.245 78.374 120.671 78.47 121.127 78.47ZM131.752 80.198C130.876 80.198 130.084 80.018 129.376 79.658C128.668 79.286 128.104 78.74 127.684 78.02C127.276 77.288 127.072 76.388 127.072 75.32V74.96C127.072 73.952 127.276 73.1 127.684 72.404C128.104 71.696 128.668 71.162 129.376 70.802C130.084 70.442 130.876 70.262 131.752 70.262C132.64 70.262 133.432 70.442 134.128 70.802C134.836 71.162 135.394 71.696 135.802 72.404C136.222 73.1 136.432 73.952 136.432 74.96V75.32C136.432 76.388 136.222 77.288 135.802 78.02C135.394 78.74 134.836 79.286 134.128 79.658C133.432 80.018 132.64 80.198 131.752 80.198ZM131.752 78.47C132.208 78.47 132.64 78.362 133.048 78.146C133.456 77.93 133.786 77.594 134.038 77.138C134.29 76.67 134.416 76.064 134.416 75.32V74.96C134.416 74.276 134.29 73.718 134.038 73.286C133.786 72.842 133.456 72.518 133.048 72.314C132.64 72.098 132.208 71.99 131.752 71.99C131.296 71.99 130.864 72.098 130.456 72.314C130.048 72.518 129.718 72.842 129.466 73.286C129.214 73.718 129.088 74.276 129.088 74.96V75.32C129.088 76.064 129.214 76.67 129.466 77.138C129.718 77.594 130.048 77.93 130.456 78.146C130.864 78.362 131.296 78.47 131.752 78.47ZM138.405 80V70.46H140.385V77.21L144.975 70.46H146.865V80H144.885V73.25L140.295 80H138.405ZM142.635 69.38C141.639 69.38 140.907 69.164 140.439 68.732C139.983 68.288 139.755 67.664 139.755 66.86H141.591C141.591 67.292 141.675 67.604 141.843 67.796C142.023 67.988 142.287 68.084 142.635 68.084C142.983 68.084 143.241 67.988 143.409 67.796C143.589 67.604 143.679 67.292 143.679 66.86H145.515C145.515 67.664 145.281 68.288 144.813 68.732C144.345 69.164 143.619 69.38 142.635 69.38ZM149.391 80V70.46H151.371V74.33H152.451L155.799 70.46H158.031L153.981 75.014L158.211 80H155.799L152.451 75.95H151.371V80H149.391ZM162.446 80.198C161.762 80.198 161.174 80.072 160.682 79.82C160.202 79.556 159.836 79.196 159.584 78.74C159.332 78.284 159.206 77.774 159.206 77.21C159.206 76.262 159.488 75.56 160.052 75.104C160.616 74.636 161.444 74.402 162.536 74.402H165.506V73.88C165.506 73.16 165.344 72.668 165.02 72.404C164.708 72.128 164.21 71.99 163.526 71.99C162.914 71.99 162.464 72.086 162.176 72.278C161.888 72.47 161.72 72.734 161.672 73.07H159.746C159.782 72.518 159.956 72.032 160.268 71.612C160.58 71.192 161.018 70.862 161.582 70.622C162.158 70.382 162.836 70.262 163.616 70.262C164.396 70.262 165.074 70.382 165.65 70.622C166.238 70.862 166.688 71.24 167 71.756C167.324 72.26 167.486 72.932 167.486 73.772V77.57C167.486 78.074 167.492 78.518 167.504 78.902C167.516 79.274 167.546 79.64 167.594 80H165.794C165.758 79.724 165.728 79.49 165.704 79.298C165.692 79.106 165.686 78.866 165.686 78.578C165.458 79.022 165.062 79.406 164.498 79.73C163.946 80.042 163.262 80.198 162.446 80.198ZM162.986 78.47C163.442 78.47 163.856 78.392 164.228 78.236C164.612 78.08 164.918 77.846 165.146 77.534C165.386 77.222 165.506 76.844 165.506 76.4V75.878H162.896C162.392 75.878 161.984 75.986 161.672 76.202C161.372 76.418 161.222 76.736 161.222 77.156C161.222 77.552 161.36 77.87 161.636 78.11C161.924 78.35 162.374 78.47 162.986 78.47ZM178.382 80.198C177.53 80.198 176.762 80.018 176.078 79.658C175.394 79.298 174.854 78.758 174.458 78.038C174.074 77.318 173.882 76.412 173.882 75.32V74.96C173.882 73.928 174.086 73.064 174.494 72.368C174.914 71.672 175.466 71.15 176.15 70.802C176.834 70.442 177.578 70.262 178.382 70.262C179.222 70.262 179.93 70.406 180.506 70.694C181.094 70.982 181.55 71.372 181.874 71.864C182.21 72.356 182.426 72.908 182.522 73.52H180.506C180.386 73.076 180.17 72.71 179.858 72.422C179.546 72.134 179.054 71.99 178.382 71.99C177.938 71.99 177.524 72.092 177.14 72.296C176.768 72.5 176.468 72.824 176.24 73.268C176.012 73.7 175.898 74.264 175.898 74.96V75.32C175.898 76.076 176.012 76.688 176.24 77.156C176.468 77.612 176.768 77.948 177.14 78.164C177.524 78.368 177.938 78.47 178.382 78.47C178.946 78.47 179.402 78.344 179.75 78.092C180.098 77.84 180.35 77.456 180.506 76.94H182.522C182.402 77.612 182.15 78.194 181.766 78.686C181.394 79.166 180.92 79.538 180.344 79.802C179.768 80.066 179.114 80.198 178.382 80.198ZM184.406 80V70.46H188.906C189.71 70.46 190.358 70.574 190.85 70.802C191.354 71.018 191.726 71.324 191.966 71.72C192.206 72.104 192.326 72.548 192.326 73.052C192.326 73.472 192.2 73.88 191.948 74.276C191.696 74.66 191.342 74.918 190.886 75.05C191.474 75.194 191.918 75.47 192.218 75.878C192.53 76.274 192.686 76.742 192.686 77.282C192.686 78.11 192.41 78.77 191.858 79.262C191.306 79.754 190.442 80 189.266 80H184.406ZM186.386 78.308H188.996C189.644 78.308 190.088 78.206 190.328 78.002C190.58 77.786 190.706 77.486 190.706 77.102C190.706 76.718 190.58 76.43 190.328 76.238C190.088 76.034 189.644 75.932 188.996 75.932H186.386V78.308ZM186.386 74.384H188.726C189.326 74.384 189.746 74.288 189.986 74.096C190.226 73.892 190.346 73.616 190.346 73.268C190.346 72.92 190.226 72.65 189.986 72.458C189.746 72.254 189.326 72.152 188.726 72.152H186.386V74.384ZM198.812 80.198C197.972 80.198 197.198 80.024 196.49 79.676C195.782 79.316 195.212 78.776 194.78 78.056C194.348 77.336 194.132 76.424 194.132 75.32V74.96C194.132 73.904 194.336 73.028 194.744 72.332C195.164 71.636 195.716 71.12 196.4 70.784C197.084 70.436 197.828 70.262 198.632 70.262C200.084 70.262 201.194 70.652 201.962 71.432C202.742 72.212 203.132 73.328 203.132 74.78V75.788H196.148C196.172 76.436 196.31 76.958 196.562 77.354C196.814 77.75 197.138 78.038 197.534 78.218C197.93 78.386 198.356 78.47 198.812 78.47C199.496 78.47 199.994 78.362 200.306 78.146C200.63 77.93 200.852 77.648 200.972 77.3H202.952C202.76 78.248 202.286 78.968 201.53 79.46C200.786 79.952 199.88 80.198 198.812 80.198ZM198.722 71.99C198.278 71.99 197.864 72.068 197.48 72.224C197.096 72.38 196.784 72.626 196.544 72.962C196.304 73.298 196.172 73.748 196.148 74.312H201.152C201.14 73.712 201.026 73.244 200.81 72.908C200.594 72.572 200.306 72.338 199.946 72.206C199.586 72.062 199.178 71.99 198.722 71.99ZM205.114 83.6V70.46H206.95V72.062C207.238 71.51 207.664 71.072 208.228 70.748C208.804 70.424 209.452 70.262 210.172 70.262C211.42 70.262 212.404 70.652 213.124 71.432C213.844 72.212 214.204 73.388 214.204 74.96V75.32C214.204 76.4 214.036 77.306 213.7 78.038C213.364 78.758 212.896 79.298 212.296 79.658C211.696 80.018 210.988 80.198 210.172 80.198C209.488 80.198 208.864 80.048 208.3 79.748C207.736 79.448 207.334 79.028 207.094 78.488V83.6H205.114ZM209.704 78.47C210.448 78.47 211.048 78.212 211.504 77.696C211.96 77.18 212.188 76.388 212.188 75.32V74.96C212.188 73.952 211.966 73.208 211.522 72.728C211.078 72.236 210.472 71.99 209.704 71.99C209.26 71.99 208.834 72.086 208.426 72.278C208.03 72.47 207.706 72.752 207.454 73.124C207.214 73.496 207.094 73.958 207.094 74.51V75.77C207.094 76.37 207.214 76.874 207.454 77.282C207.706 77.678 208.03 77.978 208.426 78.182C208.822 78.374 209.248 78.47 209.704 78.47ZM214.936 80L218.374 75.032L215.116 70.46H217.348L219.67 73.664L221.956 70.46H224.116L220.894 74.96L224.296 80H222.028L219.598 76.292L217.132 80H214.936ZM225.908 80V70.46H228.14L231.182 76.04L234.224 70.46H236.348V80H234.368V73.43L231.848 78.02H230.408L227.888 73.43V80H225.908ZM243.004 80.198C242.128 80.198 241.336 80.018 240.628 79.658C239.92 79.286 239.356 78.74 238.936 78.02C238.528 77.288 238.324 76.388 238.324 75.32V74.96C238.324 73.952 238.528 73.1 238.936 72.404C239.356 71.696 239.92 71.162 240.628 70.802C241.336 70.442 242.128 70.262 243.004 70.262C243.892 70.262 244.684 70.442 245.38 70.802C246.088 71.162 246.646 71.696 247.054 72.404C247.474 73.1 247.684 73.952 247.684 74.96V75.32C247.684 76.388 247.474 77.288 247.054 78.02C246.646 78.74 246.088 79.286 245.38 79.658C244.684 80.018 243.892 80.198 243.004 80.198ZM243.004 78.47C243.46 78.47 243.892 78.362 244.3 78.146C244.708 77.93 245.038 77.594 245.29 77.138C245.542 76.67 245.668 76.064 245.668 75.32V74.96C245.668 74.276 245.542 73.718 245.29 73.286C245.038 72.842 244.708 72.518 244.3 72.314C243.892 72.098 243.46 71.99 243.004 71.99C242.548 71.99 242.116 72.098 241.708 72.314C241.3 72.518 240.97 72.842 240.718 73.286C240.466 73.718 240.34 74.276 240.34 74.96V75.32C240.34 76.064 240.466 76.67 240.718 77.138C240.97 77.594 241.3 77.93 241.708 78.146C242.116 78.362 242.548 78.47 243.004 78.47ZM261.5 82.25V80H249.656V70.46H251.636V78.308H254.786V70.46H256.766V78.308H259.916V70.46H261.896V78.308H263.336V82.25H261.5ZM265.055 80V70.46H267.035V74.294H271.535V70.46H273.515V80H271.535V75.986H267.035V80H265.055ZM280.181 80.198C279.305 80.198 278.513 80.018 277.805 79.658C277.097 79.286 276.533 78.74 276.113 78.02C275.705 77.288 275.501 76.388 275.501 75.32V74.96C275.501 73.952 275.705 73.1 276.113 72.404C276.533 71.696 277.097 71.162 277.805 70.802C278.513 70.442 279.305 70.262 280.181 70.262C281.069 70.262 281.861 70.442 282.557 70.802C283.265 71.162 283.823 71.696 284.231 72.404C284.651 73.1 284.861 73.952 284.861 74.96V75.32C284.861 76.388 284.651 77.288 284.231 78.02C283.823 78.74 283.265 79.286 282.557 79.658C281.861 80.018 281.069 80.198 280.181 80.198ZM280.181 78.47C280.637 78.47 281.069 78.362 281.477 78.146C281.885 77.93 282.215 77.594 282.467 77.138C282.719 76.67 282.845 76.064 282.845 75.32V74.96C282.845 74.276 282.719 73.718 282.467 73.286C282.215 72.842 281.885 72.518 281.477 72.314C281.069 72.098 280.637 71.99 280.181 71.99C279.725 71.99 279.293 72.098 278.885 72.314C278.477 72.518 278.147 72.842 277.895 73.286C277.643 73.718 277.517 74.276 277.517 74.96V75.32C277.517 76.064 277.643 76.67 277.895 77.138C278.147 77.594 278.477 77.93 278.885 78.146C279.293 78.362 279.725 78.47 280.181 78.47ZM286.834 80V70.46H288.814V77.21L293.404 70.46H295.294V80H293.314V73.25L288.724 80H286.834ZM291.064 69.38C290.068 69.38 289.336 69.164 288.868 68.732C288.412 68.288 288.184 67.664 288.184 66.86H290.02C290.02 67.292 290.104 67.604 290.272 67.796C290.452 67.988 290.716 68.084 291.064 68.084C291.412 68.084 291.67 67.988 291.838 67.796C292.018 67.604 292.108 67.292 292.108 66.86H293.944C293.944 67.664 293.71 68.288 293.242 68.732C292.774 69.164 292.048 69.38 291.064 69.38ZM73.26 105.6V92.46H75.096V94.062C75.384 93.51 75.81 93.072 76.374 92.748C76.95 92.424 77.598 92.262 78.318 92.262C79.566 92.262 80.55 92.652 81.27 93.432C81.99 94.212 82.35 95.388 82.35 96.96V97.32C82.35 98.4 82.182 99.306 81.846 100.038C81.51 100.758 81.042 101.298 80.442 101.658C79.842 102.018 79.134 102.198 78.318 102.198C77.634 102.198 77.01 102.048 76.446 101.748C75.882 101.448 75.48 101.028 75.24 100.488V105.6H73.26ZM77.85 100.47C78.594 100.47 79.194 100.212 79.65 99.696C80.106 99.18 80.334 98.388 80.334 97.32V96.96C80.334 95.952 80.112 95.208 79.668 94.728C79.224 94.236 78.618 93.99 77.85 93.99C77.406 93.99 76.98 94.086 76.572 94.278C76.176 94.47 75.852 94.752 75.6 95.124C75.36 95.496 75.24 95.958 75.24 96.51V97.77C75.24 98.37 75.36 98.874 75.6 99.282C75.852 99.678 76.176 99.978 76.572 100.182C76.968 100.374 77.394 100.47 77.85 100.47ZM87.1242 102.198C86.4402 102.198 85.8522 102.072 85.3602 101.82C84.8802 101.556 84.5142 101.196 84.2622 100.74C84.0102 100.284 83.8842 99.774 83.8842 99.21C83.8842 98.262 84.1662 97.56 84.7302 97.104C85.2942 96.636 86.1222 96.402 87.2142 96.402H90.1842V95.88C90.1842 95.16 90.0222 94.668 89.6982 94.404C89.3862 94.128 88.8882 93.99 88.2042 93.99C87.5922 93.99 87.1422 94.086 86.8542 94.278C86.5662 94.47 86.3982 94.734 86.3502 95.07H84.4242C84.4602 94.518 84.6342 94.032 84.9462 93.612C85.2582 93.192 85.6962 92.862 86.2602 92.622C86.8362 92.382 87.5142 92.262 88.2942 92.262C89.0742 92.262 89.7522 92.382 90.3282 92.622C90.9162 92.862 91.3662 93.24 91.6782 93.756C92.0022 94.26 92.1642 94.932 92.1642 95.772V99.57C92.1642 100.074 92.1702 100.518 92.1822 100.902C92.1942 101.274 92.2242 101.64 92.2722 102H90.4722C90.4362 101.724 90.4062 101.49 90.3822 101.298C90.3702 101.106 90.3642 100.866 90.3642 100.578C90.1362 101.022 89.7402 101.406 89.1762 101.73C88.6242 102.042 87.9402 102.198 87.1242 102.198ZM87.6642 100.47C88.1202 100.47 88.5342 100.392 88.9062 100.236C89.2902 100.08 89.5962 99.846 89.8242 99.534C90.0642 99.222 90.1842 98.844 90.1842 98.4V97.878H87.5742C87.0702 97.878 86.6622 97.986 86.3502 98.202C86.0502 98.418 85.9002 98.736 85.9002 99.156C85.9002 99.552 86.0382 99.87 86.3142 100.11C86.6022 100.35 87.0522 100.47 87.6642 100.47ZM93.6998 104.25V100.308H94.7798C94.9478 100.056 95.0918 99.666 95.2118 99.138C95.3318 98.598 95.4218 97.98 95.4818 97.284C95.5538 96.588 95.5898 95.88 95.5898 95.16V92.46H102.7V100.308H103.96V104.25H102.124V102H95.5358V104.25H93.6998ZM96.7958 100.308H100.72V94.152H97.4978V95.52C97.4978 96.444 97.4438 97.332 97.3358 98.184C97.2278 99.024 97.0478 99.732 96.7958 100.308ZM105.674 102V92.46H107.654V99.21L112.244 92.46H114.134V102H112.154V95.25L107.564 102H105.674ZM120.8 102.198C119.924 102.198 119.132 102.018 118.424 101.658C117.716 101.286 117.152 100.74 116.732 100.02C116.324 99.288 116.12 98.388 116.12 97.32V96.96C116.12 95.952 116.324 95.1 116.732 94.404C117.152 93.696 117.716 93.162 118.424 92.802C119.132 92.442 119.924 92.262 120.8 92.262C121.688 92.262 122.48 92.442 123.176 92.802C123.884 93.162 124.442 93.696 124.85 94.404C125.27 95.1 125.48 95.952 125.48 96.96V97.32C125.48 98.388 125.27 99.288 124.85 100.02C124.442 100.74 123.884 101.286 123.176 101.658C122.48 102.018 121.688 102.198 120.8 102.198ZM120.8 100.47C121.256 100.47 121.688 100.362 122.096 100.146C122.504 99.93 122.834 99.594 123.086 99.138C123.338 98.67 123.464 98.064 123.464 97.32V96.96C123.464 96.276 123.338 95.718 123.086 95.286C122.834 94.842 122.504 94.518 122.096 94.314C121.688 94.098 121.256 93.99 120.8 93.99C120.344 93.99 119.912 94.098 119.504 94.314C119.096 94.518 118.766 94.842 118.514 95.286C118.262 95.718 118.136 96.276 118.136 96.96V97.32C118.136 98.064 118.262 98.67 118.514 99.138C118.766 99.594 119.096 99.93 119.504 100.146C119.912 100.362 120.344 100.47 120.8 100.47ZM131.413 102.198C130.561 102.198 129.793 102.018 129.109 101.658C128.425 101.298 127.885 100.758 127.489 100.038C127.105 99.318 126.913 98.412 126.913 97.32V96.96C126.913 95.928 127.117 95.064 127.525 94.368C127.945 93.672 128.497 93.15 129.181 92.802C129.865 92.442 130.609 92.262 131.413 92.262C132.253 92.262 132.961 92.406 133.537 92.694C134.125 92.982 134.581 93.372 134.905 93.864C135.241 94.356 135.457 94.908 135.553 95.52H133.537C133.417 95.076 133.201 94.71 132.889 94.422C132.577 94.134 132.085 93.99 131.413 93.99C130.969 93.99 130.555 94.092 130.171 94.296C129.799 94.5 129.499 94.824 129.271 95.268C129.043 95.7 128.929 96.264 128.929 96.96V97.32C128.929 98.076 129.043 98.688 129.271 99.156C129.499 99.612 129.799 99.948 130.171 100.164C130.555 100.368 130.969 100.47 131.413 100.47C131.977 100.47 132.433 100.344 132.781 100.092C133.129 99.84 133.381 99.456 133.537 98.94H135.553C135.433 99.612 135.181 100.194 134.797 100.686C134.425 101.166 133.951 101.538 133.375 101.802C132.799 102.066 132.145 102.198 131.413 102.198ZM139.688 102V94.152H136.538V92.46H144.818V94.152H141.668V102H139.688ZM148.683 102.198C147.999 102.198 147.411 102.072 146.919 101.82C146.439 101.556 146.073 101.196 145.821 100.74C145.569 100.284 145.443 99.774 145.443 99.21C145.443 98.262 145.725 97.56 146.289 97.104C146.853 96.636 147.681 96.402 148.773 96.402H151.743V95.88C151.743 95.16 151.581 94.668 151.257 94.404C150.945 94.128 150.447 93.99 149.763 93.99C149.151 93.99 148.701 94.086 148.413 94.278C148.125 94.47 147.957 94.734 147.909 95.07H145.983C146.019 94.518 146.193 94.032 146.505 93.612C146.817 93.192 147.255 92.862 147.819 92.622C148.395 92.382 149.073 92.262 149.853 92.262C150.633 92.262 151.311 92.382 151.887 92.622C152.475 92.862 152.925 93.24 153.237 93.756C153.561 94.26 153.723 94.932 153.723 95.772V99.57C153.723 100.074 153.729 100.518 153.741 100.902C153.753 101.274 153.783 101.64 153.831 102H152.031C151.995 101.724 151.965 101.49 151.941 101.298C151.929 101.106 151.923 100.866 151.923 100.578C151.695 101.022 151.299 101.406 150.735 101.73C150.183 102.042 149.499 102.198 148.683 102.198ZM149.223 100.47C149.679 100.47 150.093 100.392 150.465 100.236C150.849 100.08 151.155 99.846 151.383 99.534C151.623 99.222 151.743 98.844 151.743 98.4V97.878H149.133C148.629 97.878 148.221 97.986 147.909 98.202C147.609 98.418 147.459 98.736 147.459 99.156C147.459 99.552 147.597 99.87 147.873 100.11C148.161 100.35 148.611 100.47 149.223 100.47ZM156.158 102V92.46H158.138V96.294H162.638V92.46H164.618V102H162.638V97.986H158.138V102H156.158ZM174.849 104.25V102H167.145V92.46H169.125V100.308H173.265V92.46H175.245V100.308H176.685V104.25H174.849ZM178.395 102V92.46H180.375V99.21L184.965 92.46H186.855V102H184.875V95.25L180.285 102H178.395ZM189.381 102V92.46H191.361V99.21L195.951 92.46H197.841V102H195.861V95.25L191.271 102H189.381ZM72.36 126.25V122.308H73.44C73.608 122.056 73.752 121.666 73.872 121.138C73.992 120.598 74.082 119.98 74.142 119.284C74.214 118.588 74.25 117.88 74.25 117.16V114.46H81.36V122.308H82.62V126.25H80.784V124H74.196V126.25H72.36ZM75.456 122.308H79.38V116.152H76.158V117.52C76.158 118.444 76.104 119.332 75.996 120.184C75.888 121.024 75.708 121.732 75.456 122.308ZM84.5058 124.198C84.4098 124.198 84.3018 124.192 84.1818 124.18C84.0738 124.18 83.9718 124.168 83.8758 124.144V122.272C83.9118 122.284 84.0018 122.29 84.1458 122.29C84.4818 122.29 84.7518 122.146 84.9558 121.858C85.1718 121.57 85.3278 121.072 85.4238 120.364C85.5318 119.644 85.5858 118.636 85.5858 117.34V114.46H92.7858V124H90.8058V116.152H87.4938V117.7C87.4938 118.972 87.4278 120.034 87.2958 120.886C87.1758 121.726 86.9898 122.386 86.7378 122.866C86.4858 123.346 86.1738 123.688 85.8018 123.892C85.4298 124.096 84.9978 124.198 84.5058 124.198ZM94.673 124L97.157 120.382C96.437 120.166 95.903 119.812 95.555 119.32C95.207 118.828 95.033 118.234 95.033 117.538C95.033 116.914 95.171 116.374 95.447 115.918C95.723 115.45 96.143 115.09 96.707 114.838C97.271 114.586 97.973 114.46 98.813 114.46H103.133V124H101.153V120.616H99.101L96.977 124H94.673ZM97.049 117.538C97.049 118.042 97.199 118.402 97.499 118.618C97.799 118.822 98.207 118.924 98.723 118.924H101.153V116.152H98.723C98.207 116.152 97.799 116.26 97.499 116.476C97.199 116.68 97.049 117.034 97.049 117.538ZM110.156 124V114.46H118.436V124H116.456V116.152H112.136V124H110.156ZM125.089 124.198C124.249 124.198 123.475 124.024 122.767 123.676C122.059 123.316 121.489 122.776 121.057 122.056C120.625 121.336 120.409 120.424 120.409 119.32V118.96C120.409 117.904 120.613 117.028 121.021 116.332C121.441 115.636 121.993 115.12 122.677 114.784C123.361 114.436 124.105 114.262 124.909 114.262C126.361 114.262 127.471 114.652 128.239 115.432C129.019 116.212 129.409 117.328 129.409 118.78V119.788H122.425C122.449 120.436 122.587 120.958 122.839 121.354C123.091 121.75 123.415 122.038 123.811 122.218C124.207 122.386 124.633 122.47 125.089 122.47C125.773 122.47 126.271 122.362 126.583 122.146C126.907 121.93 127.129 121.648 127.249 121.3H129.229C129.037 122.248 128.563 122.968 127.807 123.46C127.063 123.952 126.157 124.198 125.089 124.198ZM124.999 115.99C124.555 115.99 124.141 116.068 123.757 116.224C123.373 116.38 123.061 116.626 122.821 116.962C122.581 117.298 122.449 117.748 122.425 118.312H127.429C127.417 117.712 127.303 117.244 127.087 116.908C126.871 116.572 126.583 116.338 126.223 116.206C125.863 116.062 125.455 115.99 124.999 115.99ZM131.391 127.6V114.46H133.227V116.062C133.515 115.51 133.941 115.072 134.505 114.748C135.081 114.424 135.729 114.262 136.449 114.262C137.697 114.262 138.681 114.652 139.401 115.432C140.121 116.212 140.481 117.388 140.481 118.96V119.32C140.481 120.4 140.313 121.306 139.977 122.038C139.641 122.758 139.173 123.298 138.573 123.658C137.973 124.018 137.265 124.198 136.449 124.198C135.765 124.198 135.141 124.048 134.577 123.748C134.013 123.448 133.611 123.028 133.371 122.488V127.6H131.391ZM135.981 122.47C136.725 122.47 137.325 122.212 137.781 121.696C138.237 121.18 138.465 120.388 138.465 119.32V118.96C138.465 117.952 138.243 117.208 137.799 116.728C137.355 116.236 136.749 115.99 135.981 115.99C135.537 115.99 135.111 116.086 134.703 116.278C134.307 116.47 133.983 116.752 133.731 117.124C133.491 117.496 133.371 117.958 133.371 118.51V119.77C133.371 120.37 133.491 120.874 133.731 121.282C133.983 121.678 134.307 121.978 134.703 122.182C135.099 122.374 135.525 122.47 135.981 122.47ZM146.605 124.198C145.765 124.198 144.991 124.024 144.283 123.676C143.575 123.316 143.005 122.776 142.573 122.056C142.141 121.336 141.925 120.424 141.925 119.32V118.96C141.925 117.904 142.129 117.028 142.537 116.332C142.957 115.636 143.509 115.12 144.193 114.784C144.877 114.436 145.621 114.262 146.425 114.262C147.877 114.262 148.987 114.652 149.755 115.432C150.535 116.212 150.925 117.328 150.925 118.78V119.788H143.941C143.965 120.436 144.103 120.958 144.355 121.354C144.607 121.75 144.931 122.038 145.327 122.218C145.723 122.386 146.149 122.47 146.605 122.47C147.289 122.47 147.787 122.362 148.099 122.146C148.423 121.93 148.645 121.648 148.765 121.3H150.745C150.553 122.248 150.079 122.968 149.323 123.46C148.579 123.952 147.673 124.198 146.605 124.198ZM146.515 115.99C146.071 115.99 145.657 116.068 145.273 116.224C144.889 116.38 144.577 116.626 144.337 116.962C144.097 117.298 143.965 117.748 143.941 118.312H148.945C148.933 117.712 148.819 117.244 148.603 116.908C148.387 116.572 148.099 116.338 147.739 116.206C147.379 116.062 146.971 115.99 146.515 115.99ZM151.919 126.25V122.308H152.999C153.167 122.056 153.311 121.666 153.431 121.138C153.551 120.598 153.641 119.98 153.701 119.284C153.773 118.588 153.809 117.88 153.809 117.16V114.46H160.919V122.308H162.179V126.25H160.343V124H153.755V126.25H151.919ZM155.015 122.308H158.939V116.152H155.717V117.52C155.717 118.444 155.663 119.332 155.555 120.184C155.447 121.024 155.267 121.732 155.015 122.308ZM166.859 124.198C166.175 124.198 165.587 124.072 165.095 123.82C164.615 123.556 164.249 123.196 163.997 122.74C163.745 122.284 163.619 121.774 163.619 121.21C163.619 120.262 163.901 119.56 164.465 119.104C165.029 118.636 165.857 118.402 166.949 118.402H169.919V117.88C169.919 117.16 169.757 116.668 169.433 116.404C169.121 116.128 168.623 115.99 167.939 115.99C167.327 115.99 166.877 116.086 166.589 116.278C166.301 116.47 166.133 116.734 166.085 117.07H164.159C164.195 116.518 164.369 116.032 164.681 115.612C164.993 115.192 165.431 114.862 165.995 114.622C166.571 114.382 167.249 114.262 168.029 114.262C168.809 114.262 169.487 114.382 170.063 114.622C170.651 114.862 171.101 115.24 171.413 115.756C171.737 116.26 171.899 116.932 171.899 117.772V121.57C171.899 122.074 171.905 122.518 171.917 122.902C171.929 123.274 171.959 123.64 172.007 124H170.207C170.171 123.724 170.141 123.49 170.117 123.298C170.105 123.106 170.099 122.866 170.099 122.578C169.871 123.022 169.475 123.406 168.911 123.73C168.359 124.042 167.675 124.198 166.859 124.198ZM167.399 122.47C167.855 122.47 168.269 122.392 168.641 122.236C169.025 122.08 169.331 121.846 169.559 121.534C169.799 121.222 169.919 120.844 169.919 120.4V119.878H167.309C166.805 119.878 166.397 119.986 166.085 120.202C165.785 120.418 165.635 120.736 165.635 121.156C165.635 121.552 165.773 121.87 166.049 122.11C166.337 122.35 166.787 122.47 167.399 122.47ZM179.914 124V120.346C179.638 120.514 179.308 120.664 178.924 120.796C178.552 120.928 178.072 120.994 177.484 120.994C176.344 120.994 175.474 120.724 174.874 120.184C174.274 119.644 173.974 118.786 173.974 117.61V114.46H175.954V117.34C175.954 118.06 176.098 118.564 176.386 118.852C176.686 119.128 177.202 119.266 177.934 119.266C178.438 119.266 178.858 119.212 179.194 119.104C179.542 118.984 179.782 118.87 179.914 118.762V114.46H181.894V124H179.914ZM184.406 124V114.46H186.386V121.21L190.976 114.46H192.866V124H190.886V117.25L186.296 124H184.406ZM199.893 124V114.46H204.393C205.197 114.46 205.845 114.574 206.337 114.802C206.841 115.018 207.213 115.324 207.453 115.72C207.693 116.104 207.813 116.548 207.813 117.052C207.813 117.472 207.687 117.88 207.435 118.276C207.183 118.66 206.829 118.918 206.373 119.05C206.961 119.194 207.405 119.47 207.705 119.878C208.017 120.274 208.173 120.742 208.173 121.282C208.173 122.11 207.897 122.77 207.345 123.262C206.793 123.754 205.929 124 204.753 124H199.893ZM201.873 122.308H204.483C205.131 122.308 205.575 122.206 205.815 122.002C206.067 121.786 206.193 121.486 206.193 121.102C206.193 120.718 206.067 120.43 205.815 120.238C205.575 120.034 205.131 119.932 204.483 119.932H201.873V122.308ZM201.873 118.384H204.213C204.813 118.384 205.233 118.288 205.473 118.096C205.713 117.892 205.833 117.616 205.833 117.268C205.833 116.92 205.713 116.65 205.473 116.458C205.233 116.254 204.813 116.152 204.213 116.152H201.873V118.384ZM214.118 124.198C213.266 124.198 212.498 124.018 211.814 123.658C211.13 123.298 210.59 122.758 210.194 122.038C209.81 121.318 209.618 120.412 209.618 119.32V118.96C209.618 117.928 209.822 117.064 210.23 116.368C210.65 115.672 211.202 115.15 211.886 114.802C212.57 114.442 213.314 114.262 214.118 114.262C214.958 114.262 215.666 114.406 216.242 114.694C216.83 114.982 217.286 115.372 217.61 115.864C217.946 116.356 218.162 116.908 218.258 117.52H216.242C216.122 117.076 215.906 116.71 215.594 116.422C215.282 116.134 214.79 115.99 214.118 115.99C213.674 115.99 213.26 116.092 212.876 116.296C212.504 116.5 212.204 116.824 211.976 117.268C211.748 117.7 211.634 118.264 211.634 118.96V119.32C211.634 120.076 211.748 120.688 211.976 121.156C212.204 121.612 212.504 121.948 212.876 122.164C213.26 122.368 213.674 122.47 214.118 122.47C214.682 122.47 215.138 122.344 215.486 122.092C215.834 121.84 216.086 121.456 216.242 120.94H218.258C218.138 121.612 217.886 122.194 217.502 122.686C217.13 123.166 216.656 123.538 216.08 123.802C215.504 124.066 214.85 124.198 214.118 124.198ZM224.283 124.198C223.443 124.198 222.669 124.024 221.961 123.676C221.253 123.316 220.683 122.776 220.251 122.056C219.819 121.336 219.603 120.424 219.603 119.32V118.96C219.603 117.904 219.807 117.028 220.215 116.332C220.635 115.636 221.187 115.12 221.871 114.784C222.555 114.436 223.299 114.262 224.103 114.262C225.555 114.262 226.665 114.652 227.433 115.432C228.213 116.212 228.603 117.328 228.603 118.78V119.788H221.619C221.643 120.436 221.781 120.958 222.033 121.354C222.285 121.75 222.609 122.038 223.005 122.218C223.401 122.386 223.827 122.47 224.283 122.47C224.967 122.47 225.465 122.362 225.777 122.146C226.101 121.93 226.323 121.648 226.443 121.3H228.423C228.231 122.248 227.757 122.968 227.001 123.46C226.257 123.952 225.351 124.198 224.283 124.198ZM224.193 115.99C223.749 115.99 223.335 116.068 222.951 116.224C222.567 116.38 222.255 116.626 222.015 116.962C221.775 117.298 221.643 117.748 221.619 118.312H226.623C226.611 117.712 226.497 117.244 226.281 116.908C226.065 116.572 225.777 116.338 225.417 116.206C225.057 116.062 224.649 115.99 224.193 115.99ZM230.584 124V114.46H232.816L235.858 120.04L238.9 114.46H241.024V124H239.044V117.43L236.524 122.02H235.084L232.564 117.43V124H230.584ZM245.069 127.798C244.889 127.798 244.709 127.78 244.529 127.744V126.016C244.709 126.052 244.889 126.07 245.069 126.07C245.333 126.07 245.549 126.004 245.717 125.872C245.885 125.752 246.041 125.542 246.185 125.242C246.329 124.942 246.497 124.528 246.689 124L242.639 114.46H244.799L247.715 121.84L250.343 114.46H252.359L248.669 124C248.321 124.888 247.991 125.614 247.679 126.178C247.367 126.742 247.013 127.15 246.617 127.402C246.221 127.666 245.705 127.798 245.069 127.798ZM258.481 124V114.46H260.713L263.755 120.04L266.797 114.46H268.921V124H266.941V117.43L264.421 122.02H262.981L260.461 117.43V124H258.481ZM271.436 124V114.46H273.416V121.21L278.006 114.46H279.896V124H277.916V117.25L273.326 124H271.436ZM282.422 127.6V114.46H284.258V116.062C284.546 115.51 284.972 115.072 285.536 114.748C286.112 114.424 286.76 114.262 287.48 114.262C288.728 114.262 289.712 114.652 290.432 115.432C291.152 116.212 291.512 117.388 291.512 118.96V119.32C291.512 120.4 291.344 121.306 291.008 122.038C290.672 122.758 290.204 123.298 289.604 123.658C289.004 124.018 288.296 124.198 287.48 124.198C286.796 124.198 286.172 124.048 285.608 123.748C285.044 123.448 284.642 123.028 284.402 122.488V127.6H282.422ZM287.012 122.47C287.756 122.47 288.356 122.212 288.812 121.696C289.268 121.18 289.496 120.388 289.496 119.32V118.96C289.496 117.952 289.274 117.208 288.83 116.728C288.386 116.236 287.78 115.99 287.012 115.99C286.568 115.99 286.142 116.086 285.734 116.278C285.338 116.47 285.014 116.752 284.762 117.124C284.522 117.496 284.402 117.958 284.402 118.51V119.77C284.402 120.37 284.522 120.874 284.762 121.282C285.014 121.678 285.338 121.978 285.734 122.182C286.13 122.374 286.556 122.47 287.012 122.47ZM294.675 127.798C294.495 127.798 294.315 127.78 294.135 127.744V126.016C294.315 126.052 294.495 126.07 294.675 126.07C294.939 126.07 295.155 126.004 295.323 125.872C295.491 125.752 295.647 125.542 295.791 125.242C295.935 124.942 296.103 124.528 296.295 124L292.245 114.46H294.405L297.321 121.84L299.949 114.46H301.965L298.275 124C297.927 124.888 297.597 125.614 297.285 126.178C296.973 126.742 296.619 127.15 296.223 127.402C295.827 127.666 295.311 127.798 294.675 127.798ZM77.22 146.198C76.368 146.198 75.6 146.018 74.916 145.658C74.232 145.298 73.692 144.758 73.296 144.038C72.912 143.318 72.72 142.412 72.72 141.32V140.96C72.72 139.928 72.924 139.064 73.332 138.368C73.752 137.672 74.304 137.15 74.988 136.802C75.672 136.442 76.416 136.262 77.22 136.262C78.06 136.262 78.768 136.406 79.344 136.694C79.932 136.982 80.388 137.372 80.712 137.864C81.048 138.356 81.264 138.908 81.36 139.52H79.344C79.224 139.076 79.008 138.71 78.696 138.422C78.384 138.134 77.892 137.99 77.22 137.99C76.776 137.99 76.362 138.092 75.978 138.296C75.606 138.5 75.306 138.824 75.078 139.268C74.85 139.7 74.736 140.264 74.736 140.96V141.32C74.736 142.076 74.85 142.688 75.078 143.156C75.306 143.612 75.606 143.948 75.978 144.164C76.362 144.368 76.776 144.47 77.22 144.47C77.784 144.47 78.24 144.344 78.588 144.092C78.936 143.84 79.188 143.456 79.344 142.94H81.36C81.24 143.612 80.988 144.194 80.604 144.686C80.232 145.166 79.758 145.538 79.182 145.802C78.606 146.066 77.952 146.198 77.22 146.198ZM87.3844 146.198C86.5444 146.198 85.7704 146.024 85.0624 145.676C84.3544 145.316 83.7844 144.776 83.3524 144.056C82.9204 143.336 82.7044 142.424 82.7044 141.32V140.96C82.7044 139.904 82.9084 139.028 83.3164 138.332C83.7364 137.636 84.2884 137.12 84.9724 136.784C85.6564 136.436 86.4004 136.262 87.2044 136.262C88.6564 136.262 89.7664 136.652 90.5344 137.432C91.3144 138.212 91.7044 139.328 91.7044 140.78V141.788H84.7204C84.7444 142.436 84.8824 142.958 85.1344 143.354C85.3864 143.75 85.7104 144.038 86.1064 144.218C86.5024 144.386 86.9284 144.47 87.3844 144.47C88.0684 144.47 88.5664 144.362 88.8784 144.146C89.2024 143.93 89.4244 143.648 89.5444 143.3H91.5244C91.3324 144.248 90.8584 144.968 90.1024 145.46C89.3584 145.952 88.4524 146.198 87.3844 146.198ZM87.2944 137.99C86.8504 137.99 86.4364 138.068 86.0524 138.224C85.6684 138.38 85.3564 138.626 85.1164 138.962C84.8764 139.298 84.7444 139.748 84.7204 140.312H89.7244C89.7124 139.712 89.5984 139.244 89.3824 138.908C89.1664 138.572 88.8784 138.338 88.5184 138.206C88.1584 138.062 87.7504 137.99 87.2944 137.99ZM93.6858 146V136.46H95.6658V140.294H100.166V136.46H102.146V146H100.166V141.986H95.6658V146H93.6858ZM108.632 146.198C107.78 146.198 107.012 146.018 106.328 145.658C105.644 145.298 105.104 144.758 104.708 144.038C104.324 143.318 104.132 142.412 104.132 141.32V140.96C104.132 139.928 104.336 139.064 104.744 138.368C105.164 137.672 105.716 137.15 106.4 136.802C107.084 136.442 107.828 136.262 108.632 136.262C109.472 136.262 110.18 136.406 110.756 136.694C111.344 136.982 111.8 137.372 112.124 137.864C112.46 138.356 112.676 138.908 112.772 139.52H110.756C110.636 139.076 110.42 138.71 110.108 138.422C109.796 138.134 109.304 137.99 108.632 137.99C108.188 137.99 107.774 138.092 107.39 138.296C107.018 138.5 106.718 138.824 106.49 139.268C106.262 139.7 106.148 140.264 106.148 140.96V141.32C106.148 142.076 106.262 142.688 106.49 143.156C106.718 143.612 107.018 143.948 107.39 144.164C107.774 144.368 108.188 144.47 108.632 144.47C109.196 144.47 109.652 144.344 110 144.092C110.348 143.84 110.6 143.456 110.756 142.94H112.772C112.652 143.612 112.4 144.194 112.016 144.686C111.644 145.166 111.17 145.538 110.594 145.802C110.018 146.066 109.364 146.198 108.632 146.198ZM117.446 146.198C116.762 146.198 116.174 146.072 115.682 145.82C115.202 145.556 114.836 145.196 114.584 144.74C114.332 144.284 114.206 143.774 114.206 143.21C114.206 142.262 114.488 141.56 115.052 141.104C115.616 140.636 116.444 140.402 117.536 140.402H120.506V139.88C120.506 139.16 120.344 138.668 120.02 138.404C119.708 138.128 119.21 137.99 118.526 137.99C117.914 137.99 117.464 138.086 117.176 138.278C116.888 138.47 116.72 138.734 116.672 139.07H114.746C114.782 138.518 114.956 138.032 115.268 137.612C115.58 137.192 116.018 136.862 116.582 136.622C117.158 136.382 117.836 136.262 118.616 136.262C119.396 136.262 120.074 136.382 120.65 136.622C121.238 136.862 121.688 137.24 122 137.756C122.324 138.26 122.486 138.932 122.486 139.772V143.57C122.486 144.074 122.492 144.518 122.504 144.902C122.516 145.274 122.546 145.64 122.594 146H120.794C120.758 145.724 120.728 145.49 120.704 145.298C120.692 145.106 120.686 144.866 120.686 144.578C120.458 145.022 120.062 145.406 119.498 145.73C118.946 146.042 118.262 146.198 117.446 146.198ZM117.986 144.47C118.442 144.47 118.856 144.392 119.228 144.236C119.612 144.08 119.918 143.846 120.146 143.534C120.386 143.222 120.506 142.844 120.506 142.4V141.878H117.896C117.392 141.878 116.984 141.986 116.672 142.202C116.372 142.418 116.222 142.736 116.222 143.156C116.222 143.552 116.36 143.87 116.636 144.11C116.924 144.35 117.374 144.47 117.986 144.47ZM132.626 148.25V146H124.922V136.46H126.902V144.308H131.042V136.46H133.022V144.308H134.462V148.25H132.626ZM136.172 146V136.46H138.152V143.21L142.742 136.46H144.632V146H142.652V139.25L138.062 146H136.172ZM151.298 146.198C150.422 146.198 149.63 146.018 148.922 145.658C148.214 145.286 147.65 144.74 147.23 144.02C146.822 143.288 146.618 142.388 146.618 141.32V140.96C146.618 139.952 146.822 139.1 147.23 138.404C147.65 137.696 148.214 137.162 148.922 136.802C149.63 136.442 150.422 136.262 151.298 136.262C152.186 136.262 152.978 136.442 153.674 136.802C154.382 137.162 154.94 137.696 155.348 138.404C155.768 139.1 155.978 139.952 155.978 140.96V141.32C155.978 142.388 155.768 143.288 155.348 144.02C154.94 144.74 154.382 145.286 153.674 145.658C152.978 146.018 152.186 146.198 151.298 146.198ZM151.298 144.47C151.754 144.47 152.186 144.362 152.594 144.146C153.002 143.93 153.332 143.594 153.584 143.138C153.836 142.67 153.962 142.064 153.962 141.32V140.96C153.962 140.276 153.836 139.718 153.584 139.286C153.332 138.842 153.002 138.518 152.594 138.314C152.186 138.098 151.754 137.99 151.298 137.99C150.842 137.99 150.41 138.098 150.002 138.314C149.594 138.518 149.264 138.842 149.012 139.286C148.76 139.718 148.634 140.276 148.634 140.96V141.32C148.634 142.064 148.76 142.67 149.012 143.138C149.264 143.594 149.594 143.93 150.002 144.146C150.41 144.362 150.842 144.47 151.298 144.47ZM157.951 146V136.46H159.931V140.294H164.431V136.46H166.411V146H164.431V141.986H159.931V146H157.951ZM168.938 146V136.46H170.918V140.294H175.418V136.46H177.398V146H175.418V141.986H170.918V146H168.938ZM179.924 146V136.46H181.904V139.808H183.704C184.928 139.808 185.834 140.072 186.422 140.6C187.01 141.116 187.304 141.884 187.304 142.904C187.304 143.54 187.178 144.092 186.926 144.56C186.674 145.028 186.284 145.388 185.756 145.64C185.228 145.88 184.544 146 183.704 146H179.924ZM181.904 144.308H183.524C184.184 144.308 184.646 144.194 184.91 143.966C185.186 143.726 185.324 143.372 185.324 142.904C185.324 142.436 185.186 142.088 184.91 141.86C184.646 141.62 184.184 141.5 183.524 141.5H181.904V144.308ZM188.564 146V136.46H190.544V146H188.564ZM192.348 146L195.786 141.032L192.528 136.46H194.76L197.082 139.664L199.368 136.46H201.528L198.306 140.96L201.708 146H199.44L197.01 142.292L194.544 146H192.348ZM73.26 171.6V158.46H75.096V160.062C75.384 159.51 75.81 159.072 76.374 158.748C76.95 158.424 77.598 158.262 78.318 158.262C79.566 158.262 80.55 158.652 81.27 159.432C81.99 160.212 82.35 161.388 82.35 162.96V163.32C82.35 164.4 82.182 165.306 81.846 166.038C81.51 166.758 81.042 167.298 80.442 167.658C79.842 168.018 79.134 168.198 78.318 168.198C77.634 168.198 77.01 168.048 76.446 167.748C75.882 167.448 75.48 167.028 75.24 166.488V171.6H73.26ZM77.85 166.47C78.594 166.47 79.194 166.212 79.65 165.696C80.106 165.18 80.334 164.388 80.334 163.32V162.96C80.334 161.952 80.112 161.208 79.668 160.728C79.224 160.236 78.618 159.99 77.85 159.99C77.406 159.99 76.98 160.086 76.572 160.278C76.176 160.47 75.852 160.752 75.6 161.124C75.36 161.496 75.24 161.958 75.24 162.51V163.77C75.24 164.37 75.36 164.874 75.6 165.282C75.852 165.678 76.176 165.978 76.572 166.182C76.968 166.374 77.394 166.47 77.85 166.47ZM88.4742 168.198C87.6342 168.198 86.8602 168.024 86.1522 167.676C85.4442 167.316 84.8742 166.776 84.4422 166.056C84.0102 165.336 83.7942 164.424 83.7942 163.32V162.96C83.7942 161.904 83.9982 161.028 84.4062 160.332C84.8262 159.636 85.3782 159.12 86.0622 158.784C86.7462 158.436 87.4902 158.262 88.2942 158.262C89.7462 158.262 90.8562 158.652 91.6242 159.432C92.4042 160.212 92.7942 161.328 92.7942 162.78V163.788H85.8102C85.8342 164.436 85.9722 164.958 86.2242 165.354C86.4762 165.75 86.8002 166.038 87.1962 166.218C87.5922 166.386 88.0182 166.47 88.4742 166.47C89.1582 166.47 89.6562 166.362 89.9682 166.146C90.2922 165.93 90.5142 165.648 90.6342 165.3H92.6142C92.4222 166.248 91.9482 166.968 91.1922 167.46C90.4482 167.952 89.5422 168.198 88.4742 168.198ZM88.3842 159.99C87.9402 159.99 87.5262 160.068 87.1422 160.224C86.7582 160.38 86.4462 160.626 86.2062 160.962C85.9662 161.298 85.8342 161.748 85.8102 162.312H90.8142C90.8022 161.712 90.6882 161.244 90.4722 160.908C90.2562 160.572 89.9682 160.338 89.6082 160.206C89.2482 160.062 88.8402 159.99 88.3842 159.99ZM98.2856 168.198C97.4216 168.198 96.6896 168.078 96.0896 167.838C95.4896 167.598 95.0276 167.25 94.7036 166.794C94.3796 166.326 94.1936 165.768 94.1456 165.12H96.1616C96.2096 165.408 96.3056 165.654 96.4496 165.858C96.6056 166.062 96.8276 166.218 97.1156 166.326C97.4156 166.422 97.7936 166.47 98.2496 166.47C99.0656 166.47 99.6296 166.338 99.9416 166.074C100.254 165.81 100.41 165.48 100.41 165.084C100.41 164.724 100.272 164.442 99.9956 164.238C99.7316 164.022 99.2636 163.914 98.5916 163.914H97.0256V162.366H98.4656C99.0176 162.366 99.4196 162.252 99.6716 162.024C99.9236 161.796 100.05 161.508 100.05 161.16C100.05 160.848 99.9176 160.578 99.6536 160.35C99.3896 160.11 98.9336 159.99 98.2856 159.99C97.5896 159.99 97.1036 160.104 96.8276 160.332C96.5636 160.56 96.4016 160.866 96.3416 161.25H94.3256C94.3736 160.638 94.5536 160.11 94.8656 159.666C95.1776 159.222 95.6216 158.88 96.1976 158.64C96.7736 158.388 97.4696 158.262 98.2856 158.262C99.5936 158.262 100.548 158.52 101.148 159.036C101.76 159.552 102.066 160.224 102.066 161.052C102.066 161.508 101.952 161.91 101.724 162.258C101.508 162.606 101.148 162.87 100.644 163.05C101.316 163.218 101.778 163.5 102.03 163.896C102.294 164.292 102.426 164.748 102.426 165.264C102.426 165.816 102.276 166.314 101.976 166.758C101.676 167.202 101.22 167.556 100.608 167.82C99.9956 168.072 99.2216 168.198 98.2856 168.198ZM105.763 171.798C105.583 171.798 105.403 171.78 105.223 171.744V170.016C105.403 170.052 105.583 170.07 105.763 170.07C106.027 170.07 106.243 170.004 106.411 169.872C106.579 169.752 106.735 169.542 106.879 169.242C107.023 168.942 107.191 168.528 107.383 168L103.333 158.46H105.493L108.409 165.84L111.037 158.46H113.053L109.363 168C109.015 168.888 108.685 169.614 108.373 170.178C108.061 170.742 107.707 171.15 107.311 171.402C106.915 171.666 106.399 171.798 105.763 171.798ZM113.949 168.198C113.853 168.198 113.745 168.192 113.625 168.18C113.517 168.18 113.415 168.168 113.319 168.144V166.272C113.355 166.284 113.445 166.29 113.589 166.29C113.925 166.29 114.195 166.146 114.399 165.858C114.615 165.57 114.771 165.072 114.867 164.364C114.975 163.644 115.029 162.636 115.029 161.34V158.46H122.229V168H120.249V160.152H116.937V161.7C116.937 162.972 116.871 164.034 116.739 164.886C116.619 165.726 116.433 166.386 116.181 166.866C115.929 167.346 115.617 167.688 115.245 167.892C114.873 168.096 114.441 168.198 113.949 168.198ZM124.926 168V158.46H126.906V161.808H129.066C130.29 161.808 131.196 162.072 131.784 162.6C132.372 163.116 132.666 163.884 132.666 164.904C132.666 165.54 132.54 166.092 132.288 166.56C132.036 167.028 131.646 167.388 131.118 167.64C130.59 167.88 129.906 168 129.066 168H124.926ZM126.906 166.308H128.886C129.546 166.308 130.008 166.194 130.272 165.966C130.548 165.726 130.686 165.372 130.686 164.904C130.686 164.436 130.548 164.088 130.272 163.86C130.008 163.62 129.546 163.5 128.886 163.5H126.906V166.308ZM135.996 168V160.152H132.846V158.46H141.126V160.152H137.976V168H135.996ZM144.991 168.198C144.307 168.198 143.719 168.072 143.227 167.82C142.747 167.556 142.381 167.196 142.129 166.74C141.877 166.284 141.751 165.774 141.751 165.21C141.751 164.262 142.033 163.56 142.597 163.104C143.161 162.636 143.989 162.402 145.081 162.402H148.051V161.88C148.051 161.16 147.889 160.668 147.565 160.404C147.253 160.128 146.755 159.99 146.071 159.99C145.459 159.99 145.009 160.086 144.721 160.278C144.433 160.47 144.265 160.734 144.217 161.07H142.291C142.327 160.518 142.501 160.032 142.813 159.612C143.125 159.192 143.563 158.862 144.127 158.622C144.703 158.382 145.381 158.262 146.161 158.262C146.941 158.262 147.619 158.382 148.195 158.622C148.783 158.862 149.233 159.24 149.545 159.756C149.869 160.26 150.031 160.932 150.031 161.772V165.57C150.031 166.074 150.037 166.518 150.049 166.902C150.061 167.274 150.091 167.64 150.139 168H148.339C148.303 167.724 148.273 167.49 148.249 167.298C148.237 167.106 148.231 166.866 148.231 166.578C148.003 167.022 147.607 167.406 147.043 167.73C146.491 168.042 145.807 168.198 144.991 168.198ZM145.531 166.47C145.987 166.47 146.401 166.392 146.773 166.236C147.157 166.08 147.463 165.846 147.691 165.534C147.931 165.222 148.051 164.844 148.051 164.4V163.878H145.441C144.937 163.878 144.529 163.986 144.217 164.202C143.917 164.418 143.767 164.736 143.767 165.156C143.767 165.552 143.905 165.87 144.181 166.11C144.469 166.35 144.919 166.47 145.531 166.47ZM154.541 168V160.152H151.391V158.46H159.671V160.152H156.521V168H154.541ZM165.255 168.198C164.379 168.198 163.587 168.018 162.879 167.658C162.171 167.286 161.607 166.74 161.187 166.02C160.779 165.288 160.575 164.388 160.575 163.32V162.96C160.575 161.952 160.779 161.1 161.187 160.404C161.607 159.696 162.171 159.162 162.879 158.802C163.587 158.442 164.379 158.262 165.255 158.262C166.143 158.262 166.935 158.442 167.631 158.802C168.339 159.162 168.897 159.696 169.305 160.404C169.725 161.1 169.935 161.952 169.935 162.96V163.32C169.935 164.388 169.725 165.288 169.305 166.02C168.897 166.74 168.339 167.286 167.631 167.658C166.935 168.018 166.143 168.198 165.255 168.198ZM165.255 166.47C165.711 166.47 166.143 166.362 166.551 166.146C166.959 165.93 167.289 165.594 167.541 165.138C167.793 164.67 167.919 164.064 167.919 163.32V162.96C167.919 162.276 167.793 161.718 167.541 161.286C167.289 160.842 166.959 160.518 166.551 160.314C166.143 160.098 165.711 159.99 165.255 159.99C164.799 159.99 164.367 160.098 163.959 160.314C163.551 160.518 163.221 160.842 162.969 161.286C162.717 161.718 162.591 162.276 162.591 162.96V163.32C162.591 164.064 162.717 164.67 162.969 165.138C163.221 165.594 163.551 165.93 163.959 166.146C164.367 166.362 164.799 166.47 165.255 166.47ZM171.908 168V158.46H176.408C177.212 158.46 177.86 158.574 178.352 158.802C178.856 159.018 179.228 159.324 179.468 159.72C179.708 160.104 179.828 160.548 179.828 161.052C179.828 161.472 179.702 161.88 179.45 162.276C179.198 162.66 178.844 162.918 178.388 163.05C178.976 163.194 179.42 163.47 179.72 163.878C180.032 164.274 180.188 164.742 180.188 165.282C180.188 166.11 179.912 166.77 179.36 167.262C178.808 167.754 177.944 168 176.768 168H171.908ZM173.888 166.308H176.498C177.146 166.308 177.59 166.206 177.83 166.002C178.082 165.786 178.208 165.486 178.208 165.102C178.208 164.718 178.082 164.43 177.83 164.238C177.59 164.034 177.146 163.932 176.498 163.932H173.888V166.308ZM173.888 162.384H176.228C176.828 162.384 177.248 162.288 177.488 162.096C177.728 161.892 177.848 161.616 177.848 161.268C177.848 160.92 177.728 160.65 177.488 160.458C177.248 160.254 176.828 160.152 176.228 160.152H173.888V162.384Z" fill="#313131"/>
<rect x="20" y="62" width="36" height="36" rx="18" fill="white"/>
<path d="M38.5 87.24C36.7533 87.24 35.4 86.72 34.44 85.68C33.48 84.6267 33 82.9333 33 80.6V80.2C33 78.4133 33.24 76.98 33.72 75.9C34.2133 74.8067 34.8867 74.0133 35.74 73.52C36.6067 73.0133 37.5933 72.76 38.7 72.76C39.5667 72.76 40.32 72.88 40.96 73.12C41.6133 73.36 42.14 73.74 42.54 74.26C42.94 74.7667 43.1933 75.44 43.3 76.28H40.5C40.3667 75.9467 40.14 75.7 39.82 75.54C39.5133 75.3667 39.1067 75.28 38.6 75.28C38.0667 75.28 37.6 75.3933 37.2 75.62C36.8133 75.8333 36.4933 76.2267 36.24 76.8C36 77.3733 35.8533 78.2133 35.8 79.32C36.1467 78.7733 36.6333 78.3933 37.26 78.18C37.9 77.9667 38.5467 77.86 39.2 77.86C40.1467 77.86 40.94 78.0333 41.58 78.38C42.2333 78.7267 42.7333 79.2267 43.08 79.88C43.4267 80.5333 43.6 81.3267 43.6 82.26V82.48C43.6 83.4267 43.38 84.26 42.94 84.98C42.5133 85.6867 41.9133 86.24 41.14 86.64C40.3667 87.04 39.4867 87.24 38.5 87.24ZM38.3 84.72C39.02 84.72 39.58 84.52 39.98 84.12C40.3933 83.7067 40.6 83.18 40.6 82.54V82.34C40.6 81.7 40.3933 81.18 39.98 80.78C39.58 80.38 39.02 80.18 38.3 80.18C37.58 80.18 37.0133 80.38 36.6 80.78C36.2 81.18 36 81.7 36 82.34V82.54C36 83.18 36.2 83.7067 36.6 84.12C37.0133 84.52 37.58 84.72 38.3 84.72Z" fill="#313131"/>
</svg>
