<svg width="335" height="300" viewBox="0 0 335 300" fill="none" xmlns="http://www.w3.org/2000/svg">
<rect x="20" y="62" width="36" height="36" rx="18" fill="white"/>
<path d="M34.42 87L39.14 75.48H32.4V73H42.18V75.18L37.6 87H34.42Z" fill="#313131"/>
<path d="M78.48 80.198C77.448 80.198 76.518 79.982 75.69 79.55C74.862 79.106 74.202 78.416 73.71 77.48C73.23 76.532 72.99 75.302 72.99 73.79V73.43C72.99 72.338 73.134 71.402 73.422 70.622C73.71 69.83 74.1 69.182 74.592 68.678C75.096 68.174 75.678 67.802 76.338 67.562C77.01 67.322 77.724 67.202 78.48 67.202C79.176 67.202 79.824 67.292 80.424 67.472C81.024 67.64 81.552 67.898 82.008 68.246C82.464 68.594 82.83 69.026 83.106 69.542C83.382 70.058 83.55 70.664 83.61 71.36H81.342C81.186 70.58 80.85 70.01 80.334 69.65C79.83 69.29 79.212 69.11 78.48 69.11C77.952 69.11 77.442 69.248 76.95 69.524C76.458 69.788 76.05 70.232 75.726 70.856C75.414 71.48 75.258 72.338 75.258 73.43V73.79C75.258 74.654 75.354 75.38 75.546 75.968C75.738 76.544 75.99 77 76.302 77.336C76.626 77.672 76.974 77.918 77.346 78.074C77.73 78.218 78.108 78.29 78.48 78.29C79.344 78.29 80.01 78.092 80.478 77.696C80.958 77.288 81.246 76.736 81.342 76.04H83.61C83.538 76.784 83.358 77.42 83.07 77.948C82.794 78.476 82.422 78.908 81.954 79.244C81.498 79.568 80.976 79.808 80.388 79.964C79.8 80.12 79.164 80.198 78.48 80.198ZM89.8277 80.198C88.9517 80.198 88.1597 80.018 87.4517 79.658C86.7437 79.286 86.1797 78.74 85.7597 78.02C85.3517 77.288 85.1477 76.388 85.1477 75.32V74.96C85.1477 73.952 85.3517 73.1 85.7597 72.404C86.1797 71.696 86.7437 71.162 87.4517 70.802C88.1597 70.442 88.9517 70.262 89.8277 70.262C90.7157 70.262 91.5077 70.442 92.2037 70.802C92.9117 71.162 93.4697 71.696 93.8777 72.404C94.2977 73.1 94.5077 73.952 94.5077 74.96V75.32C94.5077 76.388 94.2977 77.288 93.8777 78.02C93.4697 78.74 92.9117 79.286 92.2037 79.658C91.5077 80.018 90.7157 80.198 89.8277 80.198ZM89.8277 78.47C90.2837 78.47 90.7157 78.362 91.1237 78.146C91.5317 77.93 91.8617 77.594 92.1137 77.138C92.3657 76.67 92.4917 76.064 92.4917 75.32V74.96C92.4917 74.276 92.3657 73.718 92.1137 73.286C91.8617 72.842 91.5317 72.518 91.1237 72.314C90.7157 72.098 90.2837 71.99 89.8277 71.99C89.3717 71.99 88.9397 72.098 88.5317 72.314C88.1237 72.518 87.7937 72.842 87.5417 73.286C87.2897 73.718 87.1637 74.276 87.1637 74.96V75.32C87.1637 76.064 87.2897 76.67 87.5417 77.138C87.7937 77.594 88.1237 77.93 88.5317 78.146C88.9397 78.362 89.3717 78.47 89.8277 78.47ZM99.9907 80.198C99.1267 80.198 98.3947 80.078 97.7947 79.838C97.1947 79.598 96.7327 79.25 96.4087 78.794C96.0847 78.326 95.8987 77.768 95.8507 77.12H97.8667C97.9147 77.408 98.0107 77.654 98.1547 77.858C98.3107 78.062 98.5327 78.218 98.8207 78.326C99.1207 78.422 99.4987 78.47 99.9547 78.47C100.771 78.47 101.335 78.338 101.647 78.074C101.959 77.81 102.115 77.48 102.115 77.084C102.115 76.724 101.977 76.442 101.701 76.238C101.437 76.022 100.969 75.914 100.297 75.914H98.7307V74.366H100.171C100.723 74.366 101.125 74.252 101.377 74.024C101.629 73.796 101.755 73.508 101.755 73.16C101.755 72.848 101.623 72.578 101.359 72.35C101.095 72.11 100.639 71.99 99.9907 71.99C99.2947 71.99 98.8087 72.104 98.5327 72.332C98.2687 72.56 98.1067 72.866 98.0467 73.25H96.0307C96.0787 72.638 96.2587 72.11 96.5707 71.666C96.8827 71.222 97.3267 70.88 97.9027 70.64C98.4787 70.388 99.1747 70.262 99.9907 70.262C101.299 70.262 102.253 70.52 102.853 71.036C103.465 71.552 103.771 72.224 103.771 73.052C103.771 73.508 103.657 73.91 103.429 74.258C103.213 74.606 102.853 74.87 102.349 75.05C103.021 75.218 103.483 75.5 103.735 75.896C103.999 76.292 104.131 76.748 104.131 77.264C104.131 77.816 103.981 78.314 103.681 78.758C103.381 79.202 102.925 79.556 102.313 79.82C101.701 80.072 100.927 80.198 99.9907 80.198ZM105.214 82.25V78.308H106.294C106.462 78.056 106.606 77.666 106.726 77.138C106.846 76.598 106.936 75.98 106.996 75.284C107.068 74.588 107.104 73.88 107.104 73.16V70.46H114.214V78.308H115.474V82.25H113.638V80H107.05V82.25H105.214ZM108.31 78.308H112.234V72.152H109.012V73.52C109.012 74.444 108.958 75.332 108.85 76.184C108.742 77.024 108.562 77.732 108.31 78.308ZM120.154 80.198C119.47 80.198 118.882 80.072 118.39 79.82C117.91 79.556 117.544 79.196 117.292 78.74C117.04 78.284 116.914 77.774 116.914 77.21C116.914 76.262 117.196 75.56 117.76 75.104C118.324 74.636 119.152 74.402 120.244 74.402H123.214V73.88C123.214 73.16 123.052 72.668 122.728 72.404C122.416 72.128 121.918 71.99 121.234 71.99C120.622 71.99 120.172 72.086 119.884 72.278C119.596 72.47 119.428 72.734 119.38 73.07H117.454C117.49 72.518 117.664 72.032 117.976 71.612C118.288 71.192 118.726 70.862 119.29 70.622C119.866 70.382 120.544 70.262 121.324 70.262C122.104 70.262 122.782 70.382 123.358 70.622C123.946 70.862 124.396 71.24 124.708 71.756C125.032 72.26 125.194 72.932 125.194 73.772V77.57C125.194 78.074 125.2 78.518 125.212 78.902C125.224 79.274 125.254 79.64 125.302 80H123.502C123.466 79.724 123.436 79.49 123.412 79.298C123.4 79.106 123.394 78.866 123.394 78.578C123.166 79.022 122.77 79.406 122.206 79.73C121.654 80.042 120.97 80.198 120.154 80.198ZM120.694 78.47C121.15 78.47 121.564 78.392 121.936 78.236C122.32 78.08 122.626 77.846 122.854 77.534C123.094 77.222 123.214 76.844 123.214 76.4V75.878H120.604C120.1 75.878 119.692 75.986 119.38 76.202C119.08 76.418 118.93 76.736 118.93 77.156C118.93 77.552 119.068 77.87 119.344 78.11C119.632 78.35 120.082 78.47 120.694 78.47ZM127.629 80V70.46H129.609V74.294H134.109V70.46H136.089V80H134.109V75.986H129.609V80H127.629ZM138.615 80V70.46H140.595V77.21L145.185 70.46H147.075V80H145.095V73.25L140.505 80H138.615ZM153.742 80.198C152.902 80.198 152.128 80.024 151.42 79.676C150.712 79.316 150.142 78.776 149.71 78.056C149.278 77.336 149.062 76.424 149.062 75.32V74.96C149.062 73.904 149.266 73.028 149.674 72.332C150.094 71.636 150.646 71.12 151.33 70.784C152.014 70.436 152.758 70.262 153.562 70.262C155.014 70.262 156.124 70.652 156.892 71.432C157.672 72.212 158.062 73.328 158.062 74.78V75.788H151.078C151.102 76.436 151.24 76.958 151.492 77.354C151.744 77.75 152.068 78.038 152.464 78.218C152.86 78.386 153.286 78.47 153.742 78.47C154.426 78.47 154.924 78.362 155.236 78.146C155.56 77.93 155.782 77.648 155.902 77.3H157.882C157.69 78.248 157.216 78.968 156.46 79.46C155.716 79.952 154.81 80.198 153.742 80.198ZM153.652 71.99C153.208 71.99 152.794 72.068 152.41 72.224C152.026 72.38 151.714 72.626 151.474 72.962C151.234 73.298 151.102 73.748 151.078 74.312H156.082C156.07 73.712 155.956 73.244 155.74 72.908C155.524 72.572 155.236 72.338 154.876 72.206C154.516 72.062 154.108 71.99 153.652 71.99ZM167.333 80.198C166.649 80.198 166.061 80.072 165.569 79.82C165.089 79.556 164.723 79.196 164.471 78.74C164.219 78.284 164.093 77.774 164.093 77.21C164.093 76.262 164.375 75.56 164.939 75.104C165.503 74.636 166.331 74.402 167.423 74.402H170.393V73.88C170.393 73.16 170.231 72.668 169.907 72.404C169.595 72.128 169.097 71.99 168.413 71.99C167.801 71.99 167.351 72.086 167.063 72.278C166.775 72.47 166.607 72.734 166.559 73.07H164.633C164.669 72.518 164.843 72.032 165.155 71.612C165.467 71.192 165.905 70.862 166.469 70.622C167.045 70.382 167.723 70.262 168.503 70.262C169.283 70.262 169.961 70.382 170.537 70.622C171.125 70.862 171.575 71.24 171.887 71.756C172.211 72.26 172.373 72.932 172.373 73.772V77.57C172.373 78.074 172.379 78.518 172.391 78.902C172.403 79.274 172.433 79.64 172.481 80H170.681C170.645 79.724 170.615 79.49 170.591 79.298C170.579 79.106 170.573 78.866 170.573 78.578C170.345 79.022 169.949 79.406 169.385 79.73C168.833 80.042 168.149 80.198 167.333 80.198ZM167.873 78.47C168.329 78.47 168.743 78.392 169.115 78.236C169.499 78.08 169.805 77.846 170.033 77.534C170.273 77.222 170.393 76.844 170.393 76.4V75.878H167.783C167.279 75.878 166.871 75.986 166.559 76.202C166.259 76.418 166.109 76.736 166.109 77.156C166.109 77.552 166.247 77.87 166.523 78.11C166.811 78.35 167.261 78.47 167.873 78.47ZM178.319 80.198C177.575 80.198 176.915 80.066 176.339 79.802C175.763 79.538 175.289 79.166 174.917 78.686C174.545 78.194 174.299 77.612 174.179 76.94H176.195C176.351 77.456 176.603 77.84 176.951 78.092C177.311 78.344 177.767 78.47 178.319 78.47C178.967 78.47 179.513 78.278 179.957 77.894C180.401 77.51 180.671 76.868 180.767 75.968H177.239V74.312H180.767C180.671 73.508 180.395 72.92 179.939 72.548C179.483 72.176 178.943 71.99 178.319 71.99C177.647 71.99 177.155 72.134 176.843 72.422C176.531 72.71 176.315 73.076 176.195 73.52H174.179C174.275 72.908 174.485 72.356 174.809 71.864C175.145 71.372 175.601 70.982 176.177 70.694C176.765 70.406 177.479 70.262 178.319 70.262C179.159 70.262 179.915 70.442 180.587 70.802C181.271 71.15 181.811 71.672 182.207 72.368C182.615 73.064 182.819 73.928 182.819 74.96V75.32C182.819 76.412 182.627 77.318 182.243 78.038C181.859 78.758 181.331 79.298 180.659 79.658C179.987 80.018 179.207 80.198 178.319 80.198ZM184.793 83.6V70.46H186.629V72.062C186.917 71.51 187.343 71.072 187.907 70.748C188.483 70.424 189.131 70.262 189.851 70.262C191.099 70.262 192.083 70.652 192.803 71.432C193.523 72.212 193.883 73.388 193.883 74.96V75.32C193.883 76.4 193.715 77.306 193.379 78.038C193.043 78.758 192.575 79.298 191.975 79.658C191.375 80.018 190.667 80.198 189.851 80.198C189.167 80.198 188.543 80.048 187.979 79.748C187.415 79.448 187.013 79.028 186.773 78.488V83.6H184.793ZM189.383 78.47C190.127 78.47 190.727 78.212 191.183 77.696C191.639 77.18 191.867 76.388 191.867 75.32V74.96C191.867 73.952 191.645 73.208 191.201 72.728C190.757 72.236 190.151 71.99 189.383 71.99C188.939 71.99 188.513 72.086 188.105 72.278C187.709 72.47 187.385 72.752 187.133 73.124C186.893 73.496 186.773 73.958 186.773 74.51V75.77C186.773 76.37 186.893 76.874 187.133 77.282C187.385 77.678 187.709 77.978 188.105 78.182C188.501 78.374 188.927 78.47 189.383 78.47ZM200.007 80.198C199.131 80.198 198.339 80.018 197.631 79.658C196.923 79.286 196.359 78.74 195.939 78.02C195.531 77.288 195.327 76.388 195.327 75.32V74.96C195.327 73.952 195.531 73.1 195.939 72.404C196.359 71.696 196.923 71.162 197.631 70.802C198.339 70.442 199.131 70.262 200.007 70.262C200.895 70.262 201.687 70.442 202.383 70.802C203.091 71.162 203.649 71.696 204.057 72.404C204.477 73.1 204.687 73.952 204.687 74.96V75.32C204.687 76.388 204.477 77.288 204.057 78.02C203.649 78.74 203.091 79.286 202.383 79.658C201.687 80.018 200.895 80.198 200.007 80.198ZM200.007 78.47C200.463 78.47 200.895 78.362 201.303 78.146C201.711 77.93 202.041 77.594 202.293 77.138C202.545 76.67 202.671 76.064 202.671 75.32V74.96C202.671 74.276 202.545 73.718 202.293 73.286C202.041 72.842 201.711 72.518 201.303 72.314C200.895 72.098 200.463 71.99 200.007 71.99C199.551 71.99 199.119 72.098 198.711 72.314C198.303 72.518 197.973 72.842 197.721 73.286C197.469 73.718 197.343 74.276 197.343 74.96V75.32C197.343 76.064 197.469 76.67 197.721 77.138C197.973 77.594 198.303 77.93 198.711 78.146C199.119 78.362 199.551 78.47 200.007 78.47ZM206.66 80V70.46H214.94V80H212.96V72.152H208.64V80H206.66ZM221.593 80.198C220.717 80.198 219.925 80.018 219.217 79.658C218.509 79.286 217.945 78.74 217.525 78.02C217.117 77.288 216.913 76.388 216.913 75.32V74.96C216.913 73.952 217.117 73.1 217.525 72.404C217.945 71.696 218.509 71.162 219.217 70.802C219.925 70.442 220.717 70.262 221.593 70.262C222.481 70.262 223.273 70.442 223.969 70.802C224.677 71.162 225.235 71.696 225.643 72.404C226.063 73.1 226.273 73.952 226.273 74.96V75.32C226.273 76.388 226.063 77.288 225.643 78.02C225.235 78.74 224.677 79.286 223.969 79.658C223.273 80.018 222.481 80.198 221.593 80.198ZM221.593 78.47C222.049 78.47 222.481 78.362 222.889 78.146C223.297 77.93 223.627 77.594 223.879 77.138C224.131 76.67 224.257 76.064 224.257 75.32V74.96C224.257 74.276 224.131 73.718 223.879 73.286C223.627 72.842 223.297 72.518 222.889 72.314C222.481 72.098 222.049 71.99 221.593 71.99C221.137 71.99 220.705 72.098 220.297 72.314C219.889 72.518 219.559 72.842 219.307 73.286C219.055 73.718 218.929 74.276 218.929 74.96V75.32C218.929 76.064 219.055 76.67 219.307 77.138C219.559 77.594 219.889 77.93 220.297 78.146C220.705 78.362 221.137 78.47 221.593 78.47ZM228.246 83.6V70.46H230.082V72.062C230.37 71.51 230.796 71.072 231.36 70.748C231.936 70.424 232.584 70.262 233.304 70.262C234.552 70.262 235.536 70.652 236.256 71.432C236.976 72.212 237.336 73.388 237.336 74.96V75.32C237.336 76.4 237.168 77.306 236.832 78.038C236.496 78.758 236.028 79.298 235.428 79.658C234.828 80.018 234.12 80.198 233.304 80.198C232.62 80.198 231.996 80.048 231.432 79.748C230.868 79.448 230.466 79.028 230.226 78.488V83.6H228.246ZM232.836 78.47C233.58 78.47 234.18 78.212 234.636 77.696C235.092 77.18 235.32 76.388 235.32 75.32V74.96C235.32 73.952 235.098 73.208 234.654 72.728C234.21 72.236 233.604 71.99 232.836 71.99C232.392 71.99 231.966 72.086 231.558 72.278C231.162 72.47 230.838 72.752 230.586 73.124C230.346 73.496 230.226 73.958 230.226 74.51V75.77C230.226 76.37 230.346 76.874 230.586 77.282C230.838 77.678 231.162 77.978 231.558 78.182C231.954 78.374 232.38 78.47 232.836 78.47ZM241.395 80V72.152H238.245V70.46H246.525V72.152H243.375V80H241.395ZM250.39 80.198C249.706 80.198 249.118 80.072 248.626 79.82C248.146 79.556 247.78 79.196 247.528 78.74C247.276 78.284 247.15 77.774 247.15 77.21C247.15 76.262 247.432 75.56 247.996 75.104C248.56 74.636 249.388 74.402 250.48 74.402H253.45V73.88C253.45 73.16 253.288 72.668 252.964 72.404C252.652 72.128 252.154 71.99 251.47 71.99C250.858 71.99 250.408 72.086 250.12 72.278C249.832 72.47 249.664 72.734 249.616 73.07H247.69C247.726 72.518 247.9 72.032 248.212 71.612C248.524 71.192 248.962 70.862 249.526 70.622C250.102 70.382 250.78 70.262 251.56 70.262C252.34 70.262 253.018 70.382 253.594 70.622C254.182 70.862 254.632 71.24 254.944 71.756C255.268 72.26 255.43 72.932 255.43 73.772V77.57C255.43 78.074 255.436 78.518 255.448 78.902C255.46 79.274 255.49 79.64 255.538 80H253.738C253.702 79.724 253.672 79.49 253.648 79.298C253.636 79.106 253.63 78.866 253.63 78.578C253.402 79.022 253.006 79.406 252.442 79.73C251.89 80.042 251.206 80.198 250.39 80.198ZM250.93 78.47C251.386 78.47 251.8 78.392 252.172 78.236C252.556 78.08 252.862 77.846 253.09 77.534C253.33 77.222 253.45 76.844 253.45 76.4V75.878H250.84C250.336 75.878 249.928 75.986 249.616 76.202C249.316 76.418 249.166 76.736 249.166 77.156C249.166 77.552 249.304 77.87 249.58 78.11C249.868 78.35 250.318 78.47 250.93 78.47ZM76.59 101.28L72.63 97.878V96.222L76.59 92.82V94.98L74.16 97.014L76.59 99.048V101.28ZM80.82 101.28L76.86 97.878V96.222L80.82 92.82V94.98L78.39 97.014L80.82 99.048V101.28ZM83.4286 102V89.4H91.9786V91.272H85.5886V94.152H88.1986C89.8906 94.152 91.1386 94.512 91.9426 95.232C92.7466 95.94 93.1486 96.888 93.1486 98.076C93.1486 99.264 92.7466 100.218 91.9426 100.938C91.1386 101.646 89.8906 102 88.1986 102H83.4286ZM85.5886 100.128H88.0186C89.1586 100.128 89.9386 99.954 90.3586 99.606C90.7786 99.258 90.9886 98.742 90.9886 98.058C90.9886 97.386 90.7786 96.882 90.3586 96.546C89.9386 96.198 89.1586 96.024 88.0186 96.024H85.5886V100.128ZM99.2672 102.198C98.3912 102.198 97.5992 102.018 96.8912 101.658C96.1832 101.286 95.6192 100.74 95.1992 100.02C94.7912 99.288 94.5872 98.388 94.5872 97.32V96.96C94.5872 95.952 94.7912 95.1 95.1992 94.404C95.6192 93.696 96.1832 93.162 96.8912 92.802C97.5992 92.442 98.3912 92.262 99.2672 92.262C100.155 92.262 100.947 92.442 101.643 92.802C102.351 93.162 102.909 93.696 103.317 94.404C103.737 95.1 103.947 95.952 103.947 96.96V97.32C103.947 98.388 103.737 99.288 103.317 100.02C102.909 100.74 102.351 101.286 101.643 101.658C100.947 102.018 100.155 102.198 99.2672 102.198ZM99.2672 100.47C99.7232 100.47 100.155 100.362 100.563 100.146C100.971 99.93 101.301 99.594 101.553 99.138C101.805 98.67 101.931 98.064 101.931 97.32V96.96C101.931 96.276 101.805 95.718 101.553 95.286C101.301 94.842 100.971 94.518 100.563 94.314C100.155 94.098 99.7232 93.99 99.2672 93.99C98.8112 93.99 98.3792 94.098 97.9712 94.314C97.5632 94.518 97.2332 94.842 96.9812 95.286C96.7292 95.718 96.6032 96.276 96.6032 96.96V97.32C96.6032 98.064 96.7292 98.67 96.9812 99.138C97.2332 99.594 97.5632 99.93 97.9712 100.146C98.3792 100.362 98.8112 100.47 99.2672 100.47ZM105.564 102.198C105.468 102.198 105.36 102.192 105.24 102.18C105.132 102.18 105.03 102.168 104.934 102.144V100.272C104.97 100.284 105.06 100.29 105.204 100.29C105.54 100.29 105.81 100.146 106.014 99.858C106.23 99.57 106.386 99.072 106.482 98.364C106.59 97.644 106.644 96.636 106.644 95.34V92.46H113.844V102H111.864V94.152H108.552V95.7C108.552 96.972 108.486 98.034 108.354 98.886C108.234 99.726 108.048 100.386 107.796 100.866C107.544 101.346 107.232 101.688 106.86 101.892C106.488 102.096 106.056 102.198 105.564 102.198ZM116.542 102V92.46H118.522V95.808H120.682C121.906 95.808 122.812 96.072 123.4 96.6C123.988 97.116 124.282 97.884 124.282 98.904C124.282 99.54 124.156 100.092 123.904 100.56C123.652 101.028 123.262 101.388 122.734 101.64C122.206 101.88 121.522 102 120.682 102H116.542ZM118.522 100.308H120.502C121.162 100.308 121.624 100.194 121.888 99.966C122.164 99.726 122.302 99.372 122.302 98.904C122.302 98.436 122.164 98.088 121.888 97.86C121.624 97.62 121.162 97.5 120.502 97.5H118.522V100.308ZM126.082 102V92.46H128.062V100.308H131.212V92.46H133.192V100.308H136.342V92.46H138.322V102H126.082ZM140.848 102V92.46H142.828V99.21L147.418 92.46H149.308V102H147.328V95.25L142.738 102H140.848ZM155.974 102.198C155.134 102.198 154.36 102.024 153.652 101.676C152.944 101.316 152.374 100.776 151.942 100.056C151.51 99.336 151.294 98.424 151.294 97.32V96.96C151.294 95.904 151.498 95.028 151.906 94.332C152.326 93.636 152.878 93.12 153.562 92.784C154.246 92.436 154.99 92.262 155.794 92.262C157.246 92.262 158.356 92.652 159.124 93.432C159.904 94.212 160.294 95.328 160.294 96.78V97.788H153.31C153.334 98.436 153.472 98.958 153.724 99.354C153.976 99.75 154.3 100.038 154.696 100.218C155.092 100.386 155.518 100.47 155.974 100.47C156.658 100.47 157.156 100.362 157.468 100.146C157.792 99.93 158.014 99.648 158.134 99.3H160.114C159.922 100.248 159.448 100.968 158.692 101.46C157.948 101.952 157.042 102.198 155.974 102.198ZM155.884 93.99C155.44 93.99 155.026 94.068 154.642 94.224C154.258 94.38 153.946 94.626 153.706 94.962C153.466 95.298 153.334 95.748 153.31 96.312H158.314C158.302 95.712 158.188 95.244 157.972 94.908C157.756 94.572 157.468 94.338 157.108 94.206C156.748 94.062 156.34 93.99 155.884 93.99ZM167.136 102V89.4H172.176C173.604 89.4 174.648 89.706 175.308 90.318C175.98 90.93 176.316 91.746 176.316 92.766C176.316 93.414 176.148 93.972 175.812 94.44C175.476 94.896 175.014 95.226 174.426 95.43C175.17 95.598 175.758 95.94 176.19 96.456C176.634 96.96 176.856 97.62 176.856 98.436C176.856 99.132 176.706 99.75 176.406 100.29C176.106 100.83 175.632 101.25 174.984 101.55C174.336 101.85 173.496 102 172.464 102H167.136ZM169.296 100.128H172.23C173.166 100.128 173.808 99.978 174.156 99.678C174.516 99.378 174.696 98.916 174.696 98.292C174.696 97.68 174.516 97.212 174.156 96.888C173.796 96.552 173.148 96.384 172.212 96.384H169.296V100.128ZM169.296 94.656H171.906C172.746 94.656 173.328 94.5 173.652 94.188C173.988 93.876 174.156 93.456 174.156 92.928C174.156 92.388 173.994 91.98 173.67 91.704C173.346 91.416 172.758 91.272 171.906 91.272H169.296V94.656ZM181.712 102.198C181.028 102.198 180.44 102.072 179.948 101.82C179.468 101.556 179.102 101.196 178.85 100.74C178.598 100.284 178.472 99.774 178.472 99.21C178.472 98.262 178.754 97.56 179.318 97.104C179.882 96.636 180.71 96.402 181.802 96.402H184.772V95.88C184.772 95.16 184.61 94.668 184.286 94.404C183.974 94.128 183.476 93.99 182.792 93.99C182.18 93.99 181.73 94.086 181.442 94.278C181.154 94.47 180.986 94.734 180.938 95.07H179.012C179.048 94.518 179.222 94.032 179.534 93.612C179.846 93.192 180.284 92.862 180.848 92.622C181.424 92.382 182.102 92.262 182.882 92.262C183.662 92.262 184.34 92.382 184.916 92.622C185.504 92.862 185.954 93.24 186.266 93.756C186.59 94.26 186.752 94.932 186.752 95.772V99.57C186.752 100.074 186.758 100.518 186.77 100.902C186.782 101.274 186.812 101.64 186.86 102H185.06C185.024 101.724 184.994 101.49 184.97 101.298C184.958 101.106 184.952 100.866 184.952 100.578C184.724 101.022 184.328 101.406 183.764 101.73C183.212 102.042 182.528 102.198 181.712 102.198ZM182.252 100.47C182.708 100.47 183.122 100.392 183.494 100.236C183.878 100.08 184.184 99.846 184.412 99.534C184.652 99.222 184.772 98.844 184.772 98.4V97.878H182.162C181.658 97.878 181.25 97.986 180.938 98.202C180.638 98.418 180.488 98.736 180.488 99.156C180.488 99.552 180.626 99.87 180.902 100.11C181.19 100.35 181.64 100.47 182.252 100.47ZM193.148 102.198C192.296 102.198 191.528 102.018 190.844 101.658C190.16 101.298 189.62 100.758 189.224 100.038C188.84 99.318 188.648 98.412 188.648 97.32V96.96C188.648 95.928 188.852 95.064 189.26 94.368C189.68 93.672 190.232 93.15 190.916 92.802C191.6 92.442 192.344 92.262 193.148 92.262C193.988 92.262 194.696 92.406 195.272 92.694C195.86 92.982 196.316 93.372 196.64 93.864C196.976 94.356 197.192 94.908 197.288 95.52H195.272C195.152 95.076 194.936 94.71 194.624 94.422C194.312 94.134 193.82 93.99 193.148 93.99C192.704 93.99 192.29 94.092 191.906 94.296C191.534 94.5 191.234 94.824 191.006 95.268C190.778 95.7 190.664 96.264 190.664 96.96V97.32C190.664 98.076 190.778 98.688 191.006 99.156C191.234 99.612 191.534 99.948 191.906 100.164C192.29 100.368 192.704 100.47 193.148 100.47C193.712 100.47 194.168 100.344 194.516 100.092C194.864 99.84 195.116 99.456 195.272 98.94H197.288C197.168 99.612 196.916 100.194 196.532 100.686C196.16 101.166 195.686 101.538 195.11 101.802C194.534 102.066 193.88 102.198 193.148 102.198ZM199.172 102V92.46H201.152V96.294H202.214C202.298 95.43 202.538 94.698 202.934 94.098C203.342 93.498 203.864 93.042 204.5 92.73C205.148 92.418 205.862 92.262 206.642 92.262C207.494 92.262 208.256 92.442 208.928 92.802C209.612 93.162 210.152 93.696 210.548 94.404C210.944 95.1 211.142 95.952 211.142 96.96V97.32C211.142 98.388 210.944 99.288 210.548 100.02C210.152 100.74 209.612 101.286 208.928 101.658C208.256 102.018 207.494 102.198 206.642 102.198C205.85 102.198 205.13 102.042 204.482 101.73C203.846 101.406 203.33 100.932 202.934 100.308C202.538 99.684 202.298 98.91 202.214 97.986H201.152V102H199.172ZM206.642 100.47C207.074 100.47 207.476 100.362 207.848 100.146C208.232 99.93 208.538 99.594 208.766 99.138C209.006 98.67 209.126 98.064 209.126 97.32V96.96C209.126 96.276 209.006 95.718 208.766 95.286C208.538 94.842 208.232 94.518 207.848 94.314C207.476 94.098 207.074 93.99 206.642 93.99C206.21 93.99 205.802 94.098 205.418 94.314C205.046 94.518 204.74 94.842 204.5 95.286C204.272 95.718 204.158 96.276 204.158 96.96V97.32C204.158 98.064 204.272 98.67 204.5 99.138C204.74 99.594 205.046 99.93 205.418 100.146C205.802 100.362 206.21 100.47 206.642 100.47ZM213.129 102V92.46H215.109V96.33H216.189L219.537 92.46H221.769L217.719 97.014L221.949 102H219.537L216.189 97.95H215.109V102H213.129ZM223.571 102V92.46H225.551V99.21L230.141 92.46H232.031V102H230.051V95.25L225.461 102H223.571ZM234.287 92.82L238.247 96.222V97.878L234.287 101.28V99.12L236.717 97.086L234.287 95.052V92.82ZM238.517 92.82L242.477 96.222V97.878L238.517 101.28V99.12L240.947 97.086L238.517 95.052V92.82ZM77.22 124.198C76.368 124.198 75.6 124.018 74.916 123.658C74.232 123.298 73.692 122.758 73.296 122.038C72.912 121.318 72.72 120.412 72.72 119.32V118.96C72.72 117.928 72.924 117.064 73.332 116.368C73.752 115.672 74.304 115.15 74.988 114.802C75.672 114.442 76.416 114.262 77.22 114.262C78.06 114.262 78.768 114.406 79.344 114.694C79.932 114.982 80.388 115.372 80.712 115.864C81.048 116.356 81.264 116.908 81.36 117.52H79.344C79.224 117.076 79.008 116.71 78.696 116.422C78.384 116.134 77.892 115.99 77.22 115.99C76.776 115.99 76.362 116.092 75.978 116.296C75.606 116.5 75.306 116.824 75.078 117.268C74.85 117.7 74.736 118.264 74.736 118.96V119.32C74.736 120.076 74.85 120.688 75.078 121.156C75.306 121.612 75.606 121.948 75.978 122.164C76.362 122.368 76.776 122.47 77.22 122.47C77.784 122.47 78.24 122.344 78.588 122.092C78.936 121.84 79.188 121.456 79.344 120.94H81.36C81.24 121.612 80.988 122.194 80.604 122.686C80.232 123.166 79.758 123.538 79.182 123.802C78.606 124.066 77.952 124.198 77.22 124.198ZM87.7444 127.6V114.46H89.5804V116.062C89.8684 115.51 90.2944 115.072 90.8584 114.748C91.4344 114.424 92.0824 114.262 92.8024 114.262C94.0504 114.262 95.0344 114.652 95.7544 115.432C96.4744 116.212 96.8344 117.388 96.8344 118.96V119.32C96.8344 120.4 96.6664 121.306 96.3304 122.038C95.9944 122.758 95.5264 123.298 94.9264 123.658C94.3264 124.018 93.6184 124.198 92.8024 124.198C92.1184 124.198 91.4944 124.048 90.9304 123.748C90.3664 123.448 89.9644 123.028 89.7244 122.488V127.6H87.7444ZM92.3344 122.47C93.0784 122.47 93.6784 122.212 94.1344 121.696C94.5904 121.18 94.8184 120.388 94.8184 119.32V118.96C94.8184 117.952 94.5964 117.208 94.1524 116.728C93.7084 116.236 93.1024 115.99 92.3344 115.99C91.8904 115.99 91.4644 116.086 91.0564 116.278C90.6604 116.47 90.3364 116.752 90.0844 117.124C89.8444 117.496 89.7244 117.958 89.7244 118.51V119.77C89.7244 120.37 89.8444 120.874 90.0844 121.282C90.3364 121.678 90.6604 121.978 91.0564 122.182C91.4524 122.374 91.8784 122.47 92.3344 122.47ZM102.959 124.198C102.119 124.198 101.345 124.024 100.637 123.676C99.9286 123.316 99.3586 122.776 98.9266 122.056C98.4946 121.336 98.2786 120.424 98.2786 119.32V118.96C98.2786 117.904 98.4826 117.028 98.8906 116.332C99.3106 115.636 99.8626 115.12 100.547 114.784C101.231 114.436 101.975 114.262 102.779 114.262C104.231 114.262 105.341 114.652 106.109 115.432C106.889 116.212 107.279 117.328 107.279 118.78V119.788H100.295C100.319 120.436 100.457 120.958 100.709 121.354C100.961 121.75 101.285 122.038 101.681 122.218C102.077 122.386 102.503 122.47 102.959 122.47C103.643 122.47 104.141 122.362 104.453 122.146C104.777 121.93 104.999 121.648 105.119 121.3H107.099C106.907 122.248 106.433 122.968 105.677 123.46C104.933 123.952 104.027 124.198 102.959 124.198ZM102.869 115.99C102.425 115.99 102.011 116.068 101.627 116.224C101.243 116.38 100.931 116.626 100.691 116.962C100.451 117.298 100.319 117.748 100.295 118.312H105.299C105.287 117.712 105.173 117.244 104.957 116.908C104.741 116.572 104.453 116.338 104.093 116.206C103.733 116.062 103.325 115.99 102.869 115.99ZM109.26 124V114.46H115.92V116.152H111.24V124H109.26ZM119.421 127.798C119.241 127.798 119.061 127.78 118.881 127.744V126.016C119.061 126.052 119.241 126.07 119.421 126.07C119.685 126.07 119.901 126.004 120.069 125.872C120.237 125.752 120.393 125.542 120.537 125.242C120.681 124.942 120.849 124.528 121.041 124L116.991 114.46H119.151L122.067 121.84L124.695 114.46H126.711L123.021 124C122.673 124.888 122.343 125.614 122.031 126.178C121.719 126.742 121.365 127.15 120.969 127.402C120.573 127.666 120.057 127.798 119.421 127.798ZM127.607 124.198C127.511 124.198 127.403 124.192 127.283 124.18C127.175 124.18 127.073 124.168 126.977 124.144V122.272C127.013 122.284 127.103 122.29 127.247 122.29C127.583 122.29 127.853 122.146 128.057 121.858C128.273 121.57 128.429 121.072 128.525 120.364C128.633 119.644 128.687 118.636 128.687 117.34V114.46H135.887V124H133.907V116.152H130.595V117.7C130.595 118.972 130.529 120.034 130.397 120.886C130.277 121.726 130.091 122.386 129.839 122.866C129.587 123.346 129.275 123.688 128.903 123.892C128.531 124.096 128.099 124.198 127.607 124.198ZM137.775 124L140.259 120.382C139.539 120.166 139.005 119.812 138.657 119.32C138.309 118.828 138.135 118.234 138.135 117.538C138.135 116.914 138.273 116.374 138.549 115.918C138.825 115.45 139.245 115.09 139.809 114.838C140.373 114.586 141.075 114.46 141.915 114.46H146.235V124H144.255V120.616H142.203L140.079 124H137.775ZM140.151 117.538C140.151 118.042 140.301 118.402 140.601 118.618C140.901 118.822 141.309 118.924 141.825 118.924H144.255V116.152H141.825C141.309 116.152 140.901 116.26 140.601 116.476C140.301 116.68 140.151 117.034 140.151 117.538ZM148.758 127.6V114.46H150.594V116.062C150.882 115.51 151.308 115.072 151.872 114.748C152.448 114.424 153.096 114.262 153.816 114.262C155.064 114.262 156.048 114.652 156.768 115.432C157.488 116.212 157.848 117.388 157.848 118.96V119.32C157.848 120.4 157.68 121.306 157.344 122.038C157.008 122.758 156.54 123.298 155.94 123.658C155.34 124.018 154.632 124.198 153.816 124.198C153.132 124.198 152.508 124.048 151.944 123.748C151.38 123.448 150.978 123.028 150.738 122.488V127.6H148.758ZM153.348 122.47C154.092 122.47 154.692 122.212 155.148 121.696C155.604 121.18 155.832 120.388 155.832 119.32V118.96C155.832 117.952 155.61 117.208 155.166 116.728C154.722 116.236 154.116 115.99 153.348 115.99C152.904 115.99 152.478 116.086 152.07 116.278C151.674 116.47 151.35 116.752 151.098 117.124C150.858 117.496 150.738 117.958 150.738 118.51V119.77C150.738 120.37 150.858 120.874 151.098 121.282C151.35 121.678 151.674 121.978 152.07 122.182C152.466 122.374 152.892 122.47 153.348 122.47ZM159.832 124V114.46H161.812V118.294H166.312V114.46H168.292V124H166.312V119.986H161.812V124H159.832ZM170.819 124V114.46H172.799V117.808H174.599C175.823 117.808 176.729 118.072 177.317 118.6C177.905 119.116 178.199 119.884 178.199 120.904C178.199 121.54 178.073 122.092 177.821 122.56C177.569 123.028 177.179 123.388 176.651 123.64C176.123 123.88 175.439 124 174.599 124H170.819ZM172.799 122.308H174.419C175.079 122.308 175.541 122.194 175.805 121.966C176.081 121.726 176.219 121.372 176.219 120.904C176.219 120.436 176.081 120.088 175.805 119.86C175.541 119.62 175.079 119.5 174.419 119.5H172.799V122.308ZM179.459 124V114.46H181.439V124H179.459ZM184.143 124V114.46H186.375L189.417 120.04L192.459 114.46H194.583V124H192.603V117.43L190.083 122.02H188.643L186.123 117.43V124H184.143ZM77.4 146.198C76.524 146.198 75.732 146.018 75.024 145.658C74.316 145.286 73.752 144.74 73.332 144.02C72.924 143.288 72.72 142.388 72.72 141.32V140.96C72.72 139.952 72.924 139.1 73.332 138.404C73.752 137.696 74.316 137.162 75.024 136.802C75.732 136.442 76.524 136.262 77.4 136.262C78.288 136.262 79.08 136.442 79.776 136.802C80.484 137.162 81.042 137.696 81.45 138.404C81.87 139.1 82.08 139.952 82.08 140.96V141.32C82.08 142.388 81.87 143.288 81.45 144.02C81.042 144.74 80.484 145.286 79.776 145.658C79.08 146.018 78.288 146.198 77.4 146.198ZM77.4 144.47C77.856 144.47 78.288 144.362 78.696 144.146C79.104 143.93 79.434 143.594 79.686 143.138C79.938 142.67 80.064 142.064 80.064 141.32V140.96C80.064 140.276 79.938 139.718 79.686 139.286C79.434 138.842 79.104 138.518 78.696 138.314C78.288 138.098 77.856 137.99 77.4 137.99C76.944 137.99 76.512 138.098 76.104 138.314C75.696 138.518 75.366 138.842 75.114 139.286C74.862 139.718 74.736 140.276 74.736 140.96V141.32C74.736 142.064 74.862 142.67 75.114 143.138C75.366 143.594 75.696 143.93 76.104 144.146C76.512 144.362 76.944 144.47 77.4 144.47ZM86.1272 146V138.152H82.9772V136.46H91.2572V138.152H88.1072V146H86.1272ZM92.8772 146V136.46H101.157V146H99.1772V138.152H94.8572V146H92.8772ZM103.67 149.6V136.46H105.506V138.062C105.794 137.51 106.22 137.072 106.784 136.748C107.36 136.424 108.008 136.262 108.728 136.262C109.976 136.262 110.96 136.652 111.68 137.432C112.4 138.212 112.76 139.388 112.76 140.96V141.32C112.76 142.4 112.592 143.306 112.256 144.038C111.92 144.758 111.452 145.298 110.852 145.658C110.252 146.018 109.544 146.198 108.728 146.198C108.044 146.198 107.42 146.048 106.856 145.748C106.292 145.448 105.89 145.028 105.65 144.488V149.6H103.67ZM108.26 144.47C109.004 144.47 109.604 144.212 110.06 143.696C110.516 143.18 110.744 142.388 110.744 141.32V140.96C110.744 139.952 110.522 139.208 110.078 138.728C109.634 138.236 109.028 137.99 108.26 137.99C107.816 137.99 107.39 138.086 106.982 138.278C106.586 138.47 106.262 138.752 106.01 139.124C105.77 139.496 105.65 139.958 105.65 140.51V141.77C105.65 142.37 105.77 142.874 106.01 143.282C106.262 143.678 106.586 143.978 106.982 144.182C107.378 144.374 107.804 144.47 108.26 144.47ZM117.534 146.198C116.85 146.198 116.262 146.072 115.77 145.82C115.29 145.556 114.924 145.196 114.672 144.74C114.42 144.284 114.294 143.774 114.294 143.21C114.294 142.262 114.576 141.56 115.14 141.104C115.704 140.636 116.532 140.402 117.624 140.402H120.594V139.88C120.594 139.16 120.432 138.668 120.108 138.404C119.796 138.128 119.298 137.99 118.614 137.99C118.002 137.99 117.552 138.086 117.264 138.278C116.976 138.47 116.808 138.734 116.76 139.07H114.834C114.87 138.518 115.044 138.032 115.356 137.612C115.668 137.192 116.106 136.862 116.67 136.622C117.246 136.382 117.924 136.262 118.704 136.262C119.484 136.262 120.162 136.382 120.738 136.622C121.326 136.862 121.776 137.24 122.088 137.756C122.412 138.26 122.574 138.932 122.574 139.772V143.57C122.574 144.074 122.58 144.518 122.592 144.902C122.604 145.274 122.634 145.64 122.682 146H120.882C120.846 145.724 120.816 145.49 120.792 145.298C120.78 145.106 120.774 144.866 120.774 144.578C120.546 145.022 120.15 145.406 119.586 145.73C119.034 146.042 118.35 146.198 117.534 146.198ZM118.074 144.47C118.53 144.47 118.944 144.392 119.316 144.236C119.7 144.08 120.006 143.846 120.234 143.534C120.474 143.222 120.594 142.844 120.594 142.4V141.878H117.984C117.48 141.878 117.072 141.986 116.76 142.202C116.46 142.418 116.31 142.736 116.31 143.156C116.31 143.552 116.448 143.87 116.724 144.11C117.012 144.35 117.462 144.47 118.074 144.47ZM125.01 146V136.46H129.51C130.314 136.46 130.962 136.574 131.454 136.802C131.958 137.018 132.33 137.324 132.57 137.72C132.81 138.104 132.93 138.548 132.93 139.052C132.93 139.472 132.804 139.88 132.552 140.276C132.3 140.66 131.946 140.918 131.49 141.05C132.078 141.194 132.522 141.47 132.822 141.878C133.134 142.274 133.29 142.742 133.29 143.282C133.29 144.11 133.014 144.77 132.462 145.262C131.91 145.754 131.046 146 129.87 146H125.01ZM126.99 144.308H129.6C130.248 144.308 130.692 144.206 130.932 144.002C131.184 143.786 131.31 143.486 131.31 143.102C131.31 142.718 131.184 142.43 130.932 142.238C130.692 142.034 130.248 141.932 129.6 141.932H126.99V144.308ZM126.99 140.384H129.33C129.93 140.384 130.35 140.288 130.59 140.096C130.83 139.892 130.95 139.616 130.95 139.268C130.95 138.92 130.83 138.65 130.59 138.458C130.35 138.254 129.93 138.152 129.33 138.152H126.99V140.384ZM135.096 146.198C135 146.198 134.892 146.192 134.772 146.18C134.664 146.18 134.562 146.168 134.466 146.144V144.272C134.502 144.284 134.592 144.29 134.736 144.29C135.072 144.29 135.342 144.146 135.546 143.858C135.762 143.57 135.918 143.072 136.014 142.364C136.122 141.644 136.176 140.636 136.176 139.34V136.46H143.376V146H141.396V138.152H138.084V139.7C138.084 140.972 138.018 142.034 137.886 142.886C137.766 143.726 137.58 144.386 137.328 144.866C137.076 145.346 136.764 145.688 136.392 145.892C136.02 146.096 135.588 146.198 135.096 146.198ZM150.033 146.198C149.193 146.198 148.419 146.024 147.711 145.676C147.003 145.316 146.433 144.776 146.001 144.056C145.569 143.336 145.353 142.424 145.353 141.32V140.96C145.353 139.904 145.557 139.028 145.965 138.332C146.385 137.636 146.937 137.12 147.621 136.784C148.305 136.436 149.049 136.262 149.853 136.262C151.305 136.262 152.415 136.652 153.183 137.432C153.963 138.212 154.353 139.328 154.353 140.78V141.788H147.369C147.393 142.436 147.531 142.958 147.783 143.354C148.035 143.75 148.359 144.038 148.755 144.218C149.151 144.386 149.577 144.47 150.033 144.47C150.717 144.47 151.215 144.362 151.527 144.146C151.851 143.93 152.073 143.648 152.193 143.3H154.173C153.981 144.248 153.507 144.968 152.751 145.46C152.007 145.952 151.101 146.198 150.033 146.198ZM149.943 137.99C149.499 137.99 149.085 138.068 148.701 138.224C148.317 138.38 148.005 138.626 147.765 138.962C147.525 139.298 147.393 139.748 147.369 140.312H152.373C152.361 139.712 152.247 139.244 152.031 138.908C151.815 138.572 151.527 138.338 151.167 138.206C150.807 138.062 150.399 137.99 149.943 137.99ZM156.334 146V136.46H158.314V140.294H162.814V136.46H164.794V146H162.814V141.986H158.314V146H156.334ZM167.321 146V136.46H169.301V143.21L173.891 136.46H175.781V146H173.801V139.25L169.211 146H167.321ZM182.447 146.198C181.607 146.198 180.833 146.024 180.125 145.676C179.417 145.316 178.847 144.776 178.415 144.056C177.983 143.336 177.767 142.424 177.767 141.32V140.96C177.767 139.904 177.971 139.028 178.379 138.332C178.799 137.636 179.351 137.12 180.035 136.784C180.719 136.436 181.463 136.262 182.267 136.262C183.719 136.262 184.829 136.652 185.597 137.432C186.377 138.212 186.767 139.328 186.767 140.78V141.788H179.783C179.807 142.436 179.945 142.958 180.197 143.354C180.449 143.75 180.773 144.038 181.169 144.218C181.565 144.386 181.991 144.47 182.447 144.47C183.131 144.47 183.629 144.362 183.941 144.146C184.265 143.93 184.487 143.648 184.607 143.3H186.587C186.395 144.248 185.921 144.968 185.165 145.46C184.421 145.952 183.515 146.198 182.447 146.198ZM182.357 137.99C181.913 137.99 181.499 138.068 181.115 138.224C180.731 138.38 180.419 138.626 180.179 138.962C179.939 139.298 179.807 139.748 179.783 140.312H184.787C184.775 139.712 184.661 139.244 184.445 138.908C184.229 138.572 183.941 138.338 183.581 138.206C183.221 138.062 182.813 137.99 182.357 137.99ZM188.748 146V136.46H190.98L194.022 142.04L197.064 136.46H199.188V146H197.208V139.43L194.688 144.02H193.248L190.728 139.43V146H188.748ZM206.203 146V136.46H214.483V146H212.503V138.152H208.183V146H206.203ZM221.136 146.198C220.26 146.198 219.468 146.018 218.76 145.658C218.052 145.286 217.488 144.74 217.068 144.02C216.66 143.288 216.456 142.388 216.456 141.32V140.96C216.456 139.952 216.66 139.1 217.068 138.404C217.488 137.696 218.052 137.162 218.76 136.802C219.468 136.442 220.26 136.262 221.136 136.262C222.024 136.262 222.816 136.442 223.512 136.802C224.22 137.162 224.778 137.696 225.186 138.404C225.606 139.1 225.816 139.952 225.816 140.96V141.32C225.816 142.388 225.606 143.288 225.186 144.02C224.778 144.74 224.22 145.286 223.512 145.658C222.816 146.018 222.024 146.198 221.136 146.198ZM221.136 144.47C221.592 144.47 222.024 144.362 222.432 144.146C222.84 143.93 223.17 143.594 223.422 143.138C223.674 142.67 223.8 142.064 223.8 141.32V140.96C223.8 140.276 223.674 139.718 223.422 139.286C223.17 138.842 222.84 138.518 222.432 138.314C222.024 138.098 221.592 137.99 221.136 137.99C220.68 137.99 220.248 138.098 219.84 138.314C219.432 138.518 219.102 138.842 218.85 139.286C218.598 139.718 218.472 140.276 218.472 140.96V141.32C218.472 142.064 218.598 142.67 218.85 143.138C219.102 143.594 219.432 143.93 219.84 144.146C220.248 144.362 220.68 144.47 221.136 144.47ZM233.369 146V142.346C233.093 142.514 232.763 142.664 232.379 142.796C232.007 142.928 231.527 142.994 230.939 142.994C229.799 142.994 228.929 142.724 228.329 142.184C227.729 141.644 227.429 140.786 227.429 139.61V136.46H229.409V139.34C229.409 140.06 229.553 140.564 229.841 140.852C230.141 141.128 230.657 141.266 231.389 141.266C231.893 141.266 232.313 141.212 232.649 141.104C232.997 140.984 233.237 140.87 233.369 140.762V136.46H235.349V146H233.369ZM240.112 146V138.152H236.962V136.46H245.242V138.152H242.092V146H240.112ZM250.826 146.198C249.95 146.198 249.158 146.018 248.45 145.658C247.742 145.286 247.178 144.74 246.758 144.02C246.35 143.288 246.146 142.388 246.146 141.32V140.96C246.146 139.952 246.35 139.1 246.758 138.404C247.178 137.696 247.742 137.162 248.45 136.802C249.158 136.442 249.95 136.262 250.826 136.262C251.714 136.262 252.506 136.442 253.202 136.802C253.91 137.162 254.468 137.696 254.876 138.404C255.296 139.1 255.506 139.952 255.506 140.96V141.32C255.506 142.388 255.296 143.288 254.876 144.02C254.468 144.74 253.91 145.286 253.202 145.658C252.506 146.018 251.714 146.198 250.826 146.198ZM250.826 144.47C251.282 144.47 251.714 144.362 252.122 144.146C252.53 143.93 252.86 143.594 253.112 143.138C253.364 142.67 253.49 142.064 253.49 141.32V140.96C253.49 140.276 253.364 139.718 253.112 139.286C252.86 138.842 252.53 138.518 252.122 138.314C251.714 138.098 251.282 137.99 250.826 137.99C250.37 137.99 249.938 138.098 249.53 138.314C249.122 138.518 248.792 138.842 248.54 139.286C248.288 139.718 248.162 140.276 248.162 140.96V141.32C248.162 142.064 248.288 142.67 248.54 143.138C248.792 143.594 249.122 143.93 249.53 144.146C249.938 144.362 250.37 144.47 250.826 144.47ZM257.479 146V136.46H261.979C262.783 136.46 263.431 136.574 263.923 136.802C264.427 137.018 264.799 137.324 265.039 137.72C265.279 138.104 265.399 138.548 265.399 139.052C265.399 139.472 265.273 139.88 265.021 140.276C264.769 140.66 264.415 140.918 263.959 141.05C264.547 141.194 264.991 141.47 265.291 141.878C265.603 142.274 265.759 142.742 265.759 143.282C265.759 144.11 265.483 144.77 264.931 145.262C264.379 145.754 263.515 146 262.339 146H257.479ZM259.459 144.308H262.069C262.717 144.308 263.161 144.206 263.401 144.002C263.653 143.786 263.779 143.486 263.779 143.102C263.779 142.718 263.653 142.43 263.401 142.238C263.161 142.034 262.717 141.932 262.069 141.932H259.459V144.308ZM259.459 140.384H261.799C262.399 140.384 262.819 140.288 263.059 140.096C263.299 139.892 263.419 139.616 263.419 139.268C263.419 138.92 263.299 138.65 263.059 138.458C262.819 138.254 262.399 138.152 261.799 138.152H259.459V140.384ZM267.744 146V136.46H269.724V139.808H271.524C272.748 139.808 273.654 140.072 274.242 140.6C274.83 141.116 275.124 141.884 275.124 142.904C275.124 143.54 274.998 144.092 274.746 144.56C274.494 145.028 274.104 145.388 273.576 145.64C273.048 145.88 272.364 146 271.524 146H267.744ZM269.724 144.308H271.344C272.004 144.308 272.466 144.194 272.73 143.966C273.006 143.726 273.144 143.372 273.144 142.904C273.144 142.436 273.006 142.088 272.73 141.86C272.466 141.62 272.004 141.5 271.344 141.5H269.724V144.308ZM276.384 146V136.46H278.364V146H276.384ZM280.169 146L283.607 141.032L280.349 136.46H282.581L284.903 139.664L287.189 136.46H289.349L286.127 140.96L289.529 146H287.261L284.831 142.292L282.365 146H280.169ZM77.22 168.198C76.368 168.198 75.6 168.018 74.916 167.658C74.232 167.298 73.692 166.758 73.296 166.038C72.912 165.318 72.72 164.412 72.72 163.32V162.96C72.72 161.928 72.924 161.064 73.332 160.368C73.752 159.672 74.304 159.15 74.988 158.802C75.672 158.442 76.416 158.262 77.22 158.262C78.06 158.262 78.768 158.406 79.344 158.694C79.932 158.982 80.388 159.372 80.712 159.864C81.048 160.356 81.264 160.908 81.36 161.52H79.344C79.224 161.076 79.008 160.71 78.696 160.422C78.384 160.134 77.892 159.99 77.22 159.99C76.776 159.99 76.362 160.092 75.978 160.296C75.606 160.5 75.306 160.824 75.078 161.268C74.85 161.7 74.736 162.264 74.736 162.96V163.32C74.736 164.076 74.85 164.688 75.078 165.156C75.306 165.612 75.606 165.948 75.978 166.164C76.362 166.368 76.776 166.47 77.22 166.47C77.784 166.47 78.24 166.344 78.588 166.092C78.936 165.84 79.188 165.456 79.344 164.94H81.36C81.24 165.612 80.988 166.194 80.604 166.686C80.232 167.166 79.758 167.538 79.182 167.802C78.606 168.066 77.952 168.198 77.22 168.198ZM86.0344 168.198C85.3504 168.198 84.7624 168.072 84.2704 167.82C83.7904 167.556 83.4244 167.196 83.1724 166.74C82.9204 166.284 82.7944 165.774 82.7944 165.21C82.7944 164.262 83.0764 163.56 83.6404 163.104C84.2044 162.636 85.0324 162.402 86.1244 162.402H89.0944V161.88C89.0944 161.16 88.9324 160.668 88.6084 160.404C88.2964 160.128 87.7984 159.99 87.1144 159.99C86.5024 159.99 86.0524 160.086 85.7644 160.278C85.4764 160.47 85.3084 160.734 85.2604 161.07H83.3344C83.3704 160.518 83.5444 160.032 83.8564 159.612C84.1684 159.192 84.6064 158.862 85.1704 158.622C85.7464 158.382 86.4244 158.262 87.2044 158.262C87.9844 158.262 88.6624 158.382 89.2384 158.622C89.8264 158.862 90.2764 159.24 90.5884 159.756C90.9124 160.26 91.0744 160.932 91.0744 161.772V165.57C91.0744 166.074 91.0804 166.518 91.0924 166.902C91.1044 167.274 91.1344 167.64 91.1824 168H89.3824C89.3464 167.724 89.3164 167.49 89.2924 167.298C89.2804 167.106 89.2744 166.866 89.2744 166.578C89.0464 167.022 88.6504 167.406 88.0864 167.73C87.5344 168.042 86.8504 168.198 86.0344 168.198ZM86.5744 166.47C87.0304 166.47 87.4444 166.392 87.8164 166.236C88.2004 166.08 88.5064 165.846 88.7344 165.534C88.9744 165.222 89.0944 164.844 89.0944 164.4V163.878H86.4844C85.9804 163.878 85.5724 163.986 85.2604 164.202C84.9604 164.418 84.8104 164.736 84.8104 165.156C84.8104 165.552 84.9484 165.87 85.2244 166.11C85.5124 166.35 85.9624 166.47 86.5744 166.47ZM93.51 168V158.46H95.742L98.784 164.04L101.826 158.46H103.95V168H101.97V161.43L99.45 166.02H98.01L95.49 161.43V168H93.51ZM110.605 168.198C109.729 168.198 108.937 168.018 108.229 167.658C107.521 167.286 106.957 166.74 106.537 166.02C106.129 165.288 105.925 164.388 105.925 163.32V162.96C105.925 161.952 106.129 161.1 106.537 160.404C106.957 159.696 107.521 159.162 108.229 158.802C108.937 158.442 109.729 158.262 110.605 158.262C111.493 158.262 112.285 158.442 112.981 158.802C113.689 159.162 114.247 159.696 114.655 160.404C115.075 161.1 115.285 161.952 115.285 162.96V163.32C115.285 164.388 115.075 165.288 114.655 166.02C114.247 166.74 113.689 167.286 112.981 167.658C112.285 168.018 111.493 168.198 110.605 168.198ZM110.605 166.47C111.061 166.47 111.493 166.362 111.901 166.146C112.309 165.93 112.639 165.594 112.891 165.138C113.143 164.67 113.269 164.064 113.269 163.32V162.96C113.269 162.276 113.143 161.718 112.891 161.286C112.639 160.842 112.309 160.518 111.901 160.314C111.493 160.098 111.061 159.99 110.605 159.99C110.149 159.99 109.717 160.098 109.309 160.314C108.901 160.518 108.571 160.842 108.319 161.286C108.067 161.718 107.941 162.276 107.941 162.96V163.32C107.941 164.064 108.067 164.67 108.319 165.138C108.571 165.594 108.901 165.93 109.309 166.146C109.717 166.362 110.149 166.47 110.605 166.47ZM116.902 168.198C116.806 168.198 116.698 168.192 116.578 168.18C116.47 168.18 116.368 168.168 116.272 168.144V166.272C116.308 166.284 116.398 166.29 116.542 166.29C116.878 166.29 117.148 166.146 117.352 165.858C117.568 165.57 117.724 165.072 117.82 164.364C117.928 163.644 117.982 162.636 117.982 161.34V158.46H125.182V168H123.202V160.152H119.89V161.7C119.89 162.972 119.824 164.034 119.692 164.886C119.572 165.726 119.386 166.386 119.134 166.866C118.882 167.346 118.57 167.688 118.198 167.892C117.826 168.096 117.394 168.198 116.902 168.198ZM131.839 168.198C130.999 168.198 130.225 168.024 129.517 167.676C128.809 167.316 128.239 166.776 127.807 166.056C127.375 165.336 127.159 164.424 127.159 163.32V162.96C127.159 161.904 127.363 161.028 127.771 160.332C128.191 159.636 128.743 159.12 129.427 158.784C130.111 158.436 130.855 158.262 131.659 158.262C133.111 158.262 134.221 158.652 134.989 159.432C135.769 160.212 136.159 161.328 136.159 162.78V163.788H129.175C129.199 164.436 129.337 164.958 129.589 165.354C129.841 165.75 130.165 166.038 130.561 166.218C130.957 166.386 131.383 166.47 131.839 166.47C132.523 166.47 133.021 166.362 133.333 166.146C133.657 165.93 133.879 165.648 133.999 165.3H135.979C135.787 166.248 135.313 166.968 134.557 167.46C133.813 167.952 132.907 168.198 131.839 168.198ZM131.749 159.99C131.305 159.99 130.891 160.068 130.507 160.224C130.123 160.38 129.811 160.626 129.571 160.962C129.331 161.298 129.199 161.748 129.175 162.312H134.179C134.167 161.712 134.053 161.244 133.837 160.908C133.621 160.572 133.333 160.338 132.973 160.206C132.613 160.062 132.205 159.99 131.749 159.99ZM129.787 157.308C129.439 157.308 129.151 157.2 128.923 156.984C128.707 156.756 128.599 156.468 128.599 156.12C128.599 155.772 128.707 155.49 128.923 155.274C129.151 155.046 129.439 154.932 129.787 154.932C130.135 154.932 130.417 155.046 130.633 155.274C130.861 155.49 130.975 155.772 130.975 156.12C130.975 156.468 130.861 156.756 130.633 156.984C130.417 157.2 130.135 157.308 129.787 157.308ZM133.531 157.308C133.183 157.308 132.895 157.2 132.667 156.984C132.451 156.756 132.343 156.468 132.343 156.12C132.343 155.772 132.451 155.49 132.667 155.274C132.895 155.046 133.183 154.932 133.531 154.932C133.879 154.932 134.161 155.046 134.377 155.274C134.605 155.49 134.719 155.772 134.719 156.12C134.719 156.468 134.605 156.756 134.377 156.984C134.161 157.2 133.879 157.308 133.531 157.308ZM140.215 168V160.152H137.065V158.46H145.345V160.152H142.195V168H140.215ZM150.929 168.198C150.053 168.198 149.261 168.018 148.553 167.658C147.845 167.286 147.281 166.74 146.861 166.02C146.453 165.288 146.249 164.388 146.249 163.32V162.96C146.249 161.952 146.453 161.1 146.861 160.404C147.281 159.696 147.845 159.162 148.553 158.802C149.261 158.442 150.053 158.262 150.929 158.262C151.817 158.262 152.609 158.442 153.305 158.802C154.013 159.162 154.571 159.696 154.979 160.404C155.399 161.1 155.609 161.952 155.609 162.96V163.32C155.609 164.388 155.399 165.288 154.979 166.02C154.571 166.74 154.013 167.286 153.305 167.658C152.609 168.018 151.817 168.198 150.929 168.198ZM150.929 166.47C151.385 166.47 151.817 166.362 152.225 166.146C152.633 165.93 152.963 165.594 153.215 165.138C153.467 164.67 153.593 164.064 153.593 163.32V162.96C153.593 162.276 153.467 161.718 153.215 161.286C152.963 160.842 152.633 160.518 152.225 160.314C151.817 160.098 151.385 159.99 150.929 159.99C150.473 159.99 150.041 160.098 149.633 160.314C149.225 160.518 148.895 160.842 148.643 161.286C148.391 161.718 148.265 162.276 148.265 162.96V163.32C148.265 164.064 148.391 164.67 148.643 165.138C148.895 165.594 149.225 165.93 149.633 166.146C150.041 166.362 150.473 166.47 150.929 166.47ZM157.582 168V158.46H162.082C162.886 158.46 163.534 158.574 164.026 158.802C164.53 159.018 164.902 159.324 165.142 159.72C165.382 160.104 165.502 160.548 165.502 161.052C165.502 161.472 165.376 161.88 165.124 162.276C164.872 162.66 164.518 162.918 164.062 163.05C164.65 163.194 165.094 163.47 165.394 163.878C165.706 164.274 165.862 164.742 165.862 165.282C165.862 166.11 165.586 166.77 165.034 167.262C164.482 167.754 163.618 168 162.442 168H157.582ZM159.562 166.308H162.172C162.82 166.308 163.264 166.206 163.504 166.002C163.756 165.786 163.882 165.486 163.882 165.102C163.882 164.718 163.756 164.43 163.504 164.238C163.264 164.034 162.82 163.932 162.172 163.932H159.562V166.308ZM159.562 162.384H161.902C162.502 162.384 162.922 162.288 163.162 162.096C163.402 161.892 163.522 161.616 163.522 161.268C163.522 160.92 163.402 160.65 163.162 160.458C162.922 160.254 162.502 160.152 161.902 160.152H159.562V162.384ZM172.348 168V158.46H174.328V165.21L178.918 158.46H180.808V168H178.828V161.25L174.238 168H172.348ZM186.934 170.25V166.308H188.014C188.182 166.056 188.326 165.666 188.446 165.138C188.566 164.598 188.656 163.98 188.716 163.284C188.788 162.588 188.824 161.88 188.824 161.16V158.46H195.934V166.308H197.194V170.25H195.358V168H188.77V170.25H186.934ZM190.03 166.308H193.954V160.152H190.732V161.52C190.732 162.444 190.678 163.332 190.57 164.184C190.462 165.024 190.282 165.732 190.03 166.308ZM198.908 168V158.46H200.888V165.21L205.478 158.46H207.368V168H205.388V161.25L200.798 168H198.908ZM209.895 171.6V158.46H211.731V160.062C212.019 159.51 212.445 159.072 213.009 158.748C213.585 158.424 214.233 158.262 214.953 158.262C216.201 158.262 217.185 158.652 217.905 159.432C218.625 160.212 218.985 161.388 218.985 162.96V163.32C218.985 164.4 218.817 165.306 218.481 166.038C218.145 166.758 217.677 167.298 217.077 167.658C216.477 168.018 215.769 168.198 214.953 168.198C214.269 168.198 213.645 168.048 213.081 167.748C212.517 167.448 212.115 167.028 211.875 166.488V171.6H209.895ZM214.485 166.47C215.229 166.47 215.829 166.212 216.285 165.696C216.741 165.18 216.969 164.388 216.969 163.32V162.96C216.969 161.952 216.747 161.208 216.303 160.728C215.859 160.236 215.253 159.99 214.485 159.99C214.041 159.99 213.615 160.086 213.207 160.278C212.811 160.47 212.487 160.752 212.235 161.124C211.995 161.496 211.875 161.958 211.875 162.51V163.77C211.875 164.37 211.995 164.874 212.235 165.282C212.487 165.678 212.811 165.978 213.207 166.182C213.603 166.374 214.029 166.47 214.485 166.47ZM220.969 168V158.46H222.949V165.21L227.539 158.46H229.429V168H227.449V161.25L222.859 168H220.969ZM231.055 168L234.475 163.086L231.235 158.46H233.503L236.095 162.294H236.995V158.46H238.975V162.294H239.875L242.683 158.46H244.735L241.315 162.996L244.915 168H242.683L239.875 163.986H238.975V168H236.995V163.986H236.095L233.395 168H231.055ZM249.142 168.198C248.458 168.198 247.87 168.072 247.378 167.82C246.898 167.556 246.532 167.196 246.28 166.74C246.028 166.284 245.902 165.774 245.902 165.21C245.902 164.262 246.184 163.56 246.748 163.104C247.312 162.636 248.14 162.402 249.232 162.402H252.202V161.88C252.202 161.16 252.04 160.668 251.716 160.404C251.404 160.128 250.906 159.99 250.222 159.99C249.61 159.99 249.16 160.086 248.872 160.278C248.584 160.47 248.416 160.734 248.368 161.07H246.442C246.478 160.518 246.652 160.032 246.964 159.612C247.276 159.192 247.714 158.862 248.278 158.622C248.854 158.382 249.532 158.262 250.312 158.262C251.092 158.262 251.77 158.382 252.346 158.622C252.934 158.862 253.384 159.24 253.696 159.756C254.02 160.26 254.182 160.932 254.182 161.772V165.57C254.182 166.074 254.188 166.518 254.2 166.902C254.212 167.274 254.242 167.64 254.29 168H252.49C252.454 167.724 252.424 167.49 252.4 167.298C252.388 167.106 252.382 166.866 252.382 166.578C252.154 167.022 251.758 167.406 251.194 167.73C250.642 168.042 249.958 168.198 249.142 168.198ZM249.682 166.47C250.138 166.47 250.552 166.392 250.924 166.236C251.308 166.08 251.614 165.846 251.842 165.534C252.082 165.222 252.202 164.844 252.202 164.4V163.878H249.592C249.088 163.878 248.68 163.986 248.368 164.202C248.068 164.418 247.918 164.736 247.918 165.156C247.918 165.552 248.056 165.87 248.332 166.11C248.62 166.35 249.07 166.47 249.682 166.47ZM260.757 168.198C259.893 168.198 259.113 167.988 258.417 167.568C257.721 167.148 257.169 166.53 256.761 165.714C256.365 164.898 256.167 163.908 256.167 162.744V162.384C256.167 160.944 256.311 159.72 256.599 158.712C256.899 157.692 257.403 156.9 258.111 156.336C258.831 155.772 259.815 155.46 261.063 155.4C261.567 155.376 262.041 155.358 262.485 155.346C262.929 155.322 263.331 155.286 263.691 155.238C264.051 155.178 264.363 155.082 264.627 154.95V156.768C264.507 156.84 264.309 156.906 264.033 156.966C263.769 157.014 263.415 157.056 262.971 157.092C262.527 157.116 261.981 157.14 261.333 157.164C260.589 157.176 259.971 157.296 259.479 157.524C258.987 157.74 258.609 158.088 258.345 158.568C258.081 159.048 257.913 159.702 257.841 160.53C258.033 160.146 258.291 159.816 258.615 159.54C258.939 159.252 259.329 159.03 259.785 158.874C260.241 158.706 260.745 158.622 261.297 158.622C262.089 158.622 262.791 158.796 263.403 159.144C264.015 159.492 264.489 159.996 264.825 160.656C265.173 161.304 265.347 162.09 265.347 163.014V163.428C265.347 164.424 265.143 165.282 264.735 166.002C264.339 166.71 263.793 167.256 263.097 167.64C262.413 168.012 261.633 168.198 260.757 168.198ZM260.757 166.47C261.537 166.47 262.161 166.212 262.629 165.696C263.097 165.18 263.331 164.424 263.331 163.428V163.014C263.331 162.174 263.091 161.52 262.611 161.052C262.143 160.584 261.525 160.35 260.757 160.35C259.989 160.35 259.365 160.584 258.885 161.052C258.417 161.508 258.183 162.162 258.183 163.014V163.428C258.183 164.064 258.297 164.61 258.525 165.066C258.753 165.522 259.059 165.87 259.443 166.11C259.839 166.35 260.277 166.47 260.757 166.47ZM266.967 168.198C266.871 168.198 266.763 168.192 266.643 168.18C266.535 168.18 266.433 168.168 266.337 168.144V166.272C266.373 166.284 266.463 166.29 266.607 166.29C266.943 166.29 267.213 166.146 267.417 165.858C267.633 165.57 267.789 165.072 267.885 164.364C267.993 163.644 268.047 162.636 268.047 161.34V158.46H275.247V168H273.267V160.152H269.955V161.7C269.955 162.972 269.889 164.034 269.757 164.886C269.637 165.726 269.451 166.386 269.199 166.866C268.947 167.346 268.635 167.688 268.263 167.892C267.891 168.096 267.459 168.198 266.967 168.198ZM281.904 168.198C281.064 168.198 280.29 168.024 279.582 167.676C278.874 167.316 278.304 166.776 277.872 166.056C277.44 165.336 277.224 164.424 277.224 163.32V162.96C277.224 161.904 277.428 161.028 277.836 160.332C278.256 159.636 278.808 159.12 279.492 158.784C280.176 158.436 280.92 158.262 281.724 158.262C283.176 158.262 284.286 158.652 285.054 159.432C285.834 160.212 286.224 161.328 286.224 162.78V163.788H279.24C279.264 164.436 279.402 164.958 279.654 165.354C279.906 165.75 280.23 166.038 280.626 166.218C281.022 166.386 281.448 166.47 281.904 166.47C282.588 166.47 283.086 166.362 283.398 166.146C283.722 165.93 283.944 165.648 284.064 165.3H286.044C285.852 166.248 285.378 166.968 284.622 167.46C283.878 167.952 282.972 168.198 281.904 168.198ZM281.814 159.99C281.37 159.99 280.956 160.068 280.572 160.224C280.188 160.38 279.876 160.626 279.636 160.962C279.396 161.298 279.264 161.748 279.24 162.312H284.244C284.232 161.712 284.118 161.244 283.902 160.908C283.686 160.572 283.398 160.338 283.038 160.206C282.678 160.062 282.27 159.99 281.814 159.99ZM288.205 168V158.46H290.185V165.21L294.775 158.46H296.665V168H294.685V161.25L290.095 168H288.205ZM292.435 157.38C291.439 157.38 290.707 157.164 290.239 156.732C289.783 156.288 289.555 155.664 289.555 154.86H291.391C291.391 155.292 291.475 155.604 291.643 155.796C291.823 155.988 292.087 156.084 292.435 156.084C292.783 156.084 293.041 155.988 293.209 155.796C293.389 155.604 293.479 155.292 293.479 154.86H295.315C295.315 155.664 295.081 156.288 294.613 156.732C294.145 157.164 293.419 157.38 292.435 157.38ZM73.26 190V180.46H77.76C78.564 180.46 79.212 180.574 79.704 180.802C80.208 181.018 80.58 181.324 80.82 181.72C81.06 182.104 81.18 182.548 81.18 183.052C81.18 183.472 81.054 183.88 80.802 184.276C80.55 184.66 80.196 184.918 79.74 185.05C80.328 185.194 80.772 185.47 81.072 185.878C81.384 186.274 81.54 186.742 81.54 187.282C81.54 188.11 81.264 188.77 80.712 189.262C80.16 189.754 79.296 190 78.12 190H73.26ZM75.24 188.308H77.85C78.498 188.308 78.942 188.206 79.182 188.002C79.434 187.786 79.56 187.486 79.56 187.102C79.56 186.718 79.434 186.43 79.182 186.238C78.942 186.034 78.498 185.932 77.85 185.932H75.24V188.308ZM75.24 184.384H77.58C78.18 184.384 78.6 184.288 78.84 184.096C79.08 183.892 79.2 183.616 79.2 183.268C79.2 182.92 79.08 182.65 78.84 182.458C78.6 182.254 78.18 182.152 77.58 182.152H75.24V184.384ZM87.6656 190.198C86.7896 190.198 85.9976 190.018 85.2896 189.658C84.5816 189.286 84.0176 188.74 83.5976 188.02C83.1896 187.288 82.9856 186.388 82.9856 185.32V184.96C82.9856 183.952 83.1896 183.1 83.5976 182.404C84.0176 181.696 84.5816 181.162 85.2896 180.802C85.9976 180.442 86.7896 180.262 87.6656 180.262C88.5536 180.262 89.3456 180.442 90.0416 180.802C90.7496 181.162 91.3076 181.696 91.7156 182.404C92.1356 183.1 92.3456 183.952 92.3456 184.96V185.32C92.3456 186.388 92.1356 187.288 91.7156 188.02C91.3076 188.74 90.7496 189.286 90.0416 189.658C89.3456 190.018 88.5536 190.198 87.6656 190.198ZM87.6656 188.47C88.1216 188.47 88.5536 188.362 88.9616 188.146C89.3696 187.93 89.6996 187.594 89.9516 187.138C90.2036 186.67 90.3296 186.064 90.3296 185.32V184.96C90.3296 184.276 90.2036 183.718 89.9516 183.286C89.6996 182.842 89.3696 182.518 88.9616 182.314C88.5536 182.098 88.1216 181.99 87.6656 181.99C87.2096 181.99 86.7776 182.098 86.3696 182.314C85.9616 182.518 85.6316 182.842 85.3796 183.286C85.1276 183.718 85.0016 184.276 85.0016 184.96V185.32C85.0016 186.064 85.1276 186.67 85.3796 187.138C85.6316 187.594 85.9616 187.93 86.3696 188.146C86.7776 188.362 87.2096 188.47 87.6656 188.47ZM98.8186 190V180.46H103.319C104.123 180.46 104.771 180.574 105.263 180.802C105.767 181.018 106.139 181.324 106.379 181.72C106.619 182.104 106.739 182.548 106.739 183.052C106.739 183.472 106.613 183.88 106.361 184.276C106.109 184.66 105.755 184.918 105.299 185.05C105.887 185.194 106.331 185.47 106.631 185.878C106.943 186.274 107.099 186.742 107.099 187.282C107.099 188.11 106.823 188.77 106.271 189.262C105.719 189.754 104.855 190 103.679 190H98.8186ZM100.799 188.308H103.409C104.057 188.308 104.501 188.206 104.741 188.002C104.993 187.786 105.119 187.486 105.119 187.102C105.119 186.718 104.993 186.43 104.741 186.238C104.501 186.034 104.057 185.932 103.409 185.932H100.799V188.308ZM100.799 184.384H103.139C103.739 184.384 104.159 184.288 104.399 184.096C104.639 183.892 104.759 183.616 104.759 183.268C104.759 182.92 104.639 182.65 104.399 182.458C104.159 182.254 103.739 182.152 103.139 182.152H100.799V184.384ZM113.044 190.198C112.192 190.198 111.424 190.018 110.74 189.658C110.056 189.298 109.516 188.758 109.12 188.038C108.736 187.318 108.544 186.412 108.544 185.32V184.96C108.544 183.928 108.748 183.064 109.156 182.368C109.576 181.672 110.128 181.15 110.812 180.802C111.496 180.442 112.24 180.262 113.044 180.262C113.884 180.262 114.592 180.406 115.168 180.694C115.756 180.982 116.212 181.372 116.536 181.864C116.872 182.356 117.088 182.908 117.184 183.52H115.168C115.048 183.076 114.832 182.71 114.52 182.422C114.208 182.134 113.716 181.99 113.044 181.99C112.6 181.99 112.186 182.092 111.802 182.296C111.43 182.5 111.13 182.824 110.902 183.268C110.674 183.7 110.56 184.264 110.56 184.96V185.32C110.56 186.076 110.674 186.688 110.902 187.156C111.13 187.612 111.43 187.948 111.802 188.164C112.186 188.368 112.6 188.47 113.044 188.47C113.608 188.47 114.064 188.344 114.412 188.092C114.76 187.84 115.012 187.456 115.168 186.94H117.184C117.064 187.612 116.812 188.194 116.428 188.686C116.056 189.166 115.582 189.538 115.006 189.802C114.43 190.066 113.776 190.198 113.044 190.198ZM123.209 190.198C122.369 190.198 121.595 190.024 120.887 189.676C120.179 189.316 119.609 188.776 119.177 188.056C118.745 187.336 118.529 186.424 118.529 185.32V184.96C118.529 183.904 118.733 183.028 119.141 182.332C119.561 181.636 120.113 181.12 120.797 180.784C121.481 180.436 122.225 180.262 123.029 180.262C124.481 180.262 125.591 180.652 126.359 181.432C127.139 182.212 127.529 183.328 127.529 184.78V185.788H120.545C120.569 186.436 120.707 186.958 120.959 187.354C121.211 187.75 121.535 188.038 121.931 188.218C122.327 188.386 122.753 188.47 123.209 188.47C123.893 188.47 124.391 188.362 124.703 188.146C125.027 187.93 125.249 187.648 125.369 187.3H127.349C127.157 188.248 126.683 188.968 125.927 189.46C125.183 189.952 124.277 190.198 123.209 190.198ZM123.119 181.99C122.675 181.99 122.261 182.068 121.877 182.224C121.493 182.38 121.181 182.626 120.941 182.962C120.701 183.298 120.569 183.748 120.545 184.312H125.549C125.537 183.712 125.423 183.244 125.207 182.908C124.991 182.572 124.703 182.338 124.343 182.206C123.983 182.062 123.575 181.99 123.119 181.99ZM134.01 190V180.46H135.99V184.33H137.07L140.418 180.46H142.65L138.6 185.014L142.83 190H140.418L137.07 185.95H135.99V190H134.01ZM148.24 190.198C147.364 190.198 146.572 190.018 145.864 189.658C145.156 189.286 144.592 188.74 144.172 188.02C143.764 187.288 143.56 186.388 143.56 185.32V184.96C143.56 183.952 143.764 183.1 144.172 182.404C144.592 181.696 145.156 181.162 145.864 180.802C146.572 180.442 147.364 180.262 148.24 180.262C149.128 180.262 149.92 180.442 150.616 180.802C151.324 181.162 151.882 181.696 152.29 182.404C152.71 183.1 152.92 183.952 152.92 184.96V185.32C152.92 186.388 152.71 187.288 152.29 188.02C151.882 188.74 151.324 189.286 150.616 189.658C149.92 190.018 149.128 190.198 148.24 190.198ZM148.24 188.47C148.696 188.47 149.128 188.362 149.536 188.146C149.944 187.93 150.274 187.594 150.526 187.138C150.778 186.67 150.904 186.064 150.904 185.32V184.96C150.904 184.276 150.778 183.718 150.526 183.286C150.274 182.842 149.944 182.518 149.536 182.314C149.128 182.098 148.696 181.99 148.24 181.99C147.784 181.99 147.352 182.098 146.944 182.314C146.536 182.518 146.206 182.842 145.954 183.286C145.702 183.718 145.576 184.276 145.576 184.96V185.32C145.576 186.064 145.702 186.67 145.954 187.138C146.206 187.594 146.536 187.93 146.944 188.146C147.352 188.362 147.784 188.47 148.24 188.47ZM154.893 190V180.46H156.873V184.294H161.373V180.46H163.353V190H161.373V185.986H156.873V190H154.893ZM173.583 192.25V190H165.879V180.46H167.859V188.308H171.999V180.46H173.979V188.308H175.419V192.25H173.583ZM177.129 190V180.46H179.109V183.808H180.909C182.133 183.808 183.039 184.072 183.627 184.6C184.215 185.116 184.509 185.884 184.509 186.904C184.509 187.54 184.383 188.092 184.131 188.56C183.879 189.028 183.489 189.388 182.961 189.64C182.433 189.88 181.749 190 180.909 190H177.129ZM179.109 188.308H180.729C181.389 188.308 181.851 188.194 182.115 187.966C182.391 187.726 182.529 187.372 182.529 186.904C182.529 186.436 182.391 186.088 182.115 185.86C181.851 185.62 181.389 185.5 180.729 185.5H179.109V188.308ZM185.769 190V180.46H187.749V190H185.769ZM198.913 190.198C198.061 190.198 197.293 190.018 196.609 189.658C195.925 189.298 195.385 188.758 194.989 188.038C194.605 187.318 194.413 186.412 194.413 185.32V184.96C194.413 183.928 194.617 183.064 195.025 182.368C195.445 181.672 195.997 181.15 196.681 180.802C197.365 180.442 198.109 180.262 198.913 180.262C199.753 180.262 200.461 180.406 201.037 180.694C201.625 180.982 202.081 181.372 202.405 181.864C202.741 182.356 202.957 182.908 203.053 183.52H201.037C200.917 183.076 200.701 182.71 200.389 182.422C200.077 182.134 199.585 181.99 198.913 181.99C198.469 181.99 198.055 182.092 197.671 182.296C197.299 182.5 196.999 182.824 196.771 183.268C196.543 183.7 196.429 184.264 196.429 184.96V185.32C196.429 186.076 196.543 186.688 196.771 187.156C196.999 187.612 197.299 187.948 197.671 188.164C198.055 188.368 198.469 188.47 198.913 188.47C199.477 188.47 199.933 188.344 200.281 188.092C200.629 187.84 200.881 187.456 201.037 186.94H203.053C202.933 187.612 202.681 188.194 202.297 188.686C201.925 189.166 201.451 189.538 200.875 189.802C200.299 190.066 199.645 190.198 198.913 190.198ZM204.938 190V180.46H209.438C210.242 180.46 210.89 180.574 211.382 180.802C211.886 181.018 212.258 181.324 212.498 181.72C212.738 182.104 212.858 182.548 212.858 183.052C212.858 183.472 212.732 183.88 212.48 184.276C212.228 184.66 211.874 184.918 211.418 185.05C212.006 185.194 212.45 185.47 212.75 185.878C213.062 186.274 213.218 186.742 213.218 187.282C213.218 188.11 212.942 188.77 212.39 189.262C211.838 189.754 210.974 190 209.798 190H204.938ZM206.918 188.308H209.528C210.176 188.308 210.62 188.206 210.86 188.002C211.112 187.786 211.238 187.486 211.238 187.102C211.238 186.718 211.112 186.43 210.86 186.238C210.62 186.034 210.176 185.932 209.528 185.932H206.918V188.308ZM206.918 184.384H209.258C209.858 184.384 210.278 184.288 210.518 184.096C210.758 183.892 210.878 183.616 210.878 183.268C210.878 182.92 210.758 182.65 210.518 182.458C210.278 182.254 209.858 182.152 209.258 182.152H206.918V184.384ZM219.343 190.198C218.503 190.198 217.729 190.024 217.021 189.676C216.313 189.316 215.743 188.776 215.311 188.056C214.879 187.336 214.663 186.424 214.663 185.32V184.96C214.663 183.904 214.867 183.028 215.275 182.332C215.695 181.636 216.247 181.12 216.931 180.784C217.615 180.436 218.359 180.262 219.163 180.262C220.615 180.262 221.725 180.652 222.493 181.432C223.273 182.212 223.663 183.328 223.663 184.78V185.788H216.679C216.703 186.436 216.841 186.958 217.093 187.354C217.345 187.75 217.669 188.038 218.065 188.218C218.461 188.386 218.887 188.47 219.343 188.47C220.027 188.47 220.525 188.362 220.837 188.146C221.161 187.93 221.383 187.648 221.503 187.3H223.483C223.291 188.248 222.817 188.968 222.061 189.46C221.317 189.952 220.411 190.198 219.343 190.198ZM219.253 181.99C218.809 181.99 218.395 182.068 218.011 182.224C217.627 182.38 217.315 182.626 217.075 182.962C216.835 183.298 216.703 183.748 216.679 184.312H221.683C221.671 183.712 221.557 183.244 221.341 182.908C221.125 182.572 220.837 182.338 220.477 182.206C220.117 182.062 219.709 181.99 219.253 181.99ZM227.719 190V182.152H224.569V180.46H232.849V182.152H229.699V190H227.719ZM236.714 190.198C236.03 190.198 235.442 190.072 234.95 189.82C234.47 189.556 234.104 189.196 233.852 188.74C233.6 188.284 233.474 187.774 233.474 187.21C233.474 186.262 233.756 185.56 234.32 185.104C234.884 184.636 235.712 184.402 236.804 184.402H239.774V183.88C239.774 183.16 239.612 182.668 239.288 182.404C238.976 182.128 238.478 181.99 237.794 181.99C237.182 181.99 236.732 182.086 236.444 182.278C236.156 182.47 235.988 182.734 235.94 183.07H234.014C234.05 182.518 234.224 182.032 234.536 181.612C234.848 181.192 235.286 180.862 235.85 180.622C236.426 180.382 237.104 180.262 237.884 180.262C238.664 180.262 239.342 180.382 239.918 180.622C240.506 180.862 240.956 181.24 241.268 181.756C241.592 182.26 241.754 182.932 241.754 183.772V187.57C241.754 188.074 241.76 188.518 241.772 188.902C241.784 189.274 241.814 189.64 241.862 190H240.062C240.026 189.724 239.996 189.49 239.972 189.298C239.96 189.106 239.954 188.866 239.954 188.578C239.726 189.022 239.33 189.406 238.766 189.73C238.214 190.042 237.53 190.198 236.714 190.198ZM237.254 188.47C237.71 188.47 238.124 188.392 238.496 188.236C238.88 188.08 239.186 187.846 239.414 187.534C239.654 187.222 239.774 186.844 239.774 186.4V185.878H237.164C236.66 185.878 236.252 185.986 235.94 186.202C235.64 186.418 235.49 186.736 235.49 187.156C235.49 187.552 235.628 187.87 235.904 188.11C236.192 188.35 236.642 188.47 237.254 188.47ZM243.83 192.79L244.55 190V187.732H246.89V190L244.91 192.79H243.83ZM73.26 212V202.46H77.76C78.564 202.46 79.212 202.574 79.704 202.802C80.208 203.018 80.58 203.324 80.82 203.72C81.06 204.104 81.18 204.548 81.18 205.052C81.18 205.472 81.054 205.88 80.802 206.276C80.55 206.66 80.196 206.918 79.74 207.05C80.328 207.194 80.772 207.47 81.072 207.878C81.384 208.274 81.54 208.742 81.54 209.282C81.54 210.11 81.264 210.77 80.712 211.262C80.16 211.754 79.296 212 78.12 212H73.26ZM75.24 210.308H77.85C78.498 210.308 78.942 210.206 79.182 210.002C79.434 209.786 79.56 209.486 79.56 209.102C79.56 208.718 79.434 208.43 79.182 208.238C78.942 208.034 78.498 207.932 77.85 207.932H75.24V210.308ZM75.24 206.384H77.58C78.18 206.384 78.6 206.288 78.84 206.096C79.08 205.892 79.2 205.616 79.2 205.268C79.2 204.92 79.08 204.65 78.84 204.458C78.6 204.254 78.18 204.152 77.58 204.152H75.24V206.384ZM83.5256 212V202.46H85.5056V206.33H86.5856L89.9336 202.46H92.1656L88.1156 207.014L92.3456 212H89.9336L86.5856 207.95H85.5056V212H83.5256ZM93.9628 212.198C93.8668 212.198 93.7588 212.192 93.6388 212.18C93.5308 212.18 93.4288 212.168 93.3328 212.144V210.272C93.3688 210.284 93.4588 210.29 93.6028 210.29C93.9388 210.29 94.2088 210.146 94.4128 209.858C94.6288 209.57 94.7848 209.072 94.8808 208.364C94.9888 207.644 95.0428 206.636 95.0428 205.34V202.46H102.243V212H100.263V204.152H96.9508V205.7C96.9508 206.972 96.8848 208.034 96.7528 208.886C96.6328 209.726 96.4468 210.386 96.1948 210.866C95.9428 211.346 95.6308 211.688 95.2588 211.892C94.8868 212.096 94.4548 212.198 93.9628 212.198ZM104.76 212V202.46H106.74V206.294H107.802C107.886 205.43 108.126 204.698 108.522 204.098C108.93 203.498 109.452 203.042 110.088 202.73C110.736 202.418 111.45 202.262 112.23 202.262C113.082 202.262 113.844 202.442 114.516 202.802C115.2 203.162 115.74 203.696 116.136 204.404C116.532 205.1 116.73 205.952 116.73 206.96V207.32C116.73 208.388 116.532 209.288 116.136 210.02C115.74 210.74 115.2 211.286 114.516 211.658C113.844 212.018 113.082 212.198 112.23 212.198C111.438 212.198 110.718 212.042 110.07 211.73C109.434 211.406 108.918 210.932 108.522 210.308C108.126 209.684 107.886 208.91 107.802 207.986H106.74V212H104.76ZM112.23 210.47C112.662 210.47 113.064 210.362 113.436 210.146C113.82 209.93 114.126 209.594 114.354 209.138C114.594 208.67 114.714 208.064 114.714 207.32V206.96C114.714 206.276 114.594 205.718 114.354 205.286C114.126 204.842 113.82 204.518 113.436 204.314C113.064 204.098 112.662 203.99 112.23 203.99C111.798 203.99 111.39 204.098 111.006 204.314C110.634 204.518 110.328 204.842 110.088 205.286C109.86 205.718 109.746 206.276 109.746 206.96V207.32C109.746 208.064 109.86 208.67 110.088 209.138C110.328 209.594 110.634 209.93 111.006 210.146C111.39 210.362 111.798 210.47 112.23 210.47ZM124.297 212V208.346C124.021 208.514 123.691 208.664 123.307 208.796C122.935 208.928 122.455 208.994 121.867 208.994C120.727 208.994 119.857 208.724 119.257 208.184C118.657 207.644 118.357 206.786 118.357 205.61V202.46H120.337V205.34C120.337 206.06 120.481 206.564 120.769 206.852C121.069 207.128 121.585 207.266 122.317 207.266C122.821 207.266 123.241 207.212 123.577 207.104C123.925 206.984 124.165 206.87 124.297 206.762V202.46H126.277V212H124.297ZM131.579 212.198C130.895 212.198 130.307 212.072 129.815 211.82C129.335 211.556 128.969 211.196 128.717 210.74C128.465 210.284 128.339 209.774 128.339 209.21C128.339 208.262 128.621 207.56 129.185 207.104C129.749 206.636 130.577 206.402 131.669 206.402H134.639V205.88C134.639 205.16 134.477 204.668 134.153 204.404C133.841 204.128 133.343 203.99 132.659 203.99C132.047 203.99 131.597 204.086 131.309 204.278C131.021 204.47 130.853 204.734 130.805 205.07H128.879C128.915 204.518 129.089 204.032 129.401 203.612C129.713 203.192 130.151 202.862 130.715 202.622C131.291 202.382 131.969 202.262 132.749 202.262C133.529 202.262 134.207 202.382 134.783 202.622C135.371 202.862 135.821 203.24 136.133 203.756C136.457 204.26 136.619 204.932 136.619 205.772V209.57C136.619 210.074 136.625 210.518 136.637 210.902C136.649 211.274 136.679 211.64 136.727 212H134.927C134.891 211.724 134.861 211.49 134.837 211.298C134.825 211.106 134.819 210.866 134.819 210.578C134.591 211.022 134.195 211.406 133.631 211.73C133.079 212.042 132.395 212.198 131.579 212.198ZM132.119 210.47C132.575 210.47 132.989 210.392 133.361 210.236C133.745 210.08 134.051 209.846 134.279 209.534C134.519 209.222 134.639 208.844 134.639 208.4V207.878H132.029C131.525 207.878 131.117 207.986 130.805 208.202C130.505 208.418 130.355 208.736 130.355 209.156C130.355 209.552 130.493 209.87 130.769 210.11C131.057 210.35 131.507 210.47 132.119 210.47ZM138.425 212L140.909 208.382C140.189 208.166 139.655 207.812 139.307 207.32C138.959 206.828 138.785 206.234 138.785 205.538C138.785 204.914 138.923 204.374 139.199 203.918C139.475 203.45 139.895 203.09 140.459 202.838C141.023 202.586 141.725 202.46 142.565 202.46H146.885V212H144.905V208.616H142.853L140.729 212H138.425ZM140.801 205.538C140.801 206.042 140.951 206.402 141.251 206.618C141.551 206.822 141.959 206.924 142.475 206.924H144.905V204.152H142.475C141.959 204.152 141.551 204.26 141.251 204.476C140.951 204.68 140.801 205.034 140.801 205.538ZM153.728 212.198C153.632 212.198 153.524 212.192 153.404 212.18C153.296 212.18 153.194 212.168 153.098 212.144V210.092C153.134 210.104 153.224 210.11 153.368 210.11C153.632 210.11 153.866 210.062 154.07 209.966C154.274 209.858 154.442 209.66 154.574 209.372C154.718 209.084 154.832 208.664 154.916 208.112C155.012 207.56 155.078 206.84 155.114 205.952C155.15 205.052 155.168 203.948 155.168 202.64V199.4H163.988V212H161.828V201.272H157.256V203C157.256 204.572 157.208 205.898 157.112 206.978C157.016 208.058 156.872 208.946 156.68 209.642C156.5 210.326 156.266 210.854 155.978 211.226C155.702 211.598 155.372 211.856 154.988 212C154.616 212.132 154.196 212.198 153.728 212.198ZM171.004 212.198C170.128 212.198 169.336 212.018 168.628 211.658C167.92 211.286 167.356 210.74 166.936 210.02C166.528 209.288 166.324 208.388 166.324 207.32V206.96C166.324 205.952 166.528 205.1 166.936 204.404C167.356 203.696 167.92 203.162 168.628 202.802C169.336 202.442 170.128 202.262 171.004 202.262C171.892 202.262 172.684 202.442 173.38 202.802C174.088 203.162 174.646 203.696 175.054 204.404C175.474 205.1 175.684 205.952 175.684 206.96V207.32C175.684 208.388 175.474 209.288 175.054 210.02C174.646 210.74 174.088 211.286 173.38 211.658C172.684 212.018 171.892 212.198 171.004 212.198ZM171.004 210.47C171.46 210.47 171.892 210.362 172.3 210.146C172.708 209.93 173.038 209.594 173.29 209.138C173.542 208.67 173.668 208.064 173.668 207.32V206.96C173.668 206.276 173.542 205.718 173.29 205.286C173.038 204.842 172.708 204.518 172.3 204.314C171.892 204.098 171.46 203.99 171.004 203.99C170.548 203.99 170.116 204.098 169.708 204.314C169.3 204.518 168.97 204.842 168.718 205.286C168.466 205.718 168.34 206.276 168.34 206.96V207.32C168.34 208.064 168.466 208.67 168.718 209.138C168.97 209.594 169.3 209.93 169.708 210.146C170.116 210.362 170.548 210.47 171.004 210.47ZM181.616 212.198C180.764 212.198 179.996 212.018 179.312 211.658C178.628 211.298 178.088 210.758 177.692 210.038C177.308 209.318 177.116 208.412 177.116 207.32V206.96C177.116 205.928 177.32 205.064 177.728 204.368C178.148 203.672 178.7 203.15 179.384 202.802C180.068 202.442 180.812 202.262 181.616 202.262C182.456 202.262 183.164 202.406 183.74 202.694C184.328 202.982 184.784 203.372 185.108 203.864C185.444 204.356 185.66 204.908 185.756 205.52H183.74C183.62 205.076 183.404 204.71 183.092 204.422C182.78 204.134 182.288 203.99 181.616 203.99C181.172 203.99 180.758 204.092 180.374 204.296C180.002 204.5 179.702 204.824 179.474 205.268C179.246 205.7 179.132 206.264 179.132 206.96V207.32C179.132 208.076 179.246 208.688 179.474 209.156C179.702 209.612 180.002 209.948 180.374 210.164C180.758 210.368 181.172 210.47 181.616 210.47C182.18 210.47 182.636 210.344 182.984 210.092C183.332 209.84 183.584 209.456 183.74 208.94H185.756C185.636 209.612 185.384 210.194 185 210.686C184.628 211.166 184.154 211.538 183.578 211.802C183.002 212.066 182.348 212.198 181.616 212.198ZM187.011 207.896V206.024H192.591V207.896H187.011ZM193.489 212L198.259 199.4H200.419L205.189 212H202.885L201.823 209.156H196.711L195.649 212H193.489ZM197.413 207.284H201.121L199.285 202.1L197.413 207.284ZM206.713 212V202.46H208.693V206.294H213.193V202.46H215.173V212H213.193V207.986H208.693V212H206.713ZM216.799 212L220.219 207.086L216.979 202.46H219.247L221.839 206.294H222.739V202.46H224.719V206.294H225.619L228.427 202.46H230.479L227.059 206.996L230.659 212H228.427L225.619 207.986H224.719V212H222.739V207.986H221.839L219.139 212H216.799ZM236.06 212.198C235.22 212.198 234.446 212.024 233.738 211.676C233.03 211.316 232.46 210.776 232.028 210.056C231.596 209.336 231.38 208.424 231.38 207.32V206.96C231.38 205.904 231.584 205.028 231.992 204.332C232.412 203.636 232.964 203.12 233.648 202.784C234.332 202.436 235.076 202.262 235.88 202.262C237.332 202.262 238.442 202.652 239.21 203.432C239.99 204.212 240.38 205.328 240.38 206.78V207.788H233.396C233.42 208.436 233.558 208.958 233.81 209.354C234.062 209.75 234.386 210.038 234.782 210.218C235.178 210.386 235.604 210.47 236.06 210.47C236.744 210.47 237.242 210.362 237.554 210.146C237.878 209.93 238.1 209.648 238.22 209.3H240.2C240.008 210.248 239.534 210.968 238.778 211.46C238.034 211.952 237.128 212.198 236.06 212.198ZM235.97 203.99C235.526 203.99 235.112 204.068 234.728 204.224C234.344 204.38 234.032 204.626 233.792 204.962C233.552 205.298 233.42 205.748 233.396 206.312H238.4C238.388 205.712 238.274 205.244 238.058 204.908C237.842 204.572 237.554 204.338 237.194 204.206C236.834 204.062 236.426 203.99 235.97 203.99ZM242.006 212.198C241.91 212.198 241.802 212.192 241.682 212.18C241.574 212.18 241.472 212.168 241.376 212.144V210.272C241.412 210.284 241.502 210.29 241.646 210.29C241.982 210.29 242.252 210.146 242.456 209.858C242.672 209.57 242.828 209.072 242.924 208.364C243.032 207.644 243.086 206.636 243.086 205.34V202.46H250.286V212H248.306V204.152H244.994V205.7C244.994 206.972 244.928 208.034 244.796 208.886C244.676 209.726 244.49 210.386 244.238 210.866C243.986 211.346 243.674 211.688 243.302 211.892C242.93 212.096 242.498 212.198 242.006 212.198ZM256.943 212.198C256.067 212.198 255.275 212.018 254.567 211.658C253.859 211.286 253.295 210.74 252.875 210.02C252.467 209.288 252.263 208.388 252.263 207.32V206.96C252.263 205.952 252.467 205.1 252.875 204.404C253.295 203.696 253.859 203.162 254.567 202.802C255.275 202.442 256.067 202.262 256.943 202.262C257.831 202.262 258.623 202.442 259.319 202.802C260.027 203.162 260.585 203.696 260.993 204.404C261.413 205.1 261.623 205.952 261.623 206.96V207.32C261.623 208.388 261.413 209.288 260.993 210.02C260.585 210.74 260.027 211.286 259.319 211.658C258.623 212.018 257.831 212.198 256.943 212.198ZM256.943 210.47C257.399 210.47 257.831 210.362 258.239 210.146C258.647 209.93 258.977 209.594 259.229 209.138C259.481 208.67 259.607 208.064 259.607 207.32V206.96C259.607 206.276 259.481 205.718 259.229 205.286C258.977 204.842 258.647 204.518 258.239 204.314C257.831 204.098 257.399 203.99 256.943 203.99C256.487 203.99 256.055 204.098 255.647 204.314C255.239 204.518 254.909 204.842 254.657 205.286C254.405 205.718 254.279 206.276 254.279 206.96V207.32C254.279 208.064 254.405 208.67 254.657 209.138C254.909 209.594 255.239 209.93 255.647 210.146C256.055 210.362 256.487 210.47 256.943 210.47ZM267.556 212.198C266.704 212.198 265.936 212.018 265.252 211.658C264.568 211.298 264.028 210.758 263.632 210.038C263.248 209.318 263.056 208.412 263.056 207.32V206.96C263.056 205.928 263.26 205.064 263.668 204.368C264.088 203.672 264.64 203.15 265.324 202.802C266.008 202.442 266.752 202.262 267.556 202.262C268.396 202.262 269.104 202.406 269.68 202.694C270.268 202.982 270.724 203.372 271.048 203.864C271.384 204.356 271.6 204.908 271.696 205.52H269.68C269.56 205.076 269.344 204.71 269.032 204.422C268.72 204.134 268.228 203.99 267.556 203.99C267.112 203.99 266.698 204.092 266.314 204.296C265.942 204.5 265.642 204.824 265.414 205.268C265.186 205.7 265.072 206.264 265.072 206.96V207.32C265.072 208.076 265.186 208.688 265.414 209.156C265.642 209.612 265.942 209.948 266.314 210.164C266.698 210.368 267.112 210.47 267.556 210.47C268.12 210.47 268.576 210.344 268.924 210.092C269.272 209.84 269.524 209.456 269.68 208.94H271.696C271.576 209.612 271.324 210.194 270.94 210.686C270.568 211.166 270.094 211.538 269.518 211.802C268.942 212.066 268.288 212.198 267.556 212.198ZM73.26 234V224.46H75.24V231.21L79.83 224.46H81.72V234H79.74V227.25L75.15 234H73.26ZM89.1063 234V221.4H91.3383L95.3523 228.87L99.3663 221.4H101.526V234H99.3663V225.18L96.0363 231.39H94.5963L91.2663 225.18V234H89.1063ZM108.548 234.198C107.708 234.198 106.934 234.024 106.226 233.676C105.518 233.316 104.948 232.776 104.516 232.056C104.084 231.336 103.868 230.424 103.868 229.32V228.96C103.868 227.904 104.072 227.028 104.48 226.332C104.9 225.636 105.452 225.12 106.136 224.784C106.82 224.436 107.564 224.262 108.368 224.262C109.82 224.262 110.93 224.652 111.698 225.432C112.478 226.212 112.868 227.328 112.868 228.78V229.788H105.884C105.908 230.436 106.046 230.958 106.298 231.354C106.55 231.75 106.874 232.038 107.27 232.218C107.666 232.386 108.092 232.47 108.548 232.47C109.232 232.47 109.73 232.362 110.042 232.146C110.366 231.93 110.588 231.648 110.708 231.3H112.688C112.496 232.248 112.022 232.968 111.266 233.46C110.522 233.952 109.616 234.198 108.548 234.198ZM108.458 225.99C108.014 225.99 107.6 226.068 107.216 226.224C106.832 226.38 106.52 226.626 106.28 226.962C106.04 227.298 105.908 227.748 105.884 228.312H110.888C110.876 227.712 110.762 227.244 110.546 226.908C110.33 226.572 110.042 226.338 109.682 226.206C109.322 226.062 108.914 225.99 108.458 225.99ZM114.494 234.198C114.398 234.198 114.29 234.192 114.17 234.18C114.062 234.18 113.96 234.168 113.864 234.144V232.272C113.9 232.284 113.99 232.29 114.134 232.29C114.47 232.29 114.74 232.146 114.944 231.858C115.16 231.57 115.316 231.072 115.412 230.364C115.52 229.644 115.574 228.636 115.574 227.34V224.46H122.774V234H120.794V226.152H117.482V227.7C117.482 228.972 117.416 230.034 117.284 230.886C117.164 231.726 116.978 232.386 116.726 232.866C116.474 233.346 116.162 233.688 115.79 233.892C115.418 234.096 114.986 234.198 114.494 234.198ZM125.471 234V224.46H127.451V227.808H129.611C130.835 227.808 131.741 228.072 132.329 228.6C132.917 229.116 133.211 229.884 133.211 230.904C133.211 231.54 133.085 232.092 132.833 232.56C132.581 233.028 132.191 233.388 131.663 233.64C131.135 233.88 130.451 234 129.611 234H125.471ZM127.451 232.308H129.431C130.091 232.308 130.553 232.194 130.817 231.966C131.093 231.726 131.231 231.372 131.231 230.904C131.231 230.436 131.093 230.088 130.817 229.86C130.553 229.62 130.091 229.5 129.431 229.5H127.451V232.308ZM139.152 234.198C138.288 234.198 137.508 233.988 136.812 233.568C136.116 233.148 135.564 232.53 135.156 231.714C134.76 230.898 134.562 229.908 134.562 228.744V228.384C134.562 226.944 134.706 225.72 134.994 224.712C135.294 223.692 135.798 222.9 136.506 222.336C137.226 221.772 138.21 221.46 139.458 221.4C139.962 221.376 140.436 221.358 140.88 221.346C141.324 221.322 141.726 221.286 142.086 221.238C142.446 221.178 142.758 221.082 143.022 220.95V222.768C142.902 222.84 142.704 222.906 142.428 222.966C142.164 223.014 141.81 223.056 141.366 223.092C140.922 223.116 140.376 223.14 139.728 223.164C138.984 223.176 138.366 223.296 137.874 223.524C137.382 223.74 137.004 224.088 136.74 224.568C136.476 225.048 136.308 225.702 136.236 226.53C136.428 226.146 136.686 225.816 137.01 225.54C137.334 225.252 137.724 225.03 138.18 224.874C138.636 224.706 139.14 224.622 139.692 224.622C140.484 224.622 141.186 224.796 141.798 225.144C142.41 225.492 142.884 225.996 143.22 226.656C143.568 227.304 143.742 228.09 143.742 229.014V229.428C143.742 230.424 143.538 231.282 143.13 232.002C142.734 232.71 142.188 233.256 141.492 233.64C140.808 234.012 140.028 234.198 139.152 234.198ZM139.152 232.47C139.932 232.47 140.556 232.212 141.024 231.696C141.492 231.18 141.726 230.424 141.726 229.428V229.014C141.726 228.174 141.486 227.52 141.006 227.052C140.538 226.584 139.92 226.35 139.152 226.35C138.384 226.35 137.76 226.584 137.28 227.052C136.812 227.508 136.578 228.162 136.578 229.014V229.428C136.578 230.064 136.692 230.61 136.92 231.066C137.148 231.522 137.454 231.87 137.838 232.11C138.234 232.35 138.672 232.47 139.152 232.47ZM146.895 237.798C146.715 237.798 146.535 237.78 146.355 237.744V236.016C146.535 236.052 146.715 236.07 146.895 236.07C147.159 236.07 147.375 236.004 147.543 235.872C147.711 235.752 147.867 235.542 148.011 235.242C148.155 234.942 148.323 234.528 148.515 234L144.465 224.46H146.625L149.541 231.84L152.169 224.46H154.185L150.495 234C150.147 234.888 149.817 235.614 149.505 236.178C149.193 236.742 148.839 237.15 148.443 237.402C148.047 237.666 147.531 237.798 146.895 237.798ZM155.807 237.6V224.46H157.643V226.062C157.931 225.51 158.357 225.072 158.921 224.748C159.497 224.424 160.145 224.262 160.865 224.262C162.113 224.262 163.097 224.652 163.817 225.432C164.537 226.212 164.897 227.388 164.897 228.96V229.32C164.897 230.4 164.729 231.306 164.393 232.038C164.057 232.758 163.589 233.298 162.989 233.658C162.389 234.018 161.681 234.198 160.865 234.198C160.181 234.198 159.557 234.048 158.993 233.748C158.429 233.448 158.027 233.028 157.787 232.488V237.6H155.807ZM160.397 232.47C161.141 232.47 161.741 232.212 162.197 231.696C162.653 231.18 162.881 230.388 162.881 229.32V228.96C162.881 227.952 162.659 227.208 162.215 226.728C161.771 226.236 161.165 225.99 160.397 225.99C159.953 225.99 159.527 226.086 159.119 226.278C158.723 226.47 158.399 226.752 158.147 227.124C157.907 227.496 157.787 227.958 157.787 228.51V229.77C157.787 230.37 157.907 230.874 158.147 231.282C158.399 231.678 158.723 231.978 159.119 232.182C159.515 232.374 159.941 232.47 160.397 232.47ZM166.881 234V224.46H168.861V228.294H173.361V224.46H175.341V234H173.361V229.986H168.861V234H166.881Z" fill="#313131"/>
</svg>
