<svg width="335" height="300" viewBox="0 0 335 300" fill="none" xmlns="http://www.w3.org/2000/svg">
<path d="M73.62 80V67.4H83.88V80H81.72V69.272H75.78V80H73.62ZM90.9 80.198C90.024 80.198 89.232 80.018 88.524 79.658C87.816 79.286 87.252 78.74 86.832 78.02C86.424 77.288 86.22 76.388 86.22 75.32V74.96C86.22 73.952 86.424 73.1 86.832 72.404C87.252 71.696 87.816 71.162 88.524 70.802C89.232 70.442 90.024 70.262 90.9 70.262C91.788 70.262 92.58 70.442 93.276 70.802C93.984 71.162 94.542 71.696 94.95 72.404C95.37 73.1 95.58 73.952 95.58 74.96V75.32C95.58 76.388 95.37 77.288 94.95 78.02C94.542 78.74 93.984 79.286 93.276 79.658C92.58 80.018 91.788 80.198 90.9 80.198ZM90.9 78.47C91.356 78.47 91.788 78.362 92.196 78.146C92.604 77.93 92.934 77.594 93.186 77.138C93.438 76.67 93.564 76.064 93.564 75.32V74.96C93.564 74.276 93.438 73.718 93.186 73.286C92.934 72.842 92.604 72.518 92.196 72.314C91.788 72.098 91.356 71.99 90.9 71.99C90.444 71.99 90.012 72.098 89.604 72.314C89.196 72.518 88.866 72.842 88.614 73.286C88.362 73.718 88.236 74.276 88.236 74.96V75.32C88.236 76.064 88.362 76.67 88.614 77.138C88.866 77.594 89.196 77.93 89.604 78.146C90.012 78.362 90.444 78.47 90.9 78.47ZM96.5651 82.25V78.308H97.6451C97.8131 78.056 97.9571 77.666 98.0771 77.138C98.1971 76.598 98.2871 75.98 98.3471 75.284C98.4191 74.588 98.4551 73.88 98.4551 73.16V70.46H105.565V78.308H106.825V82.25H104.989V80H98.4011V82.25H96.5651ZM99.6611 78.308H103.585V72.152H100.363V73.52C100.363 74.444 100.309 75.332 100.201 76.184C100.093 77.024 99.9131 77.732 99.6611 78.308ZM108.539 80V70.46H110.519V74.294H115.019V70.46H116.999V80H115.019V75.986H110.519V80H108.539ZM118.896 80L121.38 76.382C120.66 76.166 120.126 75.812 119.778 75.32C119.43 74.828 119.256 74.234 119.256 73.538C119.256 72.914 119.394 72.374 119.67 71.918C119.946 71.45 120.366 71.09 120.93 70.838C121.494 70.586 122.196 70.46 123.036 70.46H127.356V80H125.376V76.616H123.324L121.2 80H118.896ZM121.272 73.538C121.272 74.042 121.422 74.402 121.722 74.618C122.022 74.822 122.43 74.924 122.946 74.924H125.376V72.152H122.946C122.43 72.152 122.022 72.26 121.722 72.476C121.422 72.68 121.272 73.034 121.272 73.538ZM132.129 80V72.152H128.979V70.46H137.259V72.152H134.109V80H132.129ZM138.879 80V70.46H140.859V77.21L145.449 70.46H147.339V80H145.359V73.25L140.769 80H138.879ZM154.005 80.198C153.165 80.198 152.391 80.024 151.683 79.676C150.975 79.316 150.405 78.776 149.973 78.056C149.541 77.336 149.325 76.424 149.325 75.32V74.96C149.325 73.904 149.529 73.028 149.937 72.332C150.357 71.636 150.909 71.12 151.593 70.784C152.277 70.436 153.021 70.262 153.825 70.262C155.277 70.262 156.387 70.652 157.155 71.432C157.935 72.212 158.325 73.328 158.325 74.78V75.788H151.341C151.365 76.436 151.503 76.958 151.755 77.354C152.007 77.75 152.331 78.038 152.727 78.218C153.123 78.386 153.549 78.47 154.005 78.47C154.689 78.47 155.187 78.362 155.499 78.146C155.823 77.93 156.045 77.648 156.165 77.3H158.145C157.953 78.248 157.479 78.968 156.723 79.46C155.979 79.952 155.073 80.198 154.005 80.198ZM153.915 71.99C153.471 71.99 153.057 72.068 152.673 72.224C152.289 72.38 151.977 72.626 151.737 72.962C151.497 73.298 151.365 73.748 151.341 74.312H156.345C156.333 73.712 156.219 73.244 156.003 72.908C155.787 72.572 155.499 72.338 155.139 72.206C154.779 72.062 154.371 71.99 153.915 71.99ZM168.767 80.198C167.915 80.198 167.147 80.018 166.463 79.658C165.779 79.298 165.239 78.758 164.843 78.038C164.459 77.318 164.267 76.412 164.267 75.32V74.96C164.267 73.928 164.471 73.064 164.879 72.368C165.299 71.672 165.851 71.15 166.535 70.802C167.219 70.442 167.963 70.262 168.767 70.262C169.607 70.262 170.315 70.406 170.891 70.694C171.479 70.982 171.935 71.372 172.259 71.864C172.595 72.356 172.811 72.908 172.907 73.52H170.891C170.771 73.076 170.555 72.71 170.243 72.422C169.931 72.134 169.439 71.99 168.767 71.99C168.323 71.99 167.909 72.092 167.525 72.296C167.153 72.5 166.853 72.824 166.625 73.268C166.397 73.7 166.283 74.264 166.283 74.96V75.32C166.283 76.076 166.397 76.688 166.625 77.156C166.853 77.612 167.153 77.948 167.525 78.164C167.909 78.368 168.323 78.47 168.767 78.47C169.331 78.47 169.787 78.344 170.135 78.092C170.483 77.84 170.735 77.456 170.891 76.94H172.907C172.787 77.612 172.535 78.194 172.151 78.686C171.779 79.166 171.305 79.538 170.729 79.802C170.153 80.066 169.499 80.198 168.767 80.198ZM178.931 80.198C178.091 80.198 177.317 80.024 176.609 79.676C175.901 79.316 175.331 78.776 174.899 78.056C174.467 77.336 174.251 76.424 174.251 75.32V74.96C174.251 73.904 174.455 73.028 174.863 72.332C175.283 71.636 175.835 71.12 176.519 70.784C177.203 70.436 177.947 70.262 178.751 70.262C180.203 70.262 181.313 70.652 182.081 71.432C182.861 72.212 183.251 73.328 183.251 74.78V75.788H176.267C176.291 76.436 176.429 76.958 176.681 77.354C176.933 77.75 177.257 78.038 177.653 78.218C178.049 78.386 178.475 78.47 178.931 78.47C179.615 78.47 180.113 78.362 180.425 78.146C180.749 77.93 180.971 77.648 181.091 77.3H183.071C182.879 78.248 182.405 78.968 181.649 79.46C180.905 79.952 179.999 80.198 178.931 80.198ZM178.841 71.99C178.397 71.99 177.983 72.068 177.599 72.224C177.215 72.38 176.903 72.626 176.663 72.962C176.423 73.298 176.291 73.748 176.267 74.312H181.271C181.259 73.712 181.145 73.244 180.929 72.908C180.713 72.572 180.425 72.338 180.065 72.206C179.705 72.062 179.297 71.99 178.841 71.99ZM184.877 80.198C184.781 80.198 184.673 80.192 184.553 80.18C184.445 80.18 184.343 80.168 184.247 80.144V78.272C184.283 78.284 184.373 78.29 184.517 78.29C184.853 78.29 185.123 78.146 185.327 77.858C185.543 77.57 185.699 77.072 185.795 76.364C185.903 75.644 185.957 74.636 185.957 73.34V70.46H193.157V80H191.177V72.152H187.865V73.7C187.865 74.972 187.799 76.034 187.667 76.886C187.547 77.726 187.361 78.386 187.109 78.866C186.857 79.346 186.545 79.688 186.173 79.892C185.801 80.096 185.369 80.198 184.877 80.198ZM195.854 80V70.46H197.834V73.808H199.994C201.218 73.808 202.124 74.072 202.712 74.6C203.3 75.116 203.594 75.884 203.594 76.904C203.594 77.54 203.468 78.092 203.216 78.56C202.964 79.028 202.574 79.388 202.046 79.64C201.518 79.88 200.834 80 199.994 80H195.854ZM197.834 78.308H199.814C200.474 78.308 200.936 78.194 201.2 77.966C201.476 77.726 201.614 77.372 201.614 76.904C201.614 76.436 201.476 76.088 201.2 75.86C200.936 75.62 200.474 75.5 199.814 75.5H197.834V78.308ZM209.531 80.198C208.679 80.198 207.911 80.018 207.227 79.658C206.543 79.298 206.003 78.758 205.607 78.038C205.223 77.318 205.031 76.412 205.031 75.32V74.96C205.031 73.928 205.235 73.064 205.643 72.368C206.063 71.672 206.615 71.15 207.299 70.802C207.983 70.442 208.727 70.262 209.531 70.262C210.371 70.262 211.079 70.406 211.655 70.694C212.243 70.982 212.699 71.372 213.023 71.864C213.359 72.356 213.575 72.908 213.671 73.52H211.655C211.535 73.076 211.319 72.71 211.007 72.422C210.695 72.134 210.203 71.99 209.531 71.99C209.087 71.99 208.673 72.092 208.289 72.296C207.917 72.5 207.617 72.824 207.389 73.268C207.161 73.7 207.047 74.264 207.047 74.96V75.32C207.047 76.076 207.161 76.688 207.389 77.156C207.617 77.612 207.917 77.948 208.289 78.164C208.673 78.368 209.087 78.47 209.531 78.47C210.095 78.47 210.551 78.344 210.899 78.092C211.247 77.84 211.499 77.456 211.655 76.94H213.671C213.551 77.612 213.299 78.194 212.915 78.686C212.543 79.166 212.069 79.538 211.493 79.802C210.917 80.066 210.263 80.198 209.531 80.198ZM215.555 80V70.46H217.535V74.33H218.615L221.963 70.46H224.195L220.145 75.014L224.375 80H221.963L218.615 75.95H217.535V80H215.555ZM229.785 80.198C228.909 80.198 228.117 80.018 227.409 79.658C226.701 79.286 226.137 78.74 225.717 78.02C225.309 77.288 225.105 76.388 225.105 75.32V74.96C225.105 73.952 225.309 73.1 225.717 72.404C226.137 71.696 226.701 71.162 227.409 70.802C228.117 70.442 228.909 70.262 229.785 70.262C230.673 70.262 231.465 70.442 232.161 70.802C232.869 71.162 233.427 71.696 233.835 72.404C234.255 73.1 234.465 73.952 234.465 74.96V75.32C234.465 76.388 234.255 77.288 233.835 78.02C233.427 78.74 232.869 79.286 232.161 79.658C231.465 80.018 230.673 80.198 229.785 80.198ZM229.785 78.47C230.241 78.47 230.673 78.362 231.081 78.146C231.489 77.93 231.819 77.594 232.071 77.138C232.323 76.67 232.449 76.064 232.449 75.32V74.96C232.449 74.276 232.323 73.718 232.071 73.286C231.819 72.842 231.489 72.518 231.081 72.314C230.673 72.098 230.241 71.99 229.785 71.99C229.329 71.99 228.897 72.098 228.489 72.314C228.081 72.518 227.751 72.842 227.499 73.286C227.247 73.718 227.121 74.276 227.121 74.96V75.32C227.121 76.064 227.247 76.67 227.499 77.138C227.751 77.594 228.081 77.93 228.489 78.146C228.897 78.362 229.329 78.47 229.785 78.47ZM236.438 80V70.46H243.098V72.152H238.418V80H236.438ZM248.681 80.198C247.805 80.198 247.013 80.018 246.305 79.658C245.597 79.286 245.033 78.74 244.613 78.02C244.205 77.288 244.001 76.388 244.001 75.32V74.96C244.001 73.952 244.205 73.1 244.613 72.404C245.033 71.696 245.597 71.162 246.305 70.802C247.013 70.442 247.805 70.262 248.681 70.262C249.569 70.262 250.361 70.442 251.057 70.802C251.765 71.162 252.323 71.696 252.731 72.404C253.151 73.1 253.361 73.952 253.361 74.96V75.32C253.361 76.388 253.151 77.288 252.731 78.02C252.323 78.74 251.765 79.286 251.057 79.658C250.361 80.018 249.569 80.198 248.681 80.198ZM248.681 78.47C249.137 78.47 249.569 78.362 249.977 78.146C250.385 77.93 250.715 77.594 250.967 77.138C251.219 76.67 251.345 76.064 251.345 75.32V74.96C251.345 74.276 251.219 73.718 250.967 73.286C250.715 72.842 250.385 72.518 249.977 72.314C249.569 72.098 249.137 71.99 248.681 71.99C248.225 71.99 247.793 72.098 247.385 72.314C246.977 72.518 246.647 72.842 246.395 73.286C246.143 73.718 246.017 74.276 246.017 74.96V75.32C246.017 76.064 246.143 76.67 246.395 77.138C246.647 77.594 246.977 77.93 247.385 78.146C247.793 78.362 248.225 78.47 248.681 78.47ZM72.36 102L75.798 97.032L72.54 92.46H74.772L77.094 95.664L79.38 92.46H81.54L78.318 96.96L81.72 102H79.452L77.022 98.292L74.556 102H72.36ZM87.1207 102.198C86.2447 102.198 85.4527 102.018 84.7447 101.658C84.0367 101.286 83.4727 100.74 83.0527 100.02C82.6447 99.288 82.4407 98.388 82.4407 97.32V96.96C82.4407 95.952 82.6447 95.1 83.0527 94.404C83.4727 93.696 84.0367 93.162 84.7447 92.802C85.4527 92.442 86.2447 92.262 87.1207 92.262C88.0087 92.262 88.8007 92.442 89.4967 92.802C90.2047 93.162 90.7627 93.696 91.1707 94.404C91.5907 95.1 91.8007 95.952 91.8007 96.96V97.32C91.8007 98.388 91.5907 99.288 91.1707 100.02C90.7627 100.74 90.2047 101.286 89.4967 101.658C88.8007 102.018 88.0087 102.198 87.1207 102.198ZM87.1207 100.47C87.5767 100.47 88.0087 100.362 88.4167 100.146C88.8247 99.93 89.1547 99.594 89.4067 99.138C89.6587 98.67 89.7847 98.064 89.7847 97.32V96.96C89.7847 96.276 89.6587 95.718 89.4067 95.286C89.1547 94.842 88.8247 94.518 88.4167 94.314C88.0087 94.098 87.5767 93.99 87.1207 93.99C86.6647 93.99 86.2327 94.098 85.8247 94.314C85.4167 94.518 85.0867 94.842 84.8347 95.286C84.5827 95.718 84.4567 96.276 84.4567 96.96V97.32C84.4567 98.064 84.5827 98.67 84.8347 99.138C85.0867 99.594 85.4167 99.93 85.8247 100.146C86.2327 100.362 86.6647 100.47 87.1207 100.47ZM97.2837 102.198C96.4197 102.198 95.6877 102.078 95.0877 101.838C94.4877 101.598 94.0257 101.25 93.7017 100.794C93.3777 100.326 93.1917 99.768 93.1437 99.12H95.1597C95.2077 99.408 95.3037 99.654 95.4477 99.858C95.6037 100.062 95.8257 100.218 96.1137 100.326C96.4137 100.422 96.7917 100.47 97.2477 100.47C98.0637 100.47 98.6277 100.338 98.9397 100.074C99.2517 99.81 99.4077 99.48 99.4077 99.084C99.4077 98.724 99.2697 98.442 98.9937 98.238C98.7297 98.022 98.2617 97.914 97.5897 97.914H96.0237V96.366H97.4637C98.0157 96.366 98.4177 96.252 98.6697 96.024C98.9217 95.796 99.0477 95.508 99.0477 95.16C99.0477 94.848 98.9157 94.578 98.6517 94.35C98.3877 94.11 97.9317 93.99 97.2837 93.99C96.5877 93.99 96.1017 94.104 95.8257 94.332C95.5617 94.56 95.3997 94.866 95.3397 95.25H93.3237C93.3717 94.638 93.5517 94.11 93.8637 93.666C94.1757 93.222 94.6197 92.88 95.1957 92.64C95.7717 92.388 96.4677 92.262 97.2837 92.262C98.5917 92.262 99.5457 92.52 100.146 93.036C100.758 93.552 101.064 94.224 101.064 95.052C101.064 95.508 100.95 95.91 100.722 96.258C100.506 96.606 100.146 96.87 99.6417 97.05C100.314 97.218 100.776 97.5 101.028 97.896C101.292 98.292 101.424 98.748 101.424 99.264C101.424 99.816 101.274 100.314 100.974 100.758C100.674 101.202 100.218 101.556 99.6057 101.82C98.9937 102.072 98.2197 102.198 97.2837 102.198ZM102.776 102L105.26 98.382C104.54 98.166 104.006 97.812 103.658 97.32C103.31 96.828 103.136 96.234 103.136 95.538C103.136 94.914 103.274 94.374 103.55 93.918C103.826 93.45 104.246 93.09 104.81 92.838C105.374 92.586 106.076 92.46 106.916 92.46H111.236V102H109.256V98.616H107.204L105.08 102H102.776ZM105.152 95.538C105.152 96.042 105.302 96.402 105.602 96.618C105.902 96.822 106.31 96.924 106.826 96.924H109.256V94.152H106.826C106.31 94.152 105.902 94.26 105.602 94.476C105.302 94.68 105.152 95.034 105.152 95.538ZM113.76 102V92.46H115.74V99.21L120.33 92.46H122.22V102H120.24V95.25L115.65 102H113.76ZM117.99 91.38C116.994 91.38 116.262 91.164 115.794 90.732C115.338 90.288 115.11 89.664 115.11 88.86H116.946C116.946 89.292 117.03 89.604 117.198 89.796C117.378 89.988 117.642 90.084 117.99 90.084C118.338 90.084 118.596 89.988 118.764 89.796C118.944 89.604 119.034 89.292 119.034 88.86H120.87C120.87 89.664 120.636 90.288 120.168 90.732C119.7 91.164 118.974 91.38 117.99 91.38ZM128.706 102.198C127.854 102.198 127.086 102.018 126.402 101.658C125.718 101.298 125.178 100.758 124.782 100.038C124.398 99.318 124.206 98.412 124.206 97.32V96.96C124.206 95.928 124.41 95.064 124.818 94.368C125.238 93.672 125.79 93.15 126.474 92.802C127.158 92.442 127.902 92.262 128.706 92.262C129.546 92.262 130.254 92.406 130.83 92.694C131.418 92.982 131.874 93.372 132.198 93.864C132.534 94.356 132.75 94.908 132.846 95.52H130.83C130.71 95.076 130.494 94.71 130.182 94.422C129.87 94.134 129.378 93.99 128.706 93.99C128.262 93.99 127.848 94.092 127.464 94.296C127.092 94.5 126.792 94.824 126.564 95.268C126.336 95.7 126.222 96.264 126.222 96.96V97.32C126.222 98.076 126.336 98.688 126.564 99.156C126.792 99.612 127.092 99.948 127.464 100.164C127.848 100.368 128.262 100.47 128.706 100.47C129.27 100.47 129.726 100.344 130.074 100.092C130.422 99.84 130.674 99.456 130.83 98.94H132.846C132.726 99.612 132.474 100.194 132.09 100.686C131.718 101.166 131.244 101.538 130.668 101.802C130.092 102.066 129.438 102.198 128.706 102.198ZM136.981 102V94.152H133.831V92.46H142.111V94.152H138.961V102H136.981ZM143.731 102V92.46H148.231C149.035 92.46 149.683 92.574 150.175 92.802C150.679 93.018 151.051 93.324 151.291 93.72C151.531 94.104 151.651 94.548 151.651 95.052C151.651 95.472 151.525 95.88 151.273 96.276C151.021 96.66 150.667 96.918 150.211 97.05C150.799 97.194 151.243 97.47 151.543 97.878C151.855 98.274 152.011 98.742 152.011 99.282C152.011 100.11 151.735 100.77 151.183 101.262C150.631 101.754 149.767 102 148.591 102H143.731ZM145.711 100.308H148.321C148.969 100.308 149.413 100.206 149.653 100.002C149.905 99.786 150.031 99.486 150.031 99.102C150.031 98.718 149.905 98.43 149.653 98.238C149.413 98.034 148.969 97.932 148.321 97.932H145.711V100.308ZM145.711 96.384H148.051C148.651 96.384 149.071 96.288 149.311 96.096C149.551 95.892 149.671 95.616 149.671 95.268C149.671 94.92 149.551 94.65 149.311 94.458C149.071 94.254 148.651 94.152 148.051 94.152H145.711V96.384ZM156.786 102.198C156.102 102.198 155.514 102.072 155.022 101.82C154.542 101.556 154.176 101.196 153.924 100.74C153.672 100.284 153.546 99.774 153.546 99.21C153.546 98.262 153.828 97.56 154.392 97.104C154.956 96.636 155.784 96.402 156.876 96.402H159.846V95.88C159.846 95.16 159.684 94.668 159.36 94.404C159.048 94.128 158.55 93.99 157.866 93.99C157.254 93.99 156.804 94.086 156.516 94.278C156.228 94.47 156.06 94.734 156.012 95.07H154.086C154.122 94.518 154.296 94.032 154.608 93.612C154.92 93.192 155.358 92.862 155.922 92.622C156.498 92.382 157.176 92.262 157.956 92.262C158.736 92.262 159.414 92.382 159.99 92.622C160.578 92.862 161.028 93.24 161.34 93.756C161.664 94.26 161.826 94.932 161.826 95.772V99.57C161.826 100.074 161.832 100.518 161.844 100.902C161.856 101.274 161.886 101.64 161.934 102H160.134C160.098 101.724 160.068 101.49 160.044 101.298C160.032 101.106 160.026 100.866 160.026 100.578C159.798 101.022 159.402 101.406 158.838 101.73C158.286 102.042 157.602 102.198 156.786 102.198ZM157.326 100.47C157.782 100.47 158.196 100.392 158.568 100.236C158.952 100.08 159.258 99.846 159.486 99.534C159.726 99.222 159.846 98.844 159.846 98.4V97.878H157.236C156.732 97.878 156.324 97.986 156.012 98.202C155.712 98.418 155.562 98.736 155.562 99.156C155.562 99.552 155.7 99.87 155.976 100.11C156.264 100.35 156.714 100.47 157.326 100.47ZM168.762 102V92.46H173.262C174.066 92.46 174.714 92.574 175.206 92.802C175.71 93.018 176.082 93.324 176.322 93.72C176.562 94.104 176.682 94.548 176.682 95.052C176.682 95.472 176.556 95.88 176.304 96.276C176.052 96.66 175.698 96.918 175.242 97.05C175.83 97.194 176.274 97.47 176.574 97.878C176.886 98.274 177.042 98.742 177.042 99.282C177.042 100.11 176.766 100.77 176.214 101.262C175.662 101.754 174.798 102 173.622 102H168.762ZM170.742 100.308H173.352C174 100.308 174.444 100.206 174.684 100.002C174.936 99.786 175.062 99.486 175.062 99.102C175.062 98.718 174.936 98.43 174.684 98.238C174.444 98.034 174 97.932 173.352 97.932H170.742V100.308ZM170.742 96.384H173.082C173.682 96.384 174.102 96.288 174.342 96.096C174.582 95.892 174.702 95.616 174.702 95.268C174.702 94.92 174.582 94.65 174.342 94.458C174.102 94.254 173.682 94.152 173.082 94.152H170.742V96.384ZM183.528 105.6V92.46H185.364V94.062C185.652 93.51 186.078 93.072 186.642 92.748C187.218 92.424 187.866 92.262 188.586 92.262C189.834 92.262 190.818 92.652 191.538 93.432C192.258 94.212 192.618 95.388 192.618 96.96V97.32C192.618 98.4 192.45 99.306 192.114 100.038C191.778 100.758 191.31 101.298 190.71 101.658C190.11 102.018 189.402 102.198 188.586 102.198C187.902 102.198 187.278 102.048 186.714 101.748C186.15 101.448 185.748 101.028 185.508 100.488V105.6H183.528ZM188.118 100.47C188.862 100.47 189.462 100.212 189.918 99.696C190.374 99.18 190.602 98.388 190.602 97.32V96.96C190.602 95.952 190.38 95.208 189.936 94.728C189.492 94.236 188.886 93.99 188.118 93.99C187.674 93.99 187.248 94.086 186.84 94.278C186.444 94.47 186.12 94.752 185.868 95.124C185.628 95.496 185.508 95.958 185.508 96.51V97.77C185.508 98.37 185.628 98.874 185.868 99.282C186.12 99.678 186.444 99.978 186.84 100.182C187.236 100.374 187.662 100.47 188.118 100.47ZM197.392 102.198C196.708 102.198 196.12 102.072 195.628 101.82C195.148 101.556 194.782 101.196 194.53 100.74C194.278 100.284 194.152 99.774 194.152 99.21C194.152 98.262 194.434 97.56 194.998 97.104C195.562 96.636 196.39 96.402 197.482 96.402H200.452V95.88C200.452 95.16 200.29 94.668 199.966 94.404C199.654 94.128 199.156 93.99 198.472 93.99C197.86 93.99 197.41 94.086 197.122 94.278C196.834 94.47 196.666 94.734 196.618 95.07H194.692C194.728 94.518 194.902 94.032 195.214 93.612C195.526 93.192 195.964 92.862 196.528 92.622C197.104 92.382 197.782 92.262 198.562 92.262C199.342 92.262 200.02 92.382 200.596 92.622C201.184 92.862 201.634 93.24 201.946 93.756C202.27 94.26 202.432 94.932 202.432 95.772V99.57C202.432 100.074 202.438 100.518 202.45 100.902C202.462 101.274 202.492 101.64 202.54 102H200.74C200.704 101.724 200.674 101.49 200.65 101.298C200.638 101.106 200.632 100.866 200.632 100.578C200.404 101.022 200.008 101.406 199.444 101.73C198.892 102.042 198.208 102.198 197.392 102.198ZM197.932 100.47C198.388 100.47 198.802 100.392 199.174 100.236C199.558 100.08 199.864 99.846 200.092 99.534C200.332 99.222 200.452 98.844 200.452 98.4V97.878H197.842C197.338 97.878 196.93 97.986 196.618 98.202C196.318 98.418 196.168 98.736 196.168 99.156C196.168 99.552 196.306 99.87 196.582 100.11C196.87 100.35 197.32 100.47 197.932 100.47ZM203.967 104.25V100.308H205.047C205.215 100.056 205.359 99.666 205.479 99.138C205.599 98.598 205.689 97.98 205.749 97.284C205.821 96.588 205.857 95.88 205.857 95.16V92.46H212.967V100.308H214.227V104.25H212.391V102H205.803V104.25H203.967ZM207.063 100.308H210.987V94.152H207.765V95.52C207.765 96.444 207.711 97.332 207.603 98.184C207.495 99.024 207.315 99.732 207.063 100.308ZM215.942 102V92.46H217.922V99.21L222.512 92.46H224.402V102H222.422V95.25L217.832 102H215.942ZM228.458 105.798C228.278 105.798 228.098 105.78 227.918 105.744V104.016C228.098 104.052 228.278 104.07 228.458 104.07C228.722 104.07 228.938 104.004 229.106 103.872C229.274 103.752 229.43 103.542 229.574 103.242C229.718 102.942 229.886 102.528 230.078 102L226.028 92.46H228.188L231.104 99.84L233.732 92.46H235.748L232.058 102C231.71 102.888 231.38 103.614 231.068 104.178C230.756 104.742 230.402 105.15 230.006 105.402C229.61 105.666 229.094 105.798 228.458 105.798ZM240.978 102.198C240.126 102.198 239.358 102.018 238.674 101.658C237.99 101.298 237.45 100.758 237.054 100.038C236.67 99.318 236.478 98.412 236.478 97.32V96.96C236.478 95.928 236.682 95.064 237.09 94.368C237.51 93.672 238.062 93.15 238.746 92.802C239.43 92.442 240.174 92.262 240.978 92.262C241.818 92.262 242.526 92.406 243.102 92.694C243.69 92.982 244.146 93.372 244.47 93.864C244.806 94.356 245.022 94.908 245.118 95.52H243.102C242.982 95.076 242.766 94.71 242.454 94.422C242.142 94.134 241.65 93.99 240.978 93.99C240.534 93.99 240.12 94.092 239.736 94.296C239.364 94.5 239.064 94.824 238.836 95.268C238.608 95.7 238.494 96.264 238.494 96.96V97.32C238.494 98.076 238.608 98.688 238.836 99.156C239.064 99.612 239.364 99.948 239.736 100.164C240.12 100.368 240.534 100.47 240.978 100.47C241.542 100.47 241.998 100.344 242.346 100.092C242.694 99.84 242.946 99.456 243.102 98.94H245.118C244.998 99.612 244.746 100.194 244.362 100.686C243.99 101.166 243.516 101.538 242.94 101.802C242.364 102.066 241.71 102.198 240.978 102.198ZM251.142 102.198C250.302 102.198 249.528 102.024 248.82 101.676C248.112 101.316 247.542 100.776 247.11 100.056C246.678 99.336 246.462 98.424 246.462 97.32V96.96C246.462 95.904 246.666 95.028 247.074 94.332C247.494 93.636 248.046 93.12 248.73 92.784C249.414 92.436 250.158 92.262 250.962 92.262C252.414 92.262 253.524 92.652 254.292 93.432C255.072 94.212 255.462 95.328 255.462 96.78V97.788H248.478C248.502 98.436 248.64 98.958 248.892 99.354C249.144 99.75 249.468 100.038 249.864 100.218C250.26 100.386 250.686 100.47 251.142 100.47C251.826 100.47 252.324 100.362 252.636 100.146C252.96 99.93 253.182 99.648 253.302 99.3H255.282C255.09 100.248 254.616 100.968 253.86 101.46C253.116 101.952 252.21 102.198 251.142 102.198ZM251.052 93.99C250.608 93.99 250.194 94.068 249.81 94.224C249.426 94.38 249.114 94.626 248.874 94.962C248.634 95.298 248.502 95.748 248.478 96.312H253.482C253.47 95.712 253.356 95.244 253.14 94.908C252.924 94.572 252.636 94.338 252.276 94.206C251.916 94.062 251.508 93.99 251.052 93.99ZM73.26 124V114.46H75.24V118.294H79.74V114.46H81.72V124H79.74V119.986H75.24V124H73.26ZM87.0363 124.198C86.3523 124.198 85.7643 124.072 85.2723 123.82C84.7923 123.556 84.4263 123.196 84.1743 122.74C83.9223 122.284 83.7963 121.774 83.7963 121.21C83.7963 120.262 84.0783 119.56 84.6423 119.104C85.2063 118.636 86.0343 118.402 87.1263 118.402H90.0963V117.88C90.0963 117.16 89.9343 116.668 89.6103 116.404C89.2983 116.128 88.8003 115.99 88.1163 115.99C87.5043 115.99 87.0543 116.086 86.7663 116.278C86.4783 116.47 86.3103 116.734 86.2623 117.07H84.3363C84.3723 116.518 84.5463 116.032 84.8583 115.612C85.1703 115.192 85.6083 114.862 86.1723 114.622C86.7483 114.382 87.4263 114.262 88.2063 114.262C88.9863 114.262 89.6643 114.382 90.2403 114.622C90.8283 114.862 91.2783 115.24 91.5903 115.756C91.9143 116.26 92.0763 116.932 92.0763 117.772V121.57C92.0763 122.074 92.0823 122.518 92.0943 122.902C92.1063 123.274 92.1363 123.64 92.1843 124H90.3843C90.3483 123.724 90.3183 123.49 90.2943 123.298C90.2823 123.106 90.2763 122.866 90.2763 122.578C90.0483 123.022 89.6523 123.406 89.0883 123.73C88.5363 124.042 87.8523 124.198 87.0363 124.198ZM87.5763 122.47C88.0323 122.47 88.4463 122.392 88.8183 122.236C89.2023 122.08 89.5083 121.846 89.7363 121.534C89.9763 121.222 90.0963 120.844 90.0963 120.4V119.878H87.4863C86.9823 119.878 86.5743 119.986 86.2623 120.202C85.9623 120.418 85.8123 120.736 85.8123 121.156C85.8123 121.552 85.9503 121.87 86.2263 122.11C86.5143 122.35 86.9643 122.47 87.5763 122.47ZM101.262 124V116.152H98.112V114.46H106.392V116.152H103.242V124H101.262ZM108.012 124V114.46H109.992V117.808H111.792C113.016 117.808 113.922 118.072 114.51 118.6C115.098 119.116 115.392 119.884 115.392 120.904C115.392 121.54 115.266 122.092 115.014 122.56C114.762 123.028 114.372 123.388 113.844 123.64C113.316 123.88 112.632 124 111.792 124H108.012ZM109.992 122.308H111.612C112.272 122.308 112.734 122.194 112.998 121.966C113.274 121.726 113.412 121.372 113.412 120.904C113.412 120.436 113.274 120.088 112.998 119.86C112.734 119.62 112.272 119.5 111.612 119.5H109.992V122.308ZM116.652 124V114.46H118.632V124H116.652ZM125.296 124.198C124.444 124.198 123.676 124.018 122.992 123.658C122.308 123.298 121.768 122.758 121.372 122.038C120.988 121.318 120.796 120.412 120.796 119.32V118.96C120.796 117.928 121 117.064 121.408 116.368C121.828 115.672 122.38 115.15 123.064 114.802C123.748 114.442 124.492 114.262 125.296 114.262C126.136 114.262 126.844 114.406 127.42 114.694C128.008 114.982 128.464 115.372 128.788 115.864C129.124 116.356 129.34 116.908 129.436 117.52H127.42C127.3 117.076 127.084 116.71 126.772 116.422C126.46 116.134 125.968 115.99 125.296 115.99C124.852 115.99 124.438 116.092 124.054 116.296C123.682 116.5 123.382 116.824 123.154 117.268C122.926 117.7 122.812 118.264 122.812 118.96V119.32C122.812 120.076 122.926 120.688 123.154 121.156C123.382 121.612 123.682 121.948 124.054 122.164C124.438 122.368 124.852 122.47 125.296 122.47C125.86 122.47 126.316 122.344 126.664 122.092C127.012 121.84 127.264 121.456 127.42 120.94H129.436C129.316 121.612 129.064 122.194 128.68 122.686C128.308 123.166 127.834 123.538 127.258 123.802C126.682 124.066 126.028 124.198 125.296 124.198ZM130.691 124L133.175 120.382C132.455 120.166 131.921 119.812 131.573 119.32C131.225 118.828 131.051 118.234 131.051 117.538C131.051 116.914 131.189 116.374 131.465 115.918C131.741 115.45 132.161 115.09 132.725 114.838C133.289 114.586 133.991 114.46 134.831 114.46H139.151V124H137.171V120.616H135.119L132.995 124H130.691ZM133.067 117.538C133.067 118.042 133.217 118.402 133.517 118.618C133.817 118.822 134.225 118.924 134.741 118.924H137.171V116.152H134.741C134.225 116.152 133.817 116.26 133.517 116.476C133.217 116.68 133.067 117.034 133.067 117.538ZM147.254 124V120.346C146.978 120.514 146.648 120.664 146.264 120.796C145.892 120.928 145.412 120.994 144.824 120.994C143.684 120.994 142.814 120.724 142.214 120.184C141.614 119.644 141.314 118.786 141.314 117.61V114.46H143.294V117.34C143.294 118.06 143.438 118.564 143.726 118.852C144.026 119.128 144.542 119.266 145.274 119.266C145.778 119.266 146.198 119.212 146.534 119.104C146.882 118.984 147.122 118.87 147.254 118.762V114.46H149.234V124H147.254ZM153.276 127.798C153.096 127.798 152.916 127.78 152.736 127.744V126.016C152.916 126.052 153.096 126.07 153.276 126.07C153.54 126.07 153.756 126.004 153.924 125.872C154.092 125.752 154.248 125.542 154.392 125.242C154.536 124.942 154.704 124.528 154.896 124L150.846 114.46H153.006L155.922 121.84L158.55 114.46H160.566L156.876 124C156.528 124.888 156.198 125.614 155.886 126.178C155.574 126.742 155.22 127.15 154.824 127.402C154.428 127.666 153.912 127.798 153.276 127.798ZM166.688 124V114.46H168.668V118.33H169.748L173.096 114.46H175.328L171.278 119.014L175.508 124H173.096L169.748 119.95H168.668V124H166.688ZM177.129 124V114.46H179.109V121.21L183.699 114.46H185.589V124H183.609V117.25L179.019 124H177.129ZM187.935 124.198C187.839 124.198 187.731 124.192 187.611 124.18C187.503 124.18 187.401 124.168 187.305 124.144V122.272C187.341 122.284 187.431 122.29 187.575 122.29C187.911 122.29 188.181 122.146 188.385 121.858C188.601 121.57 188.757 121.072 188.853 120.364C188.961 119.644 189.015 118.636 189.015 117.34V114.46H196.215V124H194.235V116.152H190.923V117.7C190.923 118.972 190.857 120.034 190.725 120.886C190.605 121.726 190.419 122.386 190.167 122.866C189.915 123.346 189.603 123.688 189.231 123.892C188.859 124.096 188.427 124.198 187.935 124.198ZM202.873 124.198C201.997 124.198 201.205 124.018 200.497 123.658C199.789 123.286 199.225 122.74 198.805 122.02C198.397 121.288 198.193 120.388 198.193 119.32V118.96C198.193 117.952 198.397 117.1 198.805 116.404C199.225 115.696 199.789 115.162 200.497 114.802C201.205 114.442 201.997 114.262 202.873 114.262C203.761 114.262 204.553 114.442 205.249 114.802C205.957 115.162 206.515 115.696 206.923 116.404C207.343 117.1 207.553 117.952 207.553 118.96V119.32C207.553 120.388 207.343 121.288 206.923 122.02C206.515 122.74 205.957 123.286 205.249 123.658C204.553 124.018 203.761 124.198 202.873 124.198ZM202.873 122.47C203.329 122.47 203.761 122.362 204.169 122.146C204.577 121.93 204.907 121.594 205.159 121.138C205.411 120.67 205.537 120.064 205.537 119.32V118.96C205.537 118.276 205.411 117.718 205.159 117.286C204.907 116.842 204.577 116.518 204.169 116.314C203.761 116.098 203.329 115.99 202.873 115.99C202.417 115.99 201.985 116.098 201.577 116.314C201.169 116.518 200.839 116.842 200.587 117.286C200.335 117.718 200.209 118.276 200.209 118.96V119.32C200.209 120.064 200.335 120.67 200.587 121.138C200.839 121.594 201.169 121.93 201.577 122.146C201.985 122.362 202.417 122.47 202.873 122.47ZM209.526 124V114.46H211.758L214.8 120.04L217.842 114.46H219.966V124H217.986V117.43L215.466 122.02H214.026L211.506 117.43V124H209.526ZM226.621 124.198C225.781 124.198 225.007 124.024 224.299 123.676C223.591 123.316 223.021 122.776 222.589 122.056C222.157 121.336 221.941 120.424 221.941 119.32V118.96C221.941 117.904 222.145 117.028 222.553 116.332C222.973 115.636 223.525 115.12 224.209 114.784C224.893 114.436 225.637 114.262 226.441 114.262C227.893 114.262 229.003 114.652 229.771 115.432C230.551 116.212 230.941 117.328 230.941 118.78V119.788H223.957C223.981 120.436 224.119 120.958 224.371 121.354C224.623 121.75 224.947 122.038 225.343 122.218C225.739 122.386 226.165 122.47 226.621 122.47C227.305 122.47 227.803 122.362 228.115 122.146C228.439 121.93 228.661 121.648 228.781 121.3H230.761C230.569 122.248 230.095 122.968 229.339 123.46C228.595 123.952 227.689 124.198 226.621 124.198ZM226.531 115.99C226.087 115.99 225.673 116.068 225.289 116.224C224.905 116.38 224.593 116.626 224.353 116.962C224.113 117.298 223.981 117.748 223.957 118.312H228.961C228.949 117.712 228.835 117.244 228.619 116.908C228.403 116.572 228.115 116.338 227.755 116.206C227.395 116.062 226.987 115.99 226.531 115.99ZM234.996 124V116.152H231.846V114.46H240.126V116.152H236.976V124H234.996ZM241.746 127.6V114.46H243.582V116.062C243.87 115.51 244.296 115.072 244.86 114.748C245.436 114.424 246.084 114.262 246.804 114.262C248.052 114.262 249.036 114.652 249.756 115.432C250.476 116.212 250.836 117.388 250.836 118.96V119.32C250.836 120.4 250.668 121.306 250.332 122.038C249.996 122.758 249.528 123.298 248.928 123.658C248.328 124.018 247.62 124.198 246.804 124.198C246.12 124.198 245.496 124.048 244.932 123.748C244.368 123.448 243.966 123.028 243.726 122.488V127.6H241.746ZM246.336 122.47C247.08 122.47 247.68 122.212 248.136 121.696C248.592 121.18 248.82 120.388 248.82 119.32V118.96C248.82 117.952 248.598 117.208 248.154 116.728C247.71 116.236 247.104 115.99 246.336 115.99C245.892 115.99 245.466 116.086 245.058 116.278C244.662 116.47 244.338 116.752 244.086 117.124C243.846 117.496 243.726 117.958 243.726 118.51V119.77C243.726 120.37 243.846 120.874 244.086 121.282C244.338 121.678 244.662 121.978 245.058 122.182C245.454 122.374 245.88 122.47 246.336 122.47ZM256.961 124.198C256.085 124.198 255.293 124.018 254.585 123.658C253.877 123.286 253.313 122.74 252.893 122.02C252.485 121.288 252.281 120.388 252.281 119.32V118.96C252.281 117.952 252.485 117.1 252.893 116.404C253.313 115.696 253.877 115.162 254.585 114.802C255.293 114.442 256.085 114.262 256.961 114.262C257.849 114.262 258.641 114.442 259.337 114.802C260.045 115.162 260.603 115.696 261.011 116.404C261.431 117.1 261.641 117.952 261.641 118.96V119.32C261.641 120.388 261.431 121.288 261.011 122.02C260.603 122.74 260.045 123.286 259.337 123.658C258.641 124.018 257.849 124.198 256.961 124.198ZM256.961 122.47C257.417 122.47 257.849 122.362 258.257 122.146C258.665 121.93 258.995 121.594 259.247 121.138C259.499 120.67 259.625 120.064 259.625 119.32V118.96C259.625 118.276 259.499 117.718 259.247 117.286C258.995 116.842 258.665 116.518 258.257 116.314C257.849 116.098 257.417 115.99 256.961 115.99C256.505 115.99 256.073 116.098 255.665 116.314C255.257 116.518 254.927 116.842 254.675 117.286C254.423 117.718 254.297 118.276 254.297 118.96V119.32C254.297 120.064 254.423 120.67 254.675 121.138C254.927 121.594 255.257 121.93 255.665 122.146C256.073 122.362 256.505 122.47 256.961 122.47ZM263.614 124V114.46H268.114C268.918 114.46 269.566 114.574 270.058 114.802C270.562 115.018 270.934 115.324 271.174 115.72C271.414 116.104 271.534 116.548 271.534 117.052C271.534 117.472 271.408 117.88 271.156 118.276C270.904 118.66 270.55 118.918 270.094 119.05C270.682 119.194 271.126 119.47 271.426 119.878C271.738 120.274 271.894 120.742 271.894 121.282C271.894 122.11 271.618 122.77 271.066 123.262C270.514 123.754 269.65 124 268.474 124H263.614ZM265.594 122.308H268.204C268.852 122.308 269.296 122.206 269.536 122.002C269.788 121.786 269.914 121.486 269.914 121.102C269.914 120.718 269.788 120.43 269.536 120.238C269.296 120.034 268.852 119.932 268.204 119.932H265.594V122.308ZM265.594 118.384H267.934C268.534 118.384 268.954 118.288 269.194 118.096C269.434 117.892 269.554 117.616 269.554 117.268C269.554 116.92 269.434 116.65 269.194 116.458C268.954 116.254 268.534 116.152 267.934 116.152H265.594V118.384ZM275.409 124.198C275.145 124.198 274.899 124.132 274.671 124C274.455 123.88 274.281 123.712 274.149 123.496C274.029 123.268 273.969 123.022 273.969 122.758C273.969 122.338 274.107 121.996 274.383 121.732C274.659 121.456 275.001 121.318 275.409 121.318C275.817 121.318 276.159 121.456 276.435 121.732C276.711 121.996 276.849 122.338 276.849 122.758C276.849 123.022 276.783 123.268 276.651 123.496C276.531 123.712 276.363 123.88 276.147 124C275.931 124.132 275.685 124.198 275.409 124.198ZM275.409 117.142C275.145 117.142 274.899 117.082 274.671 116.962C274.455 116.83 274.281 116.656 274.149 116.44C274.029 116.212 273.969 115.966 273.969 115.702C273.969 115.282 274.107 114.94 274.383 114.676C274.659 114.4 275.001 114.262 275.409 114.262C275.817 114.262 276.159 114.4 276.435 114.676C276.711 114.94 276.849 115.282 276.849 115.702C276.849 115.966 276.783 116.212 276.651 116.44C276.531 116.656 276.363 116.83 276.147 116.962C275.931 117.082 275.685 117.142 275.409 117.142ZM73.26 146V136.46H81.54V146H79.56V138.152H75.24V146H73.26ZM84.053 149.6V136.46H85.889V138.062C86.177 137.51 86.603 137.072 87.167 136.748C87.743 136.424 88.391 136.262 89.111 136.262C90.359 136.262 91.343 136.652 92.063 137.432C92.783 138.212 93.143 139.388 93.143 140.96V141.32C93.143 142.4 92.975 143.306 92.639 144.038C92.303 144.758 91.835 145.298 91.235 145.658C90.635 146.018 89.927 146.198 89.111 146.198C88.427 146.198 87.803 146.048 87.239 145.748C86.675 145.448 86.273 145.028 86.033 144.488V149.6H84.053ZM88.643 144.47C89.387 144.47 89.987 144.212 90.443 143.696C90.899 143.18 91.127 142.388 91.127 141.32V140.96C91.127 139.952 90.905 139.208 90.461 138.728C90.017 138.236 89.411 137.99 88.643 137.99C88.199 137.99 87.773 138.086 87.365 138.278C86.969 138.47 86.645 138.752 86.393 139.124C86.153 139.496 86.033 139.958 86.033 140.51V141.77C86.033 142.37 86.153 142.874 86.393 143.282C86.645 143.678 86.969 143.978 87.365 144.182C87.761 144.374 88.187 144.47 88.643 144.47ZM99.2672 146.198C98.3912 146.198 97.5992 146.018 96.8912 145.658C96.1832 145.286 95.6192 144.74 95.1992 144.02C94.7912 143.288 94.5872 142.388 94.5872 141.32V140.96C94.5872 139.952 94.7912 139.1 95.1992 138.404C95.6192 137.696 96.1832 137.162 96.8912 136.802C97.5992 136.442 98.3912 136.262 99.2672 136.262C100.155 136.262 100.947 136.442 101.643 136.802C102.351 137.162 102.909 137.696 103.317 138.404C103.737 139.1 103.947 139.952 103.947 140.96V141.32C103.947 142.388 103.737 143.288 103.317 144.02C102.909 144.74 102.351 145.286 101.643 145.658C100.947 146.018 100.155 146.198 99.2672 146.198ZM99.2672 144.47C99.7232 144.47 100.155 144.362 100.563 144.146C100.971 143.93 101.301 143.594 101.553 143.138C101.805 142.67 101.931 142.064 101.931 141.32V140.96C101.931 140.276 101.805 139.718 101.553 139.286C101.301 138.842 100.971 138.518 100.563 138.314C100.155 138.098 99.7232 137.99 99.2672 137.99C98.8112 137.99 98.3792 138.098 97.9712 138.314C97.5632 138.518 97.2332 138.842 96.9812 139.286C96.7292 139.718 96.6032 140.276 96.6032 140.96V141.32C96.6032 142.064 96.7292 142.67 96.9812 143.138C97.2332 143.594 97.5632 143.93 97.9712 144.146C98.3792 144.362 98.8112 144.47 99.2672 144.47ZM105.92 146V136.46H107.9V143.21L112.49 136.46H114.38V146H112.4V139.25L107.81 146H105.92ZM120.416 146.198C119.552 146.198 118.82 146.078 118.22 145.838C117.62 145.598 117.158 145.25 116.834 144.794C116.51 144.326 116.324 143.768 116.276 143.12H118.292C118.34 143.408 118.436 143.654 118.58 143.858C118.736 144.062 118.958 144.218 119.246 144.326C119.546 144.422 119.924 144.47 120.38 144.47C121.196 144.47 121.76 144.338 122.072 144.074C122.384 143.81 122.54 143.48 122.54 143.084C122.54 142.724 122.402 142.442 122.126 142.238C121.862 142.022 121.394 141.914 120.722 141.914H119.156V140.366H120.596C121.148 140.366 121.55 140.252 121.802 140.024C122.054 139.796 122.18 139.508 122.18 139.16C122.18 138.848 122.048 138.578 121.784 138.35C121.52 138.11 121.064 137.99 120.416 137.99C119.72 137.99 119.234 138.104 118.958 138.332C118.694 138.56 118.532 138.866 118.472 139.25H116.456C116.504 138.638 116.684 138.11 116.996 137.666C117.308 137.222 117.752 136.88 118.328 136.64C118.904 136.388 119.6 136.262 120.416 136.262C121.724 136.262 122.678 136.52 123.278 137.036C123.89 137.552 124.196 138.224 124.196 139.052C124.196 139.508 124.082 139.91 123.854 140.258C123.638 140.606 123.278 140.87 122.774 141.05C123.446 141.218 123.908 141.5 124.16 141.896C124.424 142.292 124.556 142.748 124.556 143.264C124.556 143.816 124.406 144.314 124.106 144.758C123.806 145.202 123.35 145.556 122.738 145.82C122.126 146.072 121.352 146.198 120.416 146.198ZM126.539 146V136.46H131.039C131.843 136.46 132.491 136.574 132.983 136.802C133.487 137.018 133.859 137.324 134.099 137.72C134.339 138.104 134.459 138.548 134.459 139.052C134.459 139.472 134.333 139.88 134.081 140.276C133.829 140.66 133.475 140.918 133.019 141.05C133.607 141.194 134.051 141.47 134.351 141.878C134.663 142.274 134.819 142.742 134.819 143.282C134.819 144.11 134.543 144.77 133.991 145.262C133.439 145.754 132.575 146 131.399 146H126.539ZM128.519 144.308H131.129C131.777 144.308 132.221 144.206 132.461 144.002C132.713 143.786 132.839 143.486 132.839 143.102C132.839 142.718 132.713 142.43 132.461 142.238C132.221 142.034 131.777 141.932 131.129 141.932H128.519V144.308ZM128.519 140.384H130.859C131.459 140.384 131.879 140.288 132.119 140.096C132.359 139.892 132.479 139.616 132.479 139.268C132.479 138.92 132.359 138.65 132.119 138.458C131.879 138.254 131.459 138.152 130.859 138.152H128.519V140.384ZM140.945 146.198C140.069 146.198 139.277 146.018 138.569 145.658C137.861 145.286 137.297 144.74 136.877 144.02C136.469 143.288 136.265 142.388 136.265 141.32V140.96C136.265 139.952 136.469 139.1 136.877 138.404C137.297 137.696 137.861 137.162 138.569 136.802C139.277 136.442 140.069 136.262 140.945 136.262C141.833 136.262 142.625 136.442 143.321 136.802C144.029 137.162 144.587 137.696 144.995 138.404C145.415 139.1 145.625 139.952 145.625 140.96V141.32C145.625 142.388 145.415 143.288 144.995 144.02C144.587 144.74 144.029 145.286 143.321 145.658C142.625 146.018 141.833 146.198 140.945 146.198ZM140.945 144.47C141.401 144.47 141.833 144.362 142.241 144.146C142.649 143.93 142.979 143.594 143.231 143.138C143.483 142.67 143.609 142.064 143.609 141.32V140.96C143.609 140.276 143.483 139.718 143.231 139.286C142.979 138.842 142.649 138.518 142.241 138.314C141.833 138.098 141.401 137.99 140.945 137.99C140.489 137.99 140.057 138.098 139.649 138.314C139.241 138.518 138.911 138.842 138.659 139.286C138.407 139.718 138.281 140.276 138.281 140.96V141.32C138.281 142.064 138.407 142.67 138.659 143.138C138.911 143.594 139.241 143.93 139.649 144.146C140.057 144.362 140.489 144.47 140.945 144.47ZM146.61 148.25V144.308H147.69C147.858 144.056 148.002 143.666 148.122 143.138C148.242 142.598 148.332 141.98 148.392 141.284C148.464 140.588 148.5 139.88 148.5 139.16V136.46H155.61V144.308H156.87V148.25H155.034V146H148.446V148.25H146.61ZM149.706 144.308H153.63V138.152H150.408V139.52C150.408 140.444 150.354 141.332 150.246 142.184C150.138 143.024 149.958 143.732 149.706 144.308ZM162.456 146.198C161.604 146.198 160.836 146.018 160.152 145.658C159.468 145.298 158.928 144.758 158.532 144.038C158.148 143.318 157.956 142.412 157.956 141.32V140.96C157.956 139.928 158.16 139.064 158.568 138.368C158.988 137.672 159.54 137.15 160.224 136.802C160.908 136.442 161.652 136.262 162.456 136.262C163.296 136.262 164.004 136.406 164.58 136.694C165.168 136.982 165.624 137.372 165.948 137.864C166.284 138.356 166.5 138.908 166.596 139.52H164.58C164.46 139.076 164.244 138.71 163.932 138.422C163.62 138.134 163.128 137.99 162.456 137.99C162.012 137.99 161.598 138.092 161.214 138.296C160.842 138.5 160.542 138.824 160.314 139.268C160.086 139.7 159.972 140.264 159.972 140.96V141.32C159.972 142.076 160.086 142.688 160.314 143.156C160.542 143.612 160.842 143.948 161.214 144.164C161.598 144.368 162.012 144.47 162.456 144.47C163.02 144.47 163.476 144.344 163.824 144.092C164.172 143.84 164.424 143.456 164.58 142.94H166.596C166.476 143.612 166.224 144.194 165.84 144.686C165.468 145.166 164.994 145.538 164.418 145.802C163.842 146.066 163.188 146.198 162.456 146.198ZM170.731 146V138.152H167.581V136.46H175.861V138.152H172.711V146H170.731ZM177.481 146V136.46H181.981C182.785 136.46 183.433 136.574 183.925 136.802C184.429 137.018 184.801 137.324 185.041 137.72C185.281 138.104 185.401 138.548 185.401 139.052C185.401 139.472 185.275 139.88 185.023 140.276C184.771 140.66 184.417 140.918 183.961 141.05C184.549 141.194 184.993 141.47 185.293 141.878C185.605 142.274 185.761 142.742 185.761 143.282C185.761 144.11 185.485 144.77 184.933 145.262C184.381 145.754 183.517 146 182.341 146H177.481ZM179.461 144.308H182.071C182.719 144.308 183.163 144.206 183.403 144.002C183.655 143.786 183.781 143.486 183.781 143.102C183.781 142.718 183.655 142.43 183.403 142.238C183.163 142.034 182.719 141.932 182.071 141.932H179.461V144.308ZM179.461 140.384H181.801C182.401 140.384 182.821 140.288 183.061 140.096C183.301 139.892 183.421 139.616 183.421 139.268C183.421 138.92 183.301 138.65 183.061 138.458C182.821 138.254 182.401 138.152 181.801 138.152H179.461V140.384ZM191.886 146.198C191.01 146.198 190.218 146.018 189.51 145.658C188.802 145.286 188.238 144.74 187.818 144.02C187.41 143.288 187.206 142.388 187.206 141.32V140.96C187.206 139.952 187.41 139.1 187.818 138.404C188.238 137.696 188.802 137.162 189.51 136.802C190.218 136.442 191.01 136.262 191.886 136.262C192.774 136.262 193.566 136.442 194.262 136.802C194.97 137.162 195.528 137.696 195.936 138.404C196.356 139.1 196.566 139.952 196.566 140.96V141.32C196.566 142.388 196.356 143.288 195.936 144.02C195.528 144.74 194.97 145.286 194.262 145.658C193.566 146.018 192.774 146.198 191.886 146.198ZM191.886 144.47C192.342 144.47 192.774 144.362 193.182 144.146C193.59 143.93 193.92 143.594 194.172 143.138C194.424 142.67 194.55 142.064 194.55 141.32V140.96C194.55 140.276 194.424 139.718 194.172 139.286C193.92 138.842 193.59 138.518 193.182 138.314C192.774 138.098 192.342 137.99 191.886 137.99C191.43 137.99 190.998 138.098 190.59 138.314C190.182 138.518 189.852 138.842 189.6 139.286C189.348 139.718 189.222 140.276 189.222 140.96V141.32C189.222 142.064 189.348 142.67 189.6 143.138C189.852 143.594 190.182 143.93 190.59 144.146C190.998 144.362 191.43 144.47 191.886 144.47ZM207.179 146.198C206.303 146.198 205.511 146.018 204.803 145.658C204.095 145.286 203.531 144.74 203.111 144.02C202.703 143.288 202.499 142.388 202.499 141.32V140.96C202.499 139.952 202.703 139.1 203.111 138.404C203.531 137.696 204.095 137.162 204.803 136.802C205.511 136.442 206.303 136.262 207.179 136.262C208.067 136.262 208.859 136.442 209.555 136.802C210.263 137.162 210.821 137.696 211.229 138.404C211.649 139.1 211.859 139.952 211.859 140.96V141.32C211.859 142.388 211.649 143.288 211.229 144.02C210.821 144.74 210.263 145.286 209.555 145.658C208.859 146.018 208.067 146.198 207.179 146.198ZM207.179 144.47C207.635 144.47 208.067 144.362 208.475 144.146C208.883 143.93 209.213 143.594 209.465 143.138C209.717 142.67 209.843 142.064 209.843 141.32V140.96C209.843 140.276 209.717 139.718 209.465 139.286C209.213 138.842 208.883 138.518 208.475 138.314C208.067 138.098 207.635 137.99 207.179 137.99C206.723 137.99 206.291 138.098 205.883 138.314C205.475 138.518 205.145 138.842 204.893 139.286C204.641 139.718 204.515 140.276 204.515 140.96V141.32C204.515 142.064 204.641 142.67 204.893 143.138C205.145 143.594 205.475 143.93 205.883 144.146C206.291 144.362 206.723 144.47 207.179 144.47ZM213.832 146V136.46H218.332C219.136 136.46 219.784 136.574 220.276 136.802C220.78 137.018 221.152 137.324 221.392 137.72C221.632 138.104 221.752 138.548 221.752 139.052C221.752 139.472 221.626 139.88 221.374 140.276C221.122 140.66 220.768 140.918 220.312 141.05C220.9 141.194 221.344 141.47 221.644 141.878C221.956 142.274 222.112 142.742 222.112 143.282C222.112 144.11 221.836 144.77 221.284 145.262C220.732 145.754 219.868 146 218.692 146H213.832ZM215.812 144.308H218.422C219.07 144.308 219.514 144.206 219.754 144.002C220.006 143.786 220.132 143.486 220.132 143.102C220.132 142.718 220.006 142.43 219.754 142.238C219.514 142.034 219.07 141.932 218.422 141.932H215.812V144.308ZM215.812 140.384H218.152C218.752 140.384 219.172 140.288 219.412 140.096C219.652 139.892 219.772 139.616 219.772 139.268C219.772 138.92 219.652 138.65 219.412 138.458C219.172 138.254 218.752 138.152 218.152 138.152H215.812V140.384ZM228.238 146.198C227.362 146.198 226.57 146.018 225.862 145.658C225.154 145.286 224.59 144.74 224.17 144.02C223.762 143.288 223.558 142.388 223.558 141.32V140.96C223.558 139.952 223.762 139.1 224.17 138.404C224.59 137.696 225.154 137.162 225.862 136.802C226.57 136.442 227.362 136.262 228.238 136.262C229.126 136.262 229.918 136.442 230.614 136.802C231.322 137.162 231.88 137.696 232.288 138.404C232.708 139.1 232.918 139.952 232.918 140.96V141.32C232.918 142.388 232.708 143.288 232.288 144.02C231.88 144.74 231.322 145.286 230.614 145.658C229.918 146.018 229.126 146.198 228.238 146.198ZM228.238 144.47C228.694 144.47 229.126 144.362 229.534 144.146C229.942 143.93 230.272 143.594 230.524 143.138C230.776 142.67 230.902 142.064 230.902 141.32V140.96C230.902 140.276 230.776 139.718 230.524 139.286C230.272 138.842 229.942 138.518 229.534 138.314C229.126 138.098 228.694 137.99 228.238 137.99C227.782 137.99 227.35 138.098 226.942 138.314C226.534 138.518 226.204 138.842 225.952 139.286C225.7 139.718 225.574 140.276 225.574 140.96V141.32C225.574 142.064 225.7 142.67 225.952 143.138C226.204 143.594 226.534 143.93 226.942 144.146C227.35 144.362 227.782 144.47 228.238 144.47ZM246.735 148.25V146H234.891V136.46H236.871V144.308H240.021V136.46H242.001V144.308H245.151V136.46H247.131V144.308H248.571V148.25H246.735ZM254.341 146.198C253.501 146.198 252.727 146.024 252.019 145.676C251.311 145.316 250.741 144.776 250.309 144.056C249.877 143.336 249.661 142.424 249.661 141.32V140.96C249.661 139.904 249.865 139.028 250.273 138.332C250.693 137.636 251.245 137.12 251.929 136.784C252.613 136.436 253.357 136.262 254.161 136.262C255.613 136.262 256.723 136.652 257.491 137.432C258.271 138.212 258.661 139.328 258.661 140.78V141.788H251.677C251.701 142.436 251.839 142.958 252.091 143.354C252.343 143.75 252.667 144.038 253.063 144.218C253.459 144.386 253.885 144.47 254.341 144.47C255.025 144.47 255.523 144.362 255.835 144.146C256.159 143.93 256.381 143.648 256.501 143.3H258.481C258.289 144.248 257.815 144.968 257.059 145.46C256.315 145.952 255.409 146.198 254.341 146.198ZM254.251 137.99C253.807 137.99 253.393 138.068 253.009 138.224C252.625 138.38 252.313 138.626 252.073 138.962C251.833 139.298 251.701 139.748 251.677 140.312H256.681C256.669 139.712 256.555 139.244 256.339 138.908C256.123 138.572 255.835 138.338 255.475 138.206C255.115 138.062 254.707 137.99 254.251 137.99ZM260.643 146V136.46H262.623V143.21L267.213 136.46H269.103V146H267.123V139.25L262.533 146H260.643ZM264.873 135.38C263.877 135.38 263.145 135.164 262.677 134.732C262.221 134.288 261.993 133.664 261.993 132.86H263.829C263.829 133.292 263.913 133.604 264.081 133.796C264.261 133.988 264.525 134.084 264.873 134.084C265.221 134.084 265.479 133.988 265.647 133.796C265.827 133.604 265.917 133.292 265.917 132.86H267.753C267.753 133.664 267.519 134.288 267.051 134.732C266.583 135.164 265.857 135.38 264.873 135.38ZM271.269 148.79L271.989 146V143.732H274.329V146L272.349 148.79H271.269ZM77.76 171.6V168.198C76.104 168.198 74.85 167.778 73.998 166.938C73.146 166.098 72.72 164.892 72.72 163.32V162.96C72.72 161.46 73.146 160.302 73.998 159.486C74.85 158.67 76.104 158.262 77.76 158.262V155.4H79.74V158.262C81.384 158.262 82.632 158.67 83.484 159.486C84.348 160.302 84.78 161.46 84.78 162.96V163.32C84.78 164.892 84.348 166.098 83.484 166.938C82.632 167.778 81.384 168.198 79.74 168.198V171.6H77.76ZM82.764 163.32V162.96C82.764 161.964 82.518 161.22 82.026 160.728C81.546 160.236 80.772 159.99 79.704 159.99V166.47C80.772 166.47 81.546 166.212 82.026 165.696C82.518 165.168 82.764 164.376 82.764 163.32ZM74.736 162.942V163.32C74.736 164.376 74.982 165.168 75.474 165.696C75.966 166.212 76.74 166.47 77.796 166.47V159.99C76.728 159.99 75.948 160.236 75.456 160.728C74.976 161.22 74.736 161.958 74.736 162.942ZM86.76 171.6V158.46H88.596V160.062C88.884 159.51 89.31 159.072 89.874 158.748C90.45 158.424 91.098 158.262 91.818 158.262C93.066 158.262 94.05 158.652 94.77 159.432C95.49 160.212 95.85 161.388 95.85 162.96V163.32C95.85 164.4 95.682 165.306 95.346 166.038C95.01 166.758 94.542 167.298 93.942 167.658C93.342 168.018 92.634 168.198 91.818 168.198C91.134 168.198 90.51 168.048 89.946 167.748C89.382 167.448 88.98 167.028 88.74 166.488V171.6H86.76ZM91.35 166.47C92.094 166.47 92.694 166.212 93.15 165.696C93.606 165.18 93.834 164.388 93.834 163.32V162.96C93.834 161.952 93.612 161.208 93.168 160.728C92.724 160.236 92.118 159.99 91.35 159.99C90.906 159.99 90.48 160.086 90.072 160.278C89.676 160.47 89.352 160.752 89.1 161.124C88.86 161.496 88.74 161.958 88.74 162.51V163.77C88.74 164.37 88.86 164.874 89.1 165.282C89.352 165.678 89.676 165.978 90.072 166.182C90.468 166.374 90.894 166.47 91.35 166.47ZM99.0127 171.798C98.8327 171.798 98.6527 171.78 98.4727 171.744V170.016C98.6527 170.052 98.8327 170.07 99.0127 170.07C99.2767 170.07 99.4927 170.004 99.6607 169.872C99.8287 169.752 99.9847 169.542 100.129 169.242C100.273 168.942 100.441 168.528 100.633 168L96.5827 158.46H98.7427L101.659 165.84L104.287 158.46H106.303L102.613 168C102.265 168.888 101.935 169.614 101.623 170.178C101.311 170.742 100.957 171.15 100.561 171.402C100.165 171.666 99.6487 171.798 99.0127 171.798ZM107.924 168V158.46H109.904V162.33H110.984L114.332 158.46H116.564L112.514 163.014L116.744 168H114.332L110.984 163.95H109.904V168H107.924ZM120.615 168V160.152H117.465V158.46H125.745V160.152H122.595V168H120.615ZM131.33 168.198C130.454 168.198 129.662 168.018 128.954 167.658C128.246 167.286 127.682 166.74 127.262 166.02C126.854 165.288 126.65 164.388 126.65 163.32V162.96C126.65 161.952 126.854 161.1 127.262 160.404C127.682 159.696 128.246 159.162 128.954 158.802C129.662 158.442 130.454 158.262 131.33 158.262C132.218 158.262 133.01 158.442 133.706 158.802C134.414 159.162 134.972 159.696 135.38 160.404C135.8 161.1 136.01 161.952 136.01 162.96V163.32C136.01 164.388 135.8 165.288 135.38 166.02C134.972 166.74 134.414 167.286 133.706 167.658C133.01 168.018 132.218 168.198 131.33 168.198ZM131.33 166.47C131.786 166.47 132.218 166.362 132.626 166.146C133.034 165.93 133.364 165.594 133.616 165.138C133.868 164.67 133.994 164.064 133.994 163.32V162.96C133.994 162.276 133.868 161.718 133.616 161.286C133.364 160.842 133.034 160.518 132.626 160.314C132.218 160.098 131.786 159.99 131.33 159.99C130.874 159.99 130.442 160.098 130.034 160.314C129.626 160.518 129.296 160.842 129.044 161.286C128.792 161.718 128.666 162.276 128.666 162.96V163.32C128.666 164.064 128.792 164.67 129.044 165.138C129.296 165.594 129.626 165.93 130.034 166.146C130.442 166.362 130.874 166.47 131.33 166.47ZM137.983 168V158.46H142.483C143.287 158.46 143.935 158.574 144.427 158.802C144.931 159.018 145.303 159.324 145.543 159.72C145.783 160.104 145.903 160.548 145.903 161.052C145.903 161.472 145.777 161.88 145.525 162.276C145.273 162.66 144.919 162.918 144.463 163.05C145.051 163.194 145.495 163.47 145.795 163.878C146.107 164.274 146.263 164.742 146.263 165.282C146.263 166.11 145.987 166.77 145.435 167.262C144.883 167.754 144.019 168 142.843 168H137.983ZM139.963 166.308H142.573C143.221 166.308 143.665 166.206 143.905 166.002C144.157 165.786 144.283 165.486 144.283 165.102C144.283 164.718 144.157 164.43 143.905 164.238C143.665 164.034 143.221 163.932 142.573 163.932H139.963V166.308ZM139.963 162.384H142.303C142.903 162.384 143.323 162.288 143.563 162.096C143.803 161.892 143.923 161.616 143.923 161.268C143.923 160.92 143.803 160.65 143.563 160.458C143.323 160.254 142.903 160.152 142.303 160.152H139.963V162.384ZM147.713 170.79L148.433 168V165.732H150.773V168L148.793 170.79H147.713ZM158.145 168V158.46H160.125V165.21L164.715 158.46H166.605V168H164.625V161.25L160.035 168H158.145ZM169.131 168V158.46H171.111V162.33H172.191L175.539 158.46H177.771L173.721 163.014L177.951 168H175.539L172.191 163.95H171.111V168H169.131ZM179.573 171.6V158.46H181.409V160.062C181.697 159.51 182.123 159.072 182.687 158.748C183.263 158.424 183.911 158.262 184.631 158.262C185.879 158.262 186.863 158.652 187.583 159.432C188.303 160.212 188.663 161.388 188.663 162.96V163.32C188.663 164.4 188.495 165.306 188.159 166.038C187.823 166.758 187.355 167.298 186.755 167.658C186.155 168.018 185.447 168.198 184.631 168.198C183.947 168.198 183.323 168.048 182.759 167.748C182.195 167.448 181.793 167.028 181.553 166.488V171.6H179.573ZM184.163 166.47C184.907 166.47 185.507 166.212 185.963 165.696C186.419 165.18 186.647 164.388 186.647 163.32V162.96C186.647 161.952 186.425 161.208 185.981 160.728C185.537 160.236 184.931 159.99 184.163 159.99C183.719 159.99 183.293 160.086 182.885 160.278C182.489 160.47 182.165 160.752 181.913 161.124C181.673 161.496 181.553 161.958 181.553 162.51V163.77C181.553 164.37 181.673 164.874 181.913 165.282C182.165 165.678 182.489 165.978 182.885 166.182C183.281 166.374 183.707 166.47 184.163 166.47ZM190.647 168V158.46H192.627V161.808H194.427C195.651 161.808 196.557 162.072 197.145 162.6C197.733 163.116 198.027 163.884 198.027 164.904C198.027 165.54 197.901 166.092 197.649 166.56C197.397 167.028 197.007 167.388 196.479 167.64C195.951 167.88 195.267 168 194.427 168H190.647ZM192.627 166.308H194.247C194.907 166.308 195.369 166.194 195.633 165.966C195.909 165.726 196.047 165.372 196.047 164.904C196.047 164.436 195.909 164.088 195.633 163.86C195.369 163.62 194.907 163.5 194.247 163.5H192.627V166.308ZM199.287 168V158.46H201.267V168H199.287ZM203.611 170.79L204.331 168V165.732H206.671V168L204.691 170.79H203.611ZM73.26 190V180.46H75.24V188.308H78.39V180.46H80.37V188.308H83.52V180.46H85.5V190H73.26ZM92.1656 190.198C91.2896 190.198 90.4976 190.018 89.7896 189.658C89.0816 189.286 88.5176 188.74 88.0976 188.02C87.6896 187.288 87.4856 186.388 87.4856 185.32V184.96C87.4856 183.952 87.6896 183.1 88.0976 182.404C88.5176 181.696 89.0816 181.162 89.7896 180.802C90.4976 180.442 91.2896 180.262 92.1656 180.262C93.0536 180.262 93.8456 180.442 94.5416 180.802C95.2496 181.162 95.8076 181.696 96.2156 182.404C96.6356 183.1 96.8456 183.952 96.8456 184.96V185.32C96.8456 186.388 96.6356 187.288 96.2156 188.02C95.8076 188.74 95.2496 189.286 94.5416 189.658C93.8456 190.018 93.0536 190.198 92.1656 190.198ZM92.1656 188.47C92.6216 188.47 93.0536 188.362 93.4616 188.146C93.8696 187.93 94.1996 187.594 94.4516 187.138C94.7036 186.67 94.8296 186.064 94.8296 185.32V184.96C94.8296 184.276 94.7036 183.718 94.4516 183.286C94.1996 182.842 93.8696 182.518 93.4616 182.314C93.0536 182.098 92.6216 181.99 92.1656 181.99C91.7096 181.99 91.2776 182.098 90.8696 182.314C90.4616 182.518 90.1316 182.842 89.8796 183.286C89.6276 183.718 89.5016 184.276 89.5016 184.96V185.32C89.5016 186.064 89.6276 186.67 89.8796 187.138C90.1316 187.594 90.4616 187.93 90.8696 188.146C91.2776 188.362 91.7096 188.47 92.1656 188.47ZM98.8186 190V180.46H100.799V184.33H101.879L105.227 180.46H107.459L103.409 185.014L107.639 190H105.227L101.879 185.95H100.799V190H98.8186ZM113.048 190.198C112.172 190.198 111.38 190.018 110.672 189.658C109.964 189.286 109.4 188.74 108.98 188.02C108.572 187.288 108.368 186.388 108.368 185.32V184.96C108.368 183.952 108.572 183.1 108.98 182.404C109.4 181.696 109.964 181.162 110.672 180.802C111.38 180.442 112.172 180.262 113.048 180.262C113.936 180.262 114.728 180.442 115.424 180.802C116.132 181.162 116.69 181.696 117.098 182.404C117.518 183.1 117.728 183.952 117.728 184.96V185.32C117.728 186.388 117.518 187.288 117.098 188.02C116.69 188.74 116.132 189.286 115.424 189.658C114.728 190.018 113.936 190.198 113.048 190.198ZM113.048 188.47C113.504 188.47 113.936 188.362 114.344 188.146C114.752 187.93 115.082 187.594 115.334 187.138C115.586 186.67 115.712 186.064 115.712 185.32V184.96C115.712 184.276 115.586 183.718 115.334 183.286C115.082 182.842 114.752 182.518 114.344 182.314C113.936 182.098 113.504 181.99 113.048 181.99C112.592 181.99 112.16 182.098 111.752 182.314C111.344 182.518 111.014 182.842 110.762 183.286C110.51 183.718 110.384 184.276 110.384 184.96V185.32C110.384 186.064 110.51 186.67 110.762 187.138C111.014 187.594 111.344 187.93 111.752 188.146C112.16 188.362 112.592 188.47 113.048 188.47ZM119.346 190.198C119.25 190.198 119.142 190.192 119.022 190.18C118.914 190.18 118.812 190.168 118.716 190.144V188.272C118.752 188.284 118.842 188.29 118.986 188.29C119.322 188.29 119.592 188.146 119.796 187.858C120.012 187.57 120.168 187.072 120.264 186.364C120.372 185.644 120.426 184.636 120.426 183.34V180.46H127.626V190H125.646V182.152H122.334V183.7C122.334 184.972 122.268 186.034 122.136 186.886C122.016 187.726 121.83 188.386 121.578 188.866C121.326 189.346 121.014 189.688 120.642 189.892C120.27 190.096 119.838 190.198 119.346 190.198ZM132.933 190.198C132.249 190.198 131.661 190.072 131.169 189.82C130.689 189.556 130.323 189.196 130.071 188.74C129.819 188.284 129.693 187.774 129.693 187.21C129.693 186.262 129.975 185.56 130.539 185.104C131.103 184.636 131.931 184.402 133.023 184.402H135.993V183.88C135.993 183.16 135.831 182.668 135.507 182.404C135.195 182.128 134.697 181.99 134.013 181.99C133.401 181.99 132.951 182.086 132.663 182.278C132.375 182.47 132.207 182.734 132.159 183.07H130.233C130.269 182.518 130.443 182.032 130.755 181.612C131.067 181.192 131.505 180.862 132.069 180.622C132.645 180.382 133.323 180.262 134.103 180.262C134.883 180.262 135.561 180.382 136.137 180.622C136.725 180.862 137.175 181.24 137.487 181.756C137.811 182.26 137.973 182.932 137.973 183.772V187.57C137.973 188.074 137.979 188.518 137.991 188.902C138.003 189.274 138.033 189.64 138.081 190H136.281C136.245 189.724 136.215 189.49 136.191 189.298C136.179 189.106 136.173 188.866 136.173 188.578C135.945 189.022 135.549 189.406 134.985 189.73C134.433 190.042 133.749 190.198 132.933 190.198ZM133.473 188.47C133.929 188.47 134.343 188.392 134.715 188.236C135.099 188.08 135.405 187.846 135.633 187.534C135.873 187.222 135.993 186.844 135.993 186.4V185.878H133.383C132.879 185.878 132.471 185.986 132.159 186.202C131.859 186.418 131.709 186.736 131.709 187.156C131.709 187.552 131.847 187.87 132.123 188.11C132.411 188.35 132.861 188.47 133.473 188.47ZM139.508 192.25V188.308H140.588C140.756 188.056 140.9 187.666 141.02 187.138C141.14 186.598 141.23 185.98 141.29 185.284C141.362 184.588 141.398 183.88 141.398 183.16V180.46H148.508V188.308H149.768V192.25H147.932V190H141.344V192.25H139.508ZM142.604 188.308H146.528V182.152H143.306V183.52C143.306 184.444 143.252 185.332 143.144 186.184C143.036 187.024 142.856 187.732 142.604 188.308ZM151.483 190V180.46H153.463V184.294H157.963V180.46H159.943V190H157.963V185.986H153.463V190H151.483ZM162.469 190V180.46H164.449V183.808H166.249C167.473 183.808 168.379 184.072 168.967 184.6C169.555 185.116 169.849 185.884 169.849 186.904C169.849 187.54 169.723 188.092 169.471 188.56C169.219 189.028 168.829 189.388 168.301 189.64C167.773 189.88 167.089 190 166.249 190H162.469ZM164.449 188.308H166.069C166.729 188.308 167.191 188.194 167.455 187.966C167.731 187.726 167.869 187.372 167.869 186.904C167.869 186.436 167.731 186.088 167.455 185.86C167.191 185.62 166.729 185.5 166.069 185.5H164.449V188.308ZM171.109 190V180.46H173.089V190H171.109ZM174.893 190L178.331 185.032L175.073 180.46H177.305L179.627 183.664L181.913 180.46H184.073L180.851 184.96L184.253 190H181.985L179.555 186.292L177.089 190H174.893ZM190.365 190V180.46H192.345V184.33H193.425L196.773 180.46H199.005L194.955 185.014L199.185 190H196.773L193.425 185.95H192.345V190H190.365ZM204.595 190.198C203.719 190.198 202.927 190.018 202.219 189.658C201.511 189.286 200.947 188.74 200.527 188.02C200.119 187.288 199.915 186.388 199.915 185.32V184.96C199.915 183.952 200.119 183.1 200.527 182.404C200.947 181.696 201.511 181.162 202.219 180.802C202.927 180.442 203.719 180.262 204.595 180.262C205.483 180.262 206.275 180.442 206.971 180.802C207.679 181.162 208.237 181.696 208.645 182.404C209.065 183.1 209.275 183.952 209.275 184.96V185.32C209.275 186.388 209.065 187.288 208.645 188.02C208.237 188.74 207.679 189.286 206.971 189.658C206.275 190.018 205.483 190.198 204.595 190.198ZM204.595 188.47C205.051 188.47 205.483 188.362 205.891 188.146C206.299 187.93 206.629 187.594 206.881 187.138C207.133 186.67 207.259 186.064 207.259 185.32V184.96C207.259 184.276 207.133 183.718 206.881 183.286C206.629 182.842 206.299 182.518 205.891 182.314C205.483 182.098 205.051 181.99 204.595 181.99C204.139 181.99 203.707 182.098 203.299 182.314C202.891 182.518 202.561 182.842 202.309 183.286C202.057 183.718 201.931 184.276 201.931 184.96V185.32C201.931 186.064 202.057 186.67 202.309 187.138C202.561 187.594 202.891 187.93 203.299 188.146C203.707 188.362 204.139 188.47 204.595 188.47ZM211.248 190V180.46H213.228V184.294H217.728V180.46H219.708V190H217.728V185.986H213.228V190H211.248ZM226.735 193.6V190.198C225.079 190.198 223.825 189.778 222.973 188.938C222.121 188.098 221.695 186.892 221.695 185.32V184.96C221.695 183.46 222.121 182.302 222.973 181.486C223.825 180.67 225.079 180.262 226.735 180.262V177.4H228.715V180.262C230.359 180.262 231.607 180.67 232.459 181.486C233.323 182.302 233.755 183.46 233.755 184.96V185.32C233.755 186.892 233.323 188.098 232.459 188.938C231.607 189.778 230.359 190.198 228.715 190.198V193.6H226.735ZM231.739 185.32V184.96C231.739 183.964 231.493 183.22 231.001 182.728C230.521 182.236 229.747 181.99 228.679 181.99V188.47C229.747 188.47 230.521 188.212 231.001 187.696C231.493 187.168 231.739 186.376 231.739 185.32ZM223.711 184.942V185.32C223.711 186.376 223.957 187.168 224.449 187.696C224.941 188.212 225.715 188.47 226.771 188.47V181.99C225.703 181.99 224.923 182.236 224.431 182.728C223.951 183.22 223.711 183.958 223.711 184.942ZM239.875 190.198C239.035 190.198 238.261 190.024 237.553 189.676C236.845 189.316 236.275 188.776 235.843 188.056C235.411 187.336 235.195 186.424 235.195 185.32V184.96C235.195 183.904 235.399 183.028 235.807 182.332C236.227 181.636 236.779 181.12 237.463 180.784C238.147 180.436 238.891 180.262 239.695 180.262C241.147 180.262 242.257 180.652 243.025 181.432C243.805 182.212 244.195 183.328 244.195 184.78V185.788H237.211C237.235 186.436 237.373 186.958 237.625 187.354C237.877 187.75 238.201 188.038 238.597 188.218C238.993 188.386 239.419 188.47 239.875 188.47C240.559 188.47 241.057 188.362 241.369 188.146C241.693 187.93 241.915 187.648 242.035 187.3H244.015C243.823 188.248 243.349 188.968 242.593 189.46C241.849 189.952 240.943 190.198 239.875 190.198ZM239.785 181.99C239.341 181.99 238.927 182.068 238.543 182.224C238.159 182.38 237.847 182.626 237.607 182.962C237.367 183.298 237.235 183.748 237.211 184.312H242.215C242.203 183.712 242.089 183.244 241.873 182.908C241.657 182.572 241.369 182.338 241.009 182.206C240.649 182.062 240.241 181.99 239.785 181.99ZM248.25 190V182.152H245.1V180.46H253.38V182.152H250.23V190H248.25Z" fill="#313131"/>
<rect x="20" y="62" width="36" height="36" rx="18" fill="white"/>
<path d="M37.9 87.24C36.7667 87.24 35.8133 87.06 35.04 86.7C34.2667 86.3267 33.68 85.8 33.28 85.12C32.8933 84.44 32.7 83.6333 32.7 82.7H35.7C35.7 83.38 35.8733 83.8867 36.22 84.22C36.5667 84.5533 37.1267 84.72 37.9 84.72C38.6333 84.72 39.18 84.56 39.54 84.24C39.9133 83.9067 40.1 83.44 40.1 82.84C40.1 82.2133 39.9133 81.74 39.54 81.42C39.18 81.1 38.6333 80.94 37.9 80.94H36.58V78.66H37.9C38.54 78.66 39.0333 78.5267 39.38 78.26C39.7267 77.98 39.9 77.5533 39.9 76.98C39.9 76.4867 39.7333 76.08 39.4 75.76C39.0667 75.44 38.5667 75.28 37.9 75.28C37.22 75.28 36.7133 75.4333 36.38 75.74C36.06 76.0467 35.9 76.5 35.9 77.1H32.9C32.9 76.18 33.08 75.4 33.44 74.76C33.8133 74.1067 34.3733 73.6133 35.12 73.28C35.8667 72.9333 36.7933 72.76 37.9 72.76C39.0067 72.76 39.9333 72.9267 40.68 73.26C41.4267 73.5933 41.98 74.0467 42.34 74.62C42.7133 75.1933 42.9 75.84 42.9 76.56C42.9 77.3467 42.68 78.0133 42.24 78.56C41.8133 79.0933 41.24 79.4733 40.52 79.7C41.3467 79.9267 41.98 80.3267 42.42 80.9C42.8733 81.46 43.1 82.1933 43.1 83.1C43.1 83.9 42.8867 84.6133 42.46 85.24C42.0467 85.8533 41.4533 86.34 40.68 86.7C39.9067 87.06 38.98 87.24 37.9 87.24Z" fill="#313131"/>
</svg>
